<?xml version="1.0" encoding="utf-8"?>
<!-- Generator: Adobe Illustrator 27.3.1, SVG Export Plug-In . SVG Version: 6.00 Build 0)  -->
<svg version="1.1" id="Layer_1" xmlns="http://www.w3.org/2000/svg" xmlns:xlink="http://www.w3.org/1999/xlink" x="0px" y="0px"
	 viewBox="0 0 1457.4 1028.4" style="enable-background:new 0 0 1457.4 1028.4;" xml:space="preserve">
<style type="text/css">
	.st0{enable-background:new    ;}
	.st1{fill:#005460;}
	.st2{fill:#005D6B;}
	.st3{fill:#808080;}
	.st4{fill:#8F8F8F;}
	.st5{fill:#E9E9E9;}
	.st6{fill:#0098AE;}
	.st7{fill:#8AE3FF;}
	.st8{fill:#00554F;}
	.st9{fill:#005F58;}
	.st10{fill:none;stroke:#005F58;stroke-width:3;stroke-miterlimit:10;}
	.st11{opacity:0.9;}
	.st12{fill:#BBC2CC;}
	.st13{opacity:0.88;}
	.st14{fill:#F1FF8D;stroke:#F1FFA1;stroke-width:3;stroke-miterlimit:10;}
	.st15{fill:#8AE3FF;stroke:#000000;stroke-miterlimit:10;}
	.st16{fill:#FFFFFF;stroke:#FFFFFF;stroke-width:2;stroke-miterlimit:10;}
	.st17{fill:#FFFFFF;stroke:#000000;stroke-width:2;stroke-miterlimit:10;}
	.st18{font-family:'ArialMT';}
	.st19{font-size:45.7156px;}
	.st20{font-size:45px;}
	.st21{font-family:'TimesNewRomanPS-BoldMT';}
	.st22{font-size:32px;}
	.st23{font-size:19.7019px;}
	.st24{font-size:47.7148px;}
	.st25{fill:none;stroke:#23005F;stroke-width:0.75;stroke-miterlimit:10;}
	.st26{fill:#FFFFFF;}
	.st27{font-size:4.4897px;}
	.st28{font-size:4.0126px;}
	.st29{font-size:4.0123px;}
	.st30{font-size:7.4284px;}
	.st31{font-size:6.639px;}
	.st32{font-size:6.6386px;}
	.st33{font-size:3.5335px;}
</style>
<g>
	<g>
		<g>

				<image style="overflow:visible;enable-background:new    ;" width="1067" height="118" xlink:href="B5BEEBF3.png"  transform="matrix(0.999 0 0 0.999 320.8723 821.0783)">
			</image>
		</g>
	</g>
</g>
<g>
	<g>

			<image style="overflow:visible;enable-background:new    ;" width="646" height="271" xlink:href="B5BEEBF1.png"  transform="matrix(0.9981 0 0 0.9981 730.9022 644.6696)">
		</image>
	</g>
</g>
<g>
	<g>

			<image style="overflow:visible;enable-background:new    ;" width="88" height="511" xlink:href="B5BEEBFE.png"  transform="matrix(0.4891 0 0 0.4891 357.2998 681.0646)">
		</image>
	</g>
</g>
<g>
	<g>

			<image style="overflow:visible;enable-background:new    ;" width="86" height="512" xlink:href="B5BEEBFF.png"  transform="matrix(0.4885 0 0 0.4885 402.8992 629.1094)">
		</image>
	</g>
</g>
<g>
	<g>

			<image style="overflow:visible;enable-background:new    ;" width="88" height="512" xlink:href="B5BEEBF2.png"  transform="matrix(0.4881 0 0 0.4881 650.2337 629.19)">
		</image>
	</g>
</g>
<g>
	<g>

			<image style="overflow:visible;enable-background:new    ;" width="88" height="512" xlink:href="B5BEEBF5.png"  transform="matrix(0.4881 0 0 0.4881 605.1497 682.0576)">
		</image>
	</g>
</g>
<g>
	<g>
		<g class="st0">
			<g>
				<polygon class="st1" points="723.3,648.8 723.3,664.3 380.9,663.1 380.9,647.7 				"/>
			</g>
			<g>
				<polygon class="st2" points="380.9,647.7 380.9,663.1 323.7,730.5 323.7,715 				"/>
			</g>
			<g>
				<polygon class="st3" points="666,716.2 666,731.6 323.7,730.5 323.7,715 				"/>
			</g>
			<g>
				<polygon class="st4" points="723.3,648.8 723.3,664.3 666,731.6 666,716.2 				"/>
			</g>
			<g>
				<polygon class="st5" points="380.9,647.7 723.3,648.8 666,716.2 323.7,715 				"/>
			</g>
			<g>
				<polygon class="st1" points="666.5,717.1 666.5,732.6 321.6,731.4 321.6,715.9 				"/>
			</g>
			<g>
				<polygon class="st2" points="725.4,647.9 725.4,663.3 666.5,732.6 666.5,717.1 				"/>
			</g>
			<g>
				<path class="st6" d="M380.4,646.7l344.9,1.2l-58.9,69.2l-344.9-1.2L380.4,646.7z M666,716.2l57.2-67.3l-342.4-1.2L323.6,715
					L666,716.2"/>
			</g>
		</g>
	</g>
</g>
<polygon id="Water_Tank_Base" class="st7" points="665.8,718.5 323.5,716.7 381.1,649 723.4,650.7 "/>
<g>
	<g>
		<g class="st0">
			<g>
				<polygon class="st8" points="380.3,461.9 725.3,463.1 725.3,648.5 380.3,647.3 				"/>
			</g>
			<g>
				<polygon class="st8" points="723.2,464 723.2,649.4 380.8,648.3 380.8,462.8 				"/>
			</g>
			<g>
				<polygon class="st3" points="380.8,462.8 723.2,464 723.2,649.4 380.8,648.3 				"/>
			</g>
			<g>
				<polygon class="st9" points="321.5,531.1 380.3,461.9 380.3,647.3 321.5,716.5 				"/>
			</g>
			<g>
				<polygon class="st9" points="380.8,462.8 380.8,648.3 323.6,715.6 323.6,530.2 				"/>
			</g>
			<g>
				<polygon class="st4" points="323.6,530.2 380.8,462.8 380.8,648.3 323.6,715.6 				"/>
			</g>
			<g>
				<polygon class="st9" points="665.9,531.4 723.2,464 723.2,649.4 665.9,716.8 				"/>
			</g>
			<g>
				<polygon class="st4" points="723.2,464 723.2,649.4 665.9,716.8 665.9,531.4 				"/>
			</g>
			<g>
				<polygon class="st9" points="725.3,463.1 725.3,648.5 666.4,717.7 666.4,532.3 				"/>
			</g>
		</g>
	</g>
</g>
<g>
	<g>

			<image style="overflow:visible;enable-background:new    ;" width="99" height="512" xlink:href="C70F2021.png"  transform="matrix(0.3085 0 0 0.3085 402.9937 360.5516)">
		</image>
	</g>
</g>
<line class="st10" x1="667.1" y1="533.1" x2="322.7" y2="532.1"/>
<g>
	<g>

			<image style="overflow:visible;enable-background:new    ;" width="509" height="153" xlink:href="C70F2020.png"  transform="matrix(0.1965 0 0 0.1965 726.3216 636.3215)">
		</image>
	</g>
</g>
<g class="st11">
	<g>

			<image style="overflow:visible;enable-background:new    ;" width="512" height="128" xlink:href="C70F202F.png"  transform="matrix(0.6774 0 0 0.6774 1028.5571 644.6793)">
		</image>
	</g>
</g>
<g>
	<g>

			<image style="overflow:visible;enable-background:new    ;" width="54" height="511" xlink:href="C52FA6DB.png"  transform="matrix(0.5752 0 0 0.5752 1133.2225 358.0558)">
		</image>
	</g>
</g>
<g>
	<g>

			<image style="overflow:visible;enable-background:new    ;" width="511" height="87" xlink:href="C52FA6DC.png"  transform="matrix(0.3464 0 0 0.3464 968.7264 343.5946)">
		</image>
	</g>
</g>
<g>
	<g>

			<image style="overflow:visible;enable-background:new    ;" width="513" height="43" xlink:href="C52FA6DD.png"  transform="matrix(0.6978 0 0 0.6978 413.7099 343.6572)">
		</image>
	</g>
</g>
<rect id="Mercury_Left" x="869.2" y="458.7" class="st12" width="7.4" height="37.5"/>
<rect id="Mercury_Right" x="952.5" y="458.7" class="st12" width="7.5" height="37"/>
<g id="Mercury_Fixed">
	<g>
		<path class="st12" d="M960,494.8c0.1,1,0,5.6-0.1,7.4c-0.1,2.7-0.6,9.4-4.9,17.1c-6.3,11.1-15,17.5-16.9,18.4
			c-3.2,1.5-11.6,8.3-26.1,6c-14.3-2.3-23.2-10.1-27.5-14.4c-11-10.8-15.1-24-15.1-34.3l7.4,0.3c0,8.5,2.2,18.4,11.2,27.4
			c3.5,3.5,9.4,10.7,21,12.6c11.8,1.9,21.9-3.1,24.4-4.3c1.5-0.7,9.5-6.3,14.6-15.5c3.6-6.4,4-10.5,4.1-12.8c0.1-1.4,0.7-7,0.6-7.9
			L960,494.8L960,494.8z"/>
	</g>
</g>
<g>
	<g>

			<image style="overflow:visible;enable-background:new    ;" width="510" height="232" xlink:href="C52FA6DE.png"  transform="matrix(6.307670e-02 0 0 6.307670e-02 857.9922 351.4645)">
		</image>
	</g>
</g>
<g class="st13">
	<g>

			<image style="overflow:visible;enable-background:new    ;" width="258" height="511" xlink:href="C52FA6DA.png"  transform="matrix(0.3759 0 0 0.3759 865.6761 357.2799)">
		</image>
	</g>
</g>
<g>
	<g>

			<image style="overflow:visible;enable-background:new    ;" width="510" height="154" xlink:href="C52FA743.png"  transform="matrix(0.196 0 0 0.196 762.6209 343.5681)">
		</image>
	</g>
</g>
<g>
	<g>

			<image style="overflow:visible;enable-background:new    ;" width="513" height="179" xlink:href="C52FA74B.png"  transform="matrix(0.1677 0 0 0.1677 887.2017 343.6542)">
		</image>
	</g>
</g>
<g>
	<g>

			<image style="overflow:visible;enable-background:new    ;" width="209" height="510" xlink:href="C52FA74A.png"  transform="matrix(0.1416 0 0 0.1416 1071.6562 641.2478)">
		</image>
	</g>
</g>
<g>
	<g>

			<image style="overflow:visible;enable-background:new    ;" width="212" height="510" xlink:href="C52FA74F.png"  transform="matrix(0.1413 0 0 0.1413 811.8473 651.3226)">
		</image>
	</g>
</g>
<g>
	<g>

			<image style="overflow:visible;enable-background:new    ;" width="511" height="211" xlink:href="C52FA74C.png"  transform="matrix(0.1411 0 0 0.1411 1078.9618 631.4106)">
		</image>
	</g>
</g>
<g id="Motor_Leg_2">
	<g>

			<image style="overflow:visible;enable-background:new    ;" width="509" height="501" xlink:href="C52FA74D.png"  transform="matrix(5.544380e-02 0 0 5.544380e-02 1261.8691 676.2634)">
		</image>
	</g>
</g>
<g id="Motor_Leg_1">
	<g>

			<image style="overflow:visible;enable-background:new    ;" width="502" height="502" xlink:href="C52FA74E.png"  transform="matrix(5.577689e-02 0 0 5.577689e-02 1219.614 676.202)">
		</image>
	</g>
</g>
<g id="Motor_Shaft">
	<g>

			<image style="overflow:visible;enable-background:new    ;" width="508" height="144" xlink:href="C52FA752.png"  transform="matrix(0.1199 0 0 0.1199 1160.786 636.666)">
		</image>
	</g>
</g>
<g id="Motor">
	<g>

			<image style="overflow:visible;enable-background:new    ;" width="514" height="386" xlink:href="B5BEEBF0.png"  transform="matrix(0.2457 0 0 0.2457 1191.2529 597.2458)">
		</image>
	</g>
</g>
<rect id="Water_1" x="1077" y="651.6" class="st7" width="19.6" height="56.8"/>
<rect id="Water_9" x="816.9" y="662.6" class="st7" width="19.6" height="56.8"/>
<rect id="Water_3" x="1140" y="534.1" class="st7" width="19.6" height="89.4"/>
<rect id="Water_4" x="1140" y="371.2" class="st7" width="19.6" height="139"/>
<rect id="Water_7" x="408.5" y="371.2" class="st7" width="19.6" height="297.1"/>
<rect id="Water_2" x="1083.2" y="636.5" class="st7" width="56.8" height="19.6"/>
<rect id="Water_8" x="729.9" y="641.8" class="st7" width="87.2" height="19.6"/>
<circle id="Suction_Pipe_Corner" class="st14" cx="1089" cy="648.4" r="17.4"/>
<circle id="Tank_Empty_Corner" class="st14" cx="823.1" cy="655.3" r="17.4"/>
<g id="Pump">
	<g>

			<image style="overflow:visible;enable-background:new    ;" width="398" height="506" xlink:href="C52FA754.png"  transform="matrix(0.1007 0 0 0.1007 1128.7094 619.187)">
		</image>
	</g>
</g>
<rect id="Manometer_Water_Right_00000080197925184150286820000005080878160067944331_" x="954.5" y="363.9" class="st7" width="4.2" height="94.8"/>
<polygon id="Venturimeter_Water_Right" class="st7" points="964.5,367.3 888,363.5 888,354.2 964.5,351.1 "/>
<rect id="Water_6" x="424.7" y="349.4" class="st7" width="338.9" height="19.6"/>
<circle id="Corner_Top_Left" class="st14" cx="422.3" cy="361.8" r="17.4"/>
<g id="Fringe_4">
	<g>

			<image style="overflow:visible;enable-background:new    ;" width="326" height="505" xlink:href="C52FA755.png"  transform="matrix(8.906778e-02 0 0 8.906778e-02 953.72 336.1717)">
		</image>
	</g>
</g>
<g id="Fringe_3">
	<g>

			<image style="overflow:visible;enable-background:new    ;" width="324" height="505" xlink:href="C52FA756.png"  transform="matrix(8.922845e-02 0 0 8.922845e-02 756.675 336.1311)">
		</image>
	</g>
</g>
<g id="Fringe_2">
	<g>

			<image style="overflow:visible;enable-background:new    ;" width="328" height="505" xlink:href="C52FA757.png"  transform="matrix(8.890700e-02 0 0 8.890700e-02 962.9126 336.2123)">
		</image>
	</g>
</g>
<rect id="Water_5" x="983.4" y="349.4" class="st7" width="156.6" height="19.6"/>
<circle id="Corner_Top_Right" class="st14" cx="1148.8" cy="362.7" r="17.4"/>
<g id="Fringe_1">
	<g>

			<image style="overflow:visible;enable-background:new    ;" width="321" height="505" xlink:href="C52FA758.png"  transform="matrix(8.946922e-02 0 0 8.946922e-02 765.5546 336.0703)">
		</image>
	</g>
</g>
<g id="FLow_Control_Valve">
	<g>
		<g>

				<image style="overflow:visible;enable-background:new    ;" width="506" height="368" xlink:href="C52FA75D.png"  transform="matrix(0.1043 0 0 0.1043 1122.5925 502.5196)">
			</image>
		</g>
	</g>
	<g>
		<g>

				<image style="overflow:visible;enable-background:new    ;" width="180" height="497" xlink:href="C52FA7C5.png"  transform="matrix(3.831539e-02 0 0 3.831539e-02 1174.9056 512.1931)">
			</image>
		</g>
	</g>
	<g>
		<g>

				<image style="overflow:visible;enable-background:new    ;" width="162" height="505" xlink:href="C52FA7C6.png"  transform="matrix(7.338284e-02 0 0 7.338284e-02 1179.8887 503.1853)">
			</image>
		</g>
	</g>
</g>
<g id="Tank_Empty_Control">
	<g>
		<g>

				<image style="overflow:visible;enable-background:new    ;" width="412" height="508" xlink:href="C52FA7C7.png"  transform="matrix(9.887402e-02 0 0 9.887402e-02 692.5448 626.1713)">
			</image>
		</g>
	</g>
	<g>
		<g>

				<image style="overflow:visible;enable-background:new    ;" width="168" height="503" xlink:href="C52FA7CF.png"  transform="matrix(3.819093e-02 0 0 3.819093e-02 709.7048 612.3116)">
			</image>
		</g>
	</g>
	<g>
		<g>

				<image style="overflow:visible;enable-background:new    ;" width="503" height="188" xlink:href="C52FA7C1.png"  transform="matrix(8.546718e-02 0 0 8.546718e-02 691.4179 606.404)">
			</image>
		</g>
	</g>
</g>
<ellipse id="Suction_Pipe_Opening" class="st7" cx="1086.8" cy="708.6" rx="9.8" ry="3"/>
<ellipse id="Tank_Empty_End" class="st7" cx="826.8" cy="719.3" rx="9.8" ry="3"/>
<rect id="Tank_Water_Back" x="380.4" y="608.5" class="st7" width="285.6" height="41.3"/>
<polygon id="Tank_Water_Left" class="st7" points="380.4,650.3 321.6,718.3 321.6,677 380.4,609 "/>
<rect id="Tank_Water_Front" x="321.6" y="676.4" class="st15" width="344.8" height="41.3"/>
<g>
	<g>
		<g>

				<image style="overflow:visible;enable-background:new    ;" width="513" height="238" xlink:href="C52FA7C2.png"  transform="matrix(0.4361 0 0 0.4361 157.847 352.5827)">
			</image>
		</g>
	</g>
	<path class="st16" d="M343.7,442.2H190.3c-10.2,0-18.4-8.2-18.4-18.4v-29.5c0-10.2,8.2-18.4,18.4-18.4h153.4
		c10.2,0,18.4,8.2,18.4,18.4v29.5C362.1,434,353.9,442.2,343.7,442.2z"/>
</g>
<g>
	<g>

			<image style="overflow:visible;enable-background:new    ;" width="513" height="284" xlink:href="C52FA7C3.png"  transform="matrix(0.3177 0 0 0.3177 1206.5643 476.6962)">
		</image>
	</g>
</g>
<path class="st17" d="M1324.7,558.8h-80.6c-12.2,0-22.2-9.9-22.2-22.2v-21.2c0-12.2,9.9-22.2,22.2-22.2h80.6
	c12.2,0,22.2,9.9,22.2,22.2v21.2C1346.9,548.8,1336.9,558.8,1324.7,558.8z"/>
<text transform="matrix(0.945 0 0 1 179.6562 416.2695)" class="st18 st19">00</text>
<text transform="matrix(1.0432 0 0 1 1251.4033 539.3828)" class="st18 st20">0 %</text>
<g>
	<g>

			<image style="overflow:visible;enable-background:new    ;" width="515" height="174" xlink:href="C52FA7C4.png"  transform="matrix(0.5324 0 0 0.5324 731.296 219.4745)">
		</image>
	</g>
</g>
<path class="st17" d="M967.7,303.9H766.9c-12.2,0-22.2-9.9-22.2-22.2v-23.4c0-12.2,9.9-22.2,22.2-22.2h200.8
	c12.2,0,22.2,9.9,22.2,22.2v23.4C989.8,294,979.9,303.9,967.7,303.9z"/>
<text transform="matrix(0.9887 0 0 1 754.7246 283.2407)" class="st18 st20">100 mm Hg</text>
<text transform="matrix(1.0432 0 0 1 1216.9141 458.7256)" class="st21 st22">Flow Rate</text>
<text transform="matrix(1.0397 0 0 1 785.1045 159.0278)" class="st21 st22">Manometer</text>
<text transform="matrix(1.0397 0 0 1 785.1045 197.4277)" class="st21 st22">   Reading</text>
<text transform="matrix(0.945 0 0 1 246.7207 415.918)" class="st18 st19">00</text>
<text transform="matrix(0.945 0 0 1 311.1899 416.7715)" class="st18 st19">00</text>
<text transform="matrix(0.8527 0 0 1 188.6479 434.3955)" class="st18 st23">min</text>
<text transform="matrix(0.8527 0 0 1 257.0015 433.542)" class="st18 st23">sec</text>
<text transform="matrix(0.8527 0 0 1 324.2129 433.542)" class="st18 st23">ms</text>
<text transform="matrix(0.945 0 0 1 232.1089 412.501)" class="st18 st24">:</text>
<text transform="matrix(0.945 0 0 1 295.7305 412.1719)" class="st18 st24">:</text>
<g id="Manometer_Scale">
	<g>
		<g>

				<image style="overflow:visible;enable-background:new    ;" width="100" height="513" xlink:href="C52FA7C0.png"  transform="matrix(0.2887 0 0 0.2887 902.9393 377.8034)">
			</image>
		</g>
	</g>
	<g>
		<line class="st25" x1="904.1" y1="464" x2="926.5" y2="464"/>
		<line class="st25" x1="904.1" y1="470.7" x2="926.5" y2="470.7"/>
		<line class="st25" x1="904.1" y1="477.4" x2="926.5" y2="477.4"/>
		<line class="st25" x1="904.1" y1="484.1" x2="926.5" y2="484.1"/>
		<line class="st25" x1="904.1" y1="490.8" x2="926.5" y2="490.8"/>
		<line class="st25" x1="904.1" y1="497.5" x2="926.5" y2="497.5"/>
		<line class="st25" x1="904.1" y1="504.2" x2="926.5" y2="504.2"/>
		<line class="st25" x1="904.1" y1="510.9" x2="926.5" y2="510.9"/>
		<line class="st25" x1="904.1" y1="517.6" x2="926.5" y2="517.6"/>
		<g>
			<rect x="904.2" y="378.2" class="st25" width="22.3" height="147.4"/>
			<line class="st25" x1="904.1" y1="385.7" x2="926.5" y2="385.7"/>
			<line class="st25" x1="904.1" y1="392" x2="926.5" y2="392"/>
			<line class="st25" x1="904.1" y1="398.2" x2="926.5" y2="398.2"/>
			<line class="st25" x1="904.1" y1="404.5" x2="926.5" y2="404.5"/>
			<line class="st25" x1="904.1" y1="410.7" x2="926.5" y2="410.7"/>
			<line class="st25" x1="904.1" y1="417" x2="926.5" y2="417"/>
			<line class="st25" x1="904.1" y1="423.7" x2="926.5" y2="423.7"/>
			<line class="st25" x1="904.1" y1="430.4" x2="926.5" y2="430.4"/>
			<line class="st25" x1="904.1" y1="437.1" x2="926.5" y2="437.1"/>
			<line class="st25" x1="904.1" y1="443.8" x2="926.5" y2="443.8"/>
			<line class="st25" x1="904.1" y1="450.5" x2="926.5" y2="450.5"/>
			<line class="st25" x1="904.1" y1="457.3" x2="926.5" y2="457.3"/>
			<rect x="910.4" y="379" class="st26" width="9.8" height="144.8"/>
			<text transform="matrix(1.1057 0 0 1 911.5381 387.127)" class="st18 st27">100</text>
			<text transform="matrix(1.1057 0 0 1 911.5371 519.4229)" class="st18 st27">100</text>
			<text transform="matrix(1.144 0 0 1 913.5791 392.9932)" class="st18 st28">90</text>
			<text transform="matrix(1.0581 0 0 1 913.7354 399.1992)" class="st18 st29">80</text>
			<text transform="matrix(1.0581 0 0 1 913.7656 405.6309)" class="st18 st29">70</text>
			<text transform="matrix(1.0581 0 0 1 913.7656 411.7178)" class="st18 st29">60</text>
			<text transform="matrix(1.0581 0 0 1 913.7656 418.373)" class="st18 st29">50</text>
			<text transform="matrix(1.0581 0 0 1 914.0088 425.3896)" class="st18 st29">40</text>
			<text transform="matrix(1.0581 0 0 1 913.7656 431.5928)" class="st18 st29">30</text>
			<text transform="matrix(1.0581 0 0 1 913.7656 438.1875)" class="st18 st29">20</text>
			<text transform="matrix(1.0581 0 0 1 913.7656 444.8975)" class="st18 st29">10</text>
			<text transform="matrix(1.0581 0 0 1 914.9121 451.9258)" class="st18 st29">0</text>
			<text transform="matrix(1.0581 0 0 1 913.7656 458.6719)" class="st18 st29">10</text>
			<text transform="matrix(1.0581 0 0 1 913.9453 465.2354)" class="st18 st29">20</text>
			<text transform="matrix(1.0581 0 0 1 913.7656 485.3525)" class="st18 st29">50</text>
			<text transform="matrix(1.0581 0 0 1 913.5781 492.1719)" class="st18 st29">60</text>
			<text transform="matrix(1.0581 0 0 1 913.5781 498.9893)" class="st18 st29">70</text>
			<text transform="matrix(1.0581 0 0 1 913.5781 505.5879)" class="st18 st29">80</text>
			<text transform="matrix(1.0581 0 0 1 913.5781 512.2939)" class="st18 st29">90</text>
			<text transform="matrix(1.0581 0 0 1 913.7656 478.5498)" class="st18 st29">40</text>
			<text transform="matrix(1.0581 0 0 1 913.7656 471.96)" class="st18 st29">30</text>
		</g>
	</g>
</g>
<g id="Tank_Scale">
	<g>
		<g>

				<image style="overflow:visible;enable-background:new    ;" width="90" height="513" xlink:href="C52FA7DE.png"  transform="matrix(0.4755 0 0 0.4755 207.3978 484.0623)">
			</image>
		</g>
	</g>
	<g>
		<line class="st25" x1="207.9" y1="626.1" x2="243.2" y2="626.1"/>
		<line class="st25" x1="207.9" y1="637.2" x2="243.2" y2="637.2"/>
		<line class="st25" x1="207.9" y1="648.3" x2="243.2" y2="648.3"/>
		<line class="st25" x1="207.9" y1="659.4" x2="243.2" y2="659.4"/>
		<line class="st25" x1="207.9" y1="670.5" x2="243.2" y2="670.5"/>
		<line class="st25" x1="207.9" y1="681.6" x2="243.2" y2="681.6"/>
		<line class="st25" x1="207.9" y1="692.7" x2="243.2" y2="692.7"/>
		<line class="st25" x1="207.9" y1="703.8" x2="243.2" y2="703.8"/>
		<line class="st25" x1="207.9" y1="714.9" x2="243.2" y2="714.9"/>
		<g>
			<rect x="208" y="484.3" class="st25" width="35" height="243.8"/>
			<line class="st25" x1="207.9" y1="496.6" x2="243.2" y2="496.6"/>
			<line class="st25" x1="207.9" y1="507" x2="243.2" y2="507"/>
			<line class="st25" x1="207.9" y1="517.3" x2="243.2" y2="517.3"/>
			<line class="st25" x1="207.9" y1="527.7" x2="243.2" y2="527.7"/>
			<line class="st25" x1="207.9" y1="538" x2="243.2" y2="538"/>
			<line class="st25" x1="207.9" y1="548.4" x2="243.2" y2="548.4"/>
			<line class="st25" x1="207.9" y1="559.5" x2="243.2" y2="559.5"/>
			<line class="st25" x1="207.9" y1="570.6" x2="243.2" y2="570.6"/>
			<line class="st25" x1="207.9" y1="581.7" x2="243.2" y2="581.7"/>
			<line class="st25" x1="207.9" y1="592.8" x2="243.2" y2="592.8"/>
			<line class="st25" x1="207.9" y1="603.9" x2="243.2" y2="603.9"/>
			<line class="st25" x1="207.9" y1="615" x2="243.2" y2="615"/>
			<rect x="217.8" y="485.5" class="st26" width="15.4" height="239.5"/>
			<text transform="matrix(1.0505 0 0 1 219.6274 498.9658)" class="st18 st30">100</text>
			<text transform="matrix(1.0505 0 0 1 218.9854 491.2305)" class="st18 st30">mm</text>
			<text transform="matrix(1.0505 0 0 1 218.6323 717.8535)" class="st18 st30">   0</text>
			<text transform="matrix(1.0869 0 0 1 221.9648 508.7441)" class="st18 st31">95</text>
			<text transform="matrix(1.0053 0 0 1 222.1411 519.0078)" class="st18 st32">90</text>
			<text transform="matrix(1.0053 0 0 1 222.1411 529.5811)" class="st18 st32">85</text>
			<text transform="matrix(1.0053 0 0 1 222.1411 539.7246)" class="st18 st32">80</text>
			<text transform="matrix(1.0053 0 0 1 222.2896 550.8086)" class="st18 st32">75</text>
			<text transform="matrix(1.0053 0 0 1 222.29 562.3457)" class="st18 st32">70</text>
			<text transform="matrix(1.0053 0 0 1 222.6587 572.5361)" class="st18 st32">65</text>
			<text transform="matrix(1.0053 0 0 1 222.6587 583.4473)" class="st18 st32">60</text>
			<text transform="matrix(1.0053 0 0 1 222.6587 594.623)" class="st18 st32">55</text>
			<text transform="matrix(1.0053 0 0 1 222.29 606.25)" class="st18 st32">50</text>
			<text transform="matrix(1.0053 0 0 1 222.1353 617.3398)" class="st18 st32">45</text>
			<text transform="matrix(1.0053 0 0 1 222.4175 628.2002)" class="st18 st32">40</text>
			<text transform="matrix(1.0053 0 0 1 222.1353 661.4844)" class="st18 st32">25</text>
			<text transform="matrix(1.0053 0 0 1 221.8403 672.7666)" class="st18 st32">20</text>
			<text transform="matrix(1.0053 0 0 1 221.8403 684.0459)" class="st18 st32">15</text>
			<text transform="matrix(1.0053 0 0 1 221.8403 694.9629)" class="st18 st32">10</text>
			<text transform="matrix(1.0053 0 0 1 223.9268 706.1309)" class="st18 st32">5</text>
			<text transform="matrix(1.0053 0 0 1 222.1353 650.2295)" class="st18 st32">30</text>
			<text transform="matrix(1.0053 0 0 1 222.1353 639.3262)" class="st18 st32">35</text>
		</g>
	</g>
</g>
<text transform="matrix(0.9985 0 0 1 909.9541 382.2563)" class="st18 st33">mm Hg</text>
<polygon id="Venturimeter_Water_Left" class="st7" points="785.1,350.4 861.6,354.2 861.6,363.5 785.1,366.6 "/>
<ellipse id="Venturimeter_Opening_2" class="st7" cx="785.1" cy="358.5" rx="3.5" ry="8.1"/>
<ellipse id="Venturimeter_Opening_1" class="st7" cx="983.4" cy="359.2" rx="3.5" ry="9.8"/>
<rect id="Venturimeter_Throat" x="861.6" y="354.2" class="st7" width="26.3" height="9.3"/>
<rect id="Manometer_Water_Flow_Path" x="871.6" y="363.5" class="st26" width="4.5" height="2.7"/>
<rect id="Manometer_Water_Right" x="871.6" y="363.5" class="st7" width="4.5" height="95.2"/>
</svg>
