<?xml version="1.0" encoding="utf-8"?>
<!-- Generator: Adobe Illustrator 27.3.1, SVG Export Plug-In . SVG Version: 6.00 Build 0)  -->
<svg version="1.1" id="Layer_1" xmlns="http://www.w3.org/2000/svg" xmlns:xlink="http://www.w3.org/1999/xlink" x="0px" y="0px"
	 viewBox="0 0 1350.4 938.1" style="enable-background:new 0 0 1350.4 938.1;" xml:space="preserve">
<style type="text/css">
	.st0{enable-background:new    ;}
	.st1{fill:#005460;}
	.st2{fill:#005D6B;}
	.st3{fill:#808080;}
	.st4{fill:#8F8F8F;}
	.st5{fill:#E9E9E9;}
	.st6{fill:#0098AE;}
	.st7{fill:#8AE3FF;}
	.st8{fill:#00554F;}
	.st9{fill:#005F58;}
	.st10{opacity:0.9;}
	.st11{fill:#BBC2CC;}
	.st12{opacity:0.88;}
	.st13{fill:#F1FF8D;stroke:#F1FFA1;stroke-width:3;stroke-miterlimit:10;}
	.st14{fill:#8AE3FF;stroke:#000000;stroke-miterlimit:10;}
	.st15{fill:none;stroke:#005F58;stroke-width:3;stroke-miterlimit:10;}
	.st16{fill:#FFFFFF;stroke:#FFFFFF;stroke-width:2;stroke-miterlimit:10;}
	.st17{fill:#FFFFFF;stroke:#000000;stroke-width:2;stroke-miterlimit:10;}
	.st18{font-family:'ArialMT';}
	.st19{font-size:45.7156px;}
	.st20{font-size:45px;}
	.st21{font-family:'TimesNewRomanPS-BoldMT';}
	.st22{font-size:32px;}
	.st23{font-size:19.7019px;}
	.st24{font-size:47.7148px;}
	.st25{fill:none;stroke:#23005F;stroke-width:0.75;stroke-miterlimit:10;}
	.st26{fill:#FFFFFF;}
	.st27{font-size:4.4897px;}
	.st28{font-size:4.0126px;}
	.st29{font-size:4.0123px;}
	.st30{font-size:11.0028px;}
	.st31{font-size:10.3603px;}
	.st32{font-size:3.5335px;}
	.st33{opacity:0.78;fill:none;stroke:#004D40;stroke-miterlimit:10;}
</style>
<g>
	<g>
		<g>
			
				<image style="overflow:visible;enable-background:new    ;" width="1067" height="118" xlink:href="B5BEEBF3.png"  transform="matrix(0.999 0 0 0.999 213.9149 730.7379)">
			</image>
		</g>
	</g>
</g>
<g>
	<g>
		
			<image style="overflow:visible;enable-background:new    ;" width="646" height="271" xlink:href="B5BEEBF1.png"  transform="matrix(0.9981 0 0 0.9981 623.9448 554.3292)">
		</image>
	</g>
</g>
<g>
	<g>
		
			<image style="overflow:visible;enable-background:new    ;" width="88" height="511" xlink:href="B5BEEBFE.png"  transform="matrix(0.4891 0 0 0.4891 250.3424 590.7241)">
		</image>
	</g>
</g>
<g>
	<g>
		
			<image style="overflow:visible;enable-background:new    ;" width="86" height="512" xlink:href="B5BEEBFF.png"  transform="matrix(0.4885 0 0 0.4885 295.9417 538.7689)">
		</image>
	</g>
</g>
<g>
	<g>
		
			<image style="overflow:visible;enable-background:new    ;" width="88" height="512" xlink:href="B5BEEBF2.png"  transform="matrix(0.4881 0 0 0.4881 543.2762 538.8495)">
		</image>
	</g>
</g>
<g>
	<g>
		
			<image style="overflow:visible;enable-background:new    ;" width="88" height="512" xlink:href="B5BEEBF5.png"  transform="matrix(0.4881 0 0 0.4881 498.1923 591.7172)">
		</image>
	</g>
</g>
<g>
	<g>
		<g class="st0">
			<g>
				<polygon class="st1" points="616.3,558.5 616.3,574 273.9,572.8 273.9,557.4 				"/>
			</g>
			<g>
				<polygon class="st2" points="273.9,557.4 273.9,572.8 216.7,640.2 216.7,624.7 				"/>
			</g>
			<g>
				<polygon class="st3" points="559,625.9 559,641.3 216.7,640.2 216.7,624.7 				"/>
			</g>
			<g>
				<polygon class="st4" points="616.3,558.5 616.3,574 559,641.3 559,625.9 				"/>
			</g>
			<g>
				<polygon class="st5" points="273.9,557.4 616.3,558.5 559,625.9 216.7,624.7 				"/>
			</g>
			<g>
				<polygon class="st1" points="559.5,626.8 559.5,642.3 214.6,641.1 214.6,625.6 				"/>
			</g>
			<g>
				<polygon class="st2" points="618.4,557.6 618.4,573 559.5,642.3 559.5,626.8 				"/>
			</g>
			<g>
				<path class="st6" d="M273.4,556.4l344.9,1.2l-58.9,69.2l-344.9-1.2L273.4,556.4z M559,625.9l57.2-67.3l-342.4-1.2l-57.2,67.3
					L559,625.9"/>
			</g>
		</g>
	</g>
</g>
<polygon id="Water_Tank_Base" class="st7" points="558.8,627.2 216.5,625.4 274.1,557.7 616.4,559.4 "/>
<g>
	<g>
		<g class="st0">
			<g>
				<polygon class="st8" points="273.3,371.6 618.3,372.8 618.3,558.2 273.3,557 				"/>
			</g>
			<g>
				<polygon class="st8" points="616.2,373.7 616.2,559.1 273.8,558 273.8,372.5 				"/>
			</g>
			<g>
				<polygon class="st3" points="273.8,372.5 616.2,373.7 616.2,559.1 273.8,558 				"/>
			</g>
			<g>
				<polygon class="st9" points="214.5,440.8 273.3,371.6 273.3,557 214.5,626.2 				"/>
			</g>
			<g>
				<polygon class="st9" points="273.8,372.5 273.8,558 216.6,625.3 216.6,439.9 				"/>
			</g>
			<g>
				<polygon class="st4" points="216.6,439.9 273.8,372.5 273.8,558 216.6,625.3 				"/>
			</g>
			<g>
				<polygon class="st9" points="558.9,441.1 616.2,373.7 616.2,559.1 558.9,626.5 				"/>
			</g>
			<g>
				<polygon class="st4" points="616.2,373.7 616.2,559.1 558.9,626.5 558.9,441.1 				"/>
			</g>
		</g>
	</g>
</g>
<g>
	<g>
		
			<image style="overflow:visible;enable-background:new    ;" width="509" height="153" xlink:href="C70F2020.png"  transform="matrix(0.1965 0 0 0.1965 619.3641 545.981)">
		</image>
	</g>
</g>
<g class="st10">
	<g>
		
			<image style="overflow:visible;enable-background:new    ;" width="512" height="128" xlink:href="C70F202F.png"  transform="matrix(0.6774 0 0 0.6774 921.5997 554.3389)">
		</image>
	</g>
</g>
<g>
	<g>
		
			<image style="overflow:visible;enable-background:new    ;" width="54" height="511" xlink:href="C52FA6DB.png"  transform="matrix(0.5752 0 0 0.5752 1026.2651 267.7154)">
		</image>
	</g>
</g>
<g>
	<g>
		
			<image style="overflow:visible;enable-background:new    ;" width="511" height="87" xlink:href="C52FA6DC.png"  transform="matrix(0.3464 0 0 0.3464 861.7689 253.2542)">
		</image>
	</g>
</g>
<g>
	<g>
		
			<image style="overflow:visible;enable-background:new    ;" width="513" height="43" xlink:href="C52FA6DD.png"  transform="matrix(0.6978 0 0 0.6978 306.7524 253.3168)">
		</image>
	</g>
</g>
<rect id="Mercury_Left" x="762.2" y="368.4" class="st11" width="7.4" height="37.5"/>
<rect id="Mercury_Right" x="845.5" y="368.4" class="st11" width="7.5" height="37"/>
<g id="Mercury_Fixed">
	<g>
		<path class="st11" d="M853,404.5c0.1,1,0,5.6-0.1,7.4c-0.1,2.7-0.6,9.4-4.9,17.1c-6.3,11.1-15,17.5-16.9,18.4
			c-3.2,1.5-11.6,8.3-26.1,6c-14.3-2.3-23.2-10.1-27.5-14.4c-11-10.8-15.1-24-15.1-34.3l7.4,0.3c0,8.5,2.2,18.4,11.2,27.4
			c3.5,3.5,9.4,10.7,21,12.6c11.8,1.9,21.9-3.1,24.4-4.3c1.5-0.7,9.5-6.3,14.6-15.5c3.6-6.4,4-10.5,4.1-12.8c0.1-1.4,0.7-7,0.6-7.9
			L853,404.5L853,404.5z"/>
	</g>
</g>
<g>
	<g>
		
			<image style="overflow:visible;enable-background:new    ;" width="510" height="232" xlink:href="C52FA6DE.png"  transform="matrix(6.307670e-02 0 0 6.307670e-02 751.0347 261.1241)">
		</image>
	</g>
</g>
<g class="st12">
	<g>
		
			<image style="overflow:visible;enable-background:new    ;" width="258" height="511" xlink:href="C52FA6DA.png"  transform="matrix(0.3759 0 0 0.3759 758.7186 266.9395)">
		</image>
	</g>
</g>
<g>
	<g>
		
			<image style="overflow:visible;enable-background:new    ;" width="510" height="154" xlink:href="C52FA743.png"  transform="matrix(0.196 0 0 0.196 655.6635 253.2277)">
		</image>
	</g>
</g>
<g>
	<g>
		
			<image style="overflow:visible;enable-background:new    ;" width="513" height="179" xlink:href="C52FA74B.png"  transform="matrix(0.1677 0 0 0.1677 780.2443 253.3138)">
		</image>
	</g>
</g>
<g>
	<g>
		
			<image style="overflow:visible;enable-background:new    ;" width="209" height="510" xlink:href="C52FA74A.png"  transform="matrix(0.1416 0 0 0.1416 964.6988 550.9073)">
		</image>
	</g>
</g>
<g>
	<g>
		
			<image style="overflow:visible;enable-background:new    ;" width="212" height="510" xlink:href="C52FA74F.png"  transform="matrix(0.1413 0 0 0.1413 704.8898 560.9821)">
		</image>
	</g>
</g>
<g>
	<g>
		
			<image style="overflow:visible;enable-background:new    ;" width="511" height="211" xlink:href="C52FA74C.png"  transform="matrix(0.1411 0 0 0.1411 972.0043 541.0701)">
		</image>
	</g>
</g>
<g id="Motor_Leg_2">
	<g>
		
			<image style="overflow:visible;enable-background:new    ;" width="509" height="501" xlink:href="C52FA74D.png"  transform="matrix(5.544380e-02 0 0 5.544380e-02 1154.9117 585.923)">
		</image>
	</g>
</g>
<g id="Motor_Leg_1">
	<g>
		
			<image style="overflow:visible;enable-background:new    ;" width="502" height="502" xlink:href="C52FA74E.png"  transform="matrix(5.577689e-02 0 0 5.577689e-02 1112.6566 585.8616)">
		</image>
	</g>
</g>
<g id="Motor_Shaft">
	<g>
		
			<image style="overflow:visible;enable-background:new    ;" width="508" height="144" xlink:href="C52FA752.png"  transform="matrix(0.1199 0 0 0.1199 1053.8286 546.3256)">
		</image>
	</g>
</g>
<g id="Motor">
	<g>
		
			<image style="overflow:visible;enable-background:new    ;" width="514" height="386" xlink:href="B5BEEBF0.png"  transform="matrix(0.2457 0 0 0.2457 1084.2955 505.9383)">
		</image>
	</g>
</g>
<rect id="Water_1" x="970" y="561.3" class="st7" width="19.6" height="56.8"/>
<rect id="Water_9" x="709.9" y="572.3" class="st7" width="19.6" height="56.8"/>
<rect id="Water_3" x="1033" y="278.7" class="st7" width="19.6" height="254.5"/>
<rect id="Water_4" x="964.3" y="258.7" class="st7" width="77.5" height="19.6"/>
<rect id="Water_2" x="976.2" y="546.2" class="st7" width="56.8" height="19.6"/>
<rect id="Water_8" x="622.9" y="551.5" class="st7" width="87.2" height="19.6"/>
<circle id="Suction_Pipe_Corner" class="st13" cx="982" cy="558.1" r="17.4"/>
<circle id="Tank_Empty_Corner" class="st13" cx="716.1" cy="565" r="17.4"/>
<g id="Pump">
	<g>
		
			<image style="overflow:visible;enable-background:new    ;" width="398" height="506" xlink:href="C52FA754.png"  transform="matrix(0.1007 0 0 0.1007 1021.7519 528.8466)">
		</image>
	</g>
</g>
<rect id="Manometer_Water_Right_00000080197925184150286820000005080878160067944331_" x="847.5" y="273.6" class="st7" width="4.2" height="94.8"/>
<polygon id="Venturimeter_Water_Right" class="st7" points="857.5,277 781,273.2 781,263.9 857.5,260.8 "/>
<rect id="Water_6" x="317.7" y="259.1" class="st7" width="338.9" height="19.6"/>
<g id="Fringe_4">
	<g>
		
			<image style="overflow:visible;enable-background:new    ;" width="326" height="505" xlink:href="C52FA755.png"  transform="matrix(8.906778e-02 0 0 8.906778e-02 828.7625 245.8313)">
		</image>
	</g>
</g>
<g id="Fringe_3">
	<g>
		
			<image style="overflow:visible;enable-background:new    ;" width="324" height="505" xlink:href="C52FA756.png"  transform="matrix(8.922845e-02 0 0 8.922845e-02 649.7175 245.7907)">
		</image>
	</g>
</g>
<g id="Fringe_2">
	<g>
		
			<image style="overflow:visible;enable-background:new    ;" width="328" height="505" xlink:href="C52FA757.png"  transform="matrix(8.890700e-02 0 0 8.890700e-02 837.9551 245.8719)">
		</image>
	</g>
</g>
<rect id="Water_5" x="858.4" y="259.1" class="st7" width="93.8" height="19.6"/>
<circle id="Corner_Top_Right" class="st13" cx="1041.8" cy="272.4" r="17.4"/>
<g id="Fringe_1">
	<g>
		
			<image style="overflow:visible;enable-background:new    ;" width="321" height="505" xlink:href="C52FA758.png"  transform="matrix(8.946922e-02 0 0 8.946922e-02 658.5972 245.7299)">
		</image>
	</g>
</g>
<ellipse id="Suction_Pipe_Opening" class="st7" cx="979.8" cy="618.3" rx="9.8" ry="3"/>
<ellipse id="Tank_Empty_End" class="st7" cx="719.8" cy="629" rx="9.8" ry="3"/>
<polygon id="Tank_Water_Back" class="st7" points="273.4,448.6 616.2,449.5 616.2,558.6 273.4,558.6 "/>
<g>
	<polygon class="st1" points="618.4,372.6 618.4,558 559.5,627.2 559.5,441.8 	"/>
</g>
<g id="Tank_Empty_Control">
	<g>
		<g>
			
				<image style="overflow:visible;enable-background:new    ;" width="412" height="508" xlink:href="C52FA7C7.png"  transform="matrix(9.887402e-02 0 0 9.887402e-02 585.5873 535.8309)">
			</image>
		</g>
	</g>
	<g>
		<g>
			
				<image style="overflow:visible;enable-background:new    ;" width="168" height="503" xlink:href="C52FA7CF.png"  transform="matrix(3.819093e-02 0 0 3.819093e-02 602.7473 521.9711)">
			</image>
		</g>
	</g>
	<g>
		<g>
			
				<image style="overflow:visible;enable-background:new    ;" width="503" height="188" xlink:href="C52FA7C1.png"  transform="matrix(8.546718e-02 0 0 8.546718e-02 584.4604 516.0635)">
			</image>
		</g>
	</g>
</g>
<g id="Tank_Empty_Control_00000000920067168395717810000001351023711700812424_">
	<g>
		<g>
			
				<image style="overflow:visible;enable-background:new    ;" width="412" height="508" xlink:href="C52FA7C7.png"  transform="matrix(9.887402e-02 0 0 9.887402e-02 937.9794 243.8293)">
			</image>
		</g>
	</g>
	<g>
		<g>
			
				<image style="overflow:visible;enable-background:new    ;" width="168" height="503" xlink:href="C52FA7CF.png"  transform="matrix(3.819093e-02 0 0 3.819093e-02 955.1394 229.9695)">
			</image>
		</g>
	</g>
	<g>
		<g>
			
				<image style="overflow:visible;enable-background:new    ;" width="503" height="188" xlink:href="C52FA7C1.png"  transform="matrix(8.546718e-02 0 0 8.546718e-02 936.8525 224.0619)">
			</image>
		</g>
	</g>
</g>
<polygon id="Tank_Water_Left" class="st7" points="273.5,557.4 215.5,628 215.5,518 273.1,447.4 "/>
<g>
	<g>
		
			<image style="overflow:visible;enable-background:new    ;" width="99" height="512" xlink:href="C70F2021.png"  transform="matrix(0.3085 0 0 0.3085 296.0363 270.2112)">
		</image>
	</g>
</g>
<rect id="Water_7" x="301.5" y="280.9" class="st7" width="19.6" height="297.1"/>
<rect id="Tank_Water_Front" x="215.5" y="518" class="st14" width="344.8" height="110"/>
<circle id="Corner_Top_Left" class="st13" cx="315.3" cy="271.5" r="17.4"/>
<line class="st15" x1="560.1" y1="442.8" x2="215.7" y2="441.8"/>
<g>
	<g>
		<g>
			
				<image style="overflow:visible;enable-background:new    ;" width="513" height="238" xlink:href="C52FA7C2.png"  transform="matrix(0.4361 0 0 0.4361 50.8896 262.2423)">
			</image>
		</g>
	</g>
	<path class="st16" d="M236.7,351.9H83.3c-10.2,0-18.4-8.2-18.4-18.4V304c0-10.2,8.2-18.4,18.4-18.4h153.4
		c10.2,0,18.4,8.2,18.4,18.4v29.5C255.1,343.7,246.9,351.9,236.7,351.9z"/>
</g>
<g>
	<g>
		
			<image style="overflow:visible;enable-background:new    ;" width="513" height="284" xlink:href="C52FA7C3.png"  transform="matrix(0.3177 0 0 0.3177 1099.6069 386.3558)">
		</image>
	</g>
</g>
<path class="st17" d="M1217.7,468.5h-80.6c-12.2,0-22.2-9.9-22.2-22.2v-21.2c0-12.2,9.9-22.2,22.2-22.2h80.6
	c12.2,0,22.2,9.9,22.2,22.2v21.2C1239.9,458.5,1229.9,468.5,1217.7,468.5z"/>
<text transform="matrix(0.945 0 0 1 72.6988 325.9291)" class="st18 st19">00</text>
<text transform="matrix(1.0432 0 0 1 1144.4459 449.0424)" class="st18 st20">0 %</text>
<g>
	<g>
		
			<image style="overflow:visible;enable-background:new    ;" width="515" height="174" xlink:href="C52FA7C4.png"  transform="matrix(0.5324 0 0 0.5324 624.3386 129.1341)">
		</image>
	</g>
</g>
<path class="st17" d="M860.7,213.6H659.9c-12.2,0-22.2-9.9-22.2-22.2V168c0-12.2,9.9-22.2,22.2-22.2h200.8
	c12.2,0,22.2,9.9,22.2,22.2v23.4C882.8,203.7,872.9,213.6,860.7,213.6z"/>
<text transform="matrix(0.9887 0 0 1 647.7672 192.9003)" class="st18 st20">100 mm Hg</text>
<text transform="matrix(1.0432 0 0 1 1109.9567 368.3852)" class="st21 st22">Flow Rate</text>
<text transform="matrix(1.0397 0 0 1 616.2427 109.4452)" class="st21 st22">Manometer Reading</text>
<text transform="matrix(0.945 0 0 1 139.7633 325.5775)" class="st18 st19">00</text>
<text transform="matrix(0.945 0 0 1 204.2325 326.4311)" class="st18 st19">00</text>
<text transform="matrix(0.8527 0 0 1 81.6905 344.0551)" class="st18 st23">min</text>
<text transform="matrix(0.8527 0 0 1 150.044 343.2016)" class="st18 st23">sec</text>
<text transform="matrix(0.8527 0 0 1 217.2554 343.2016)" class="st18 st23">ms</text>
<text transform="matrix(0.945 0 0 1 125.1514 322.1606)" class="st18 st24">:</text>
<text transform="matrix(0.945 0 0 1 188.773 321.8315)" class="st18 st24">:</text>
<g id="Manometer_Scale">
	<g>
		<g>
			
				<image style="overflow:visible;enable-background:new    ;" width="100" height="513" xlink:href="C52FA7C0.png"  transform="matrix(0.2887 0 0 0.2887 795.9818 287.463)">
			</image>
		</g>
	</g>
	<g>
		<line class="st25" x1="797.1" y1="373.7" x2="819.5" y2="373.7"/>
		<line class="st25" x1="797.1" y1="380.4" x2="819.5" y2="380.4"/>
		<line class="st25" x1="797.1" y1="387.1" x2="819.5" y2="387.1"/>
		<line class="st25" x1="797.1" y1="393.8" x2="819.5" y2="393.8"/>
		<line class="st25" x1="797.1" y1="400.5" x2="819.5" y2="400.5"/>
		<line class="st25" x1="797.1" y1="407.2" x2="819.5" y2="407.2"/>
		<line class="st25" x1="797.1" y1="413.9" x2="819.5" y2="413.9"/>
		<line class="st25" x1="797.1" y1="420.6" x2="819.5" y2="420.6"/>
		<line class="st25" x1="797.1" y1="427.3" x2="819.5" y2="427.3"/>
		<g>
			<rect x="797.2" y="287.9" class="st25" width="22.3" height="147.4"/>
			<line class="st25" x1="797.1" y1="295.4" x2="819.5" y2="295.4"/>
			<line class="st25" x1="797.1" y1="301.7" x2="819.5" y2="301.7"/>
			<line class="st25" x1="797.1" y1="307.9" x2="819.5" y2="307.9"/>
			<line class="st25" x1="797.1" y1="314.2" x2="819.5" y2="314.2"/>
			<line class="st25" x1="797.1" y1="320.4" x2="819.5" y2="320.4"/>
			<line class="st25" x1="797.1" y1="326.7" x2="819.5" y2="326.7"/>
			<line class="st25" x1="797.1" y1="333.4" x2="819.5" y2="333.4"/>
			<line class="st25" x1="797.1" y1="340.1" x2="819.5" y2="340.1"/>
			<line class="st25" x1="797.1" y1="346.8" x2="819.5" y2="346.8"/>
			<line class="st25" x1="797.1" y1="353.5" x2="819.5" y2="353.5"/>
			<line class="st25" x1="797.1" y1="360.2" x2="819.5" y2="360.2"/>
			<line class="st25" x1="797.1" y1="367" x2="819.5" y2="367"/>
			<rect x="803.4" y="288.7" class="st26" width="9.8" height="144.8"/>
			<text transform="matrix(1.1057 0 0 1 804.5806 296.7865)" class="st18 st27">100</text>
			<text transform="matrix(1.1057 0 0 1 804.5797 429.0824)" class="st18 st27">100</text>
			<text transform="matrix(1.144 0 0 1 806.6216 302.6527)" class="st18 st28">90</text>
			<text transform="matrix(1.0581 0 0 1 806.7779 308.8588)" class="st18 st29">80</text>
			<text transform="matrix(1.0581 0 0 1 806.8082 315.2904)" class="st18 st29">70</text>
			<text transform="matrix(1.0581 0 0 1 806.8082 321.3773)" class="st18 st29">60</text>
			<text transform="matrix(1.0581 0 0 1 806.8082 328.0326)" class="st18 st29">50</text>
			<text transform="matrix(1.0581 0 0 1 807.0513 335.0492)" class="st18 st29">40</text>
			<text transform="matrix(1.0581 0 0 1 806.8082 341.2523)" class="st18 st29">30</text>
			<text transform="matrix(1.0581 0 0 1 806.8082 347.8471)" class="st18 st29">20</text>
			<text transform="matrix(1.0581 0 0 1 806.8082 354.557)" class="st18 st29">10</text>
			<text transform="matrix(1.0581 0 0 1 807.9547 361.5854)" class="st18 st29">0</text>
			<text transform="matrix(1.0581 0 0 1 806.8082 368.3315)" class="st18 st29">10</text>
			<text transform="matrix(1.0581 0 0 1 806.9879 374.8949)" class="st18 st29">20</text>
			<text transform="matrix(1.0581 0 0 1 806.8082 395.0121)" class="st18 st29">50</text>
			<text transform="matrix(1.0581 0 0 1 806.6207 401.8315)" class="st18 st29">60</text>
			<text transform="matrix(1.0581 0 0 1 806.6207 408.6488)" class="st18 st29">70</text>
			<text transform="matrix(1.0581 0 0 1 806.6207 415.2475)" class="st18 st29">80</text>
			<text transform="matrix(1.0581 0 0 1 806.6207 421.9535)" class="st18 st29">90</text>
			<text transform="matrix(1.0581 0 0 1 806.8082 388.2094)" class="st18 st29">40</text>
			<text transform="matrix(1.0581 0 0 1 806.8082 381.6195)" class="st18 st29">30</text>
		</g>
	</g>
</g>
<g>
	<g>
		<g>
			
				<image style="overflow:visible;enable-background:new    ;" width="90" height="513" xlink:href="C52FA7DE.png"  transform="matrix(0.9477 0 0 0.2422 100.4404 505.541)">
			</image>
		</g>
	</g>
	<line class="st25" x1="101.4" y1="586.6" x2="171.7" y2="586.6"/>
	<line class="st25" x1="101.4" y1="596.9" x2="171.7" y2="596.9"/>
	<line class="st25" x1="101.4" y1="608.2" x2="171.7" y2="608.2"/>
	<line class="st25" x1="101.4" y1="619.5" x2="171.7" y2="619.5"/>
	<rect x="101.6" y="505.7" class="st25" width="69.8" height="124.2"/>
	<line class="st25" x1="101.4" y1="523.3" x2="171.7" y2="523.3"/>
	<path class="st25" d="M172,522.5"/>
	<path class="st25" d="M101.7,522.5"/>
	<line class="st25" x1="101.4" y1="533.8" x2="171.7" y2="533.8"/>
	<path class="st25" d="M171.7,533.1"/>
	<path class="st25" d="M101.4,533.1"/>
	<line class="st25" x1="101.4" y1="544.4" x2="171.7" y2="544.4"/>
	<path class="st25" d="M171.7,544"/>
	<path class="st25" d="M101.4,544"/>
	<line class="st25" x1="101.4" y1="555.7" x2="171.7" y2="555.7"/>
	<path class="st25" d="M171.7,555.3"/>
	<path class="st25" d="M101.4,555.3"/>
	<line class="st25" x1="101.4" y1="566" x2="171.7" y2="566"/>
	<line class="st25" x1="101.4" y1="576.3" x2="171.7" y2="576.3"/>
	<rect x="121.1" y="506.3" class="st26" width="30.7" height="122"/>
	<text transform="matrix(1.1284 0 0 1 129.5636 514.3881)" class="st18 st30">cm</text>
	<text transform="matrix(1.2838 0 0 1 133.4215 623.5345)" class="st18 st31">1</text>
	<text transform="matrix(1.2838 0 0 1 133.4215 612.0453)" class="st18 st31">2</text>
	<text transform="matrix(1.2838 0 0 1 133.4215 600.7592)" class="st18 st31">3</text>
	<text transform="matrix(1.2838 0 0 1 133.4215 589.6527)" class="st18 st31">4</text>
	<text transform="matrix(1.2838 0 0 1 133.4215 579.8353)" class="st18 st31">5</text>
	<text transform="matrix(1.2838 0 0 1 133.4215 569.5648)" class="st18 st31">6</text>
	<text transform="matrix(1.2838 0 0 1 133.4215 559.7142)" class="st18 st31">7</text>
	<text transform="matrix(1.2838 0 0 1 133.4215 548.4799)" class="st18 st31">8</text>
	<text transform="matrix(1.2838 0 0 1 133.4215 537.6838)" class="st18 st31">9</text>
	<text transform="matrix(1.2838 0 0 1 129.4215 526.9667)" class="st18 st31">10</text>
</g>
<text transform="matrix(0.9985 0 0 1 802.9966 291.9159)" class="st18 st32">mm Hg</text>
<polygon id="Venturimeter_Water_Left" class="st7" points="678.1,260.1 754.6,263.9 754.6,273.2 678.1,276.3 "/>
<ellipse id="Venturimeter_Opening_2" class="st7" cx="678.1" cy="268.2" rx="3.5" ry="8.1"/>
<ellipse id="Venturimeter_Opening_1" class="st7" cx="858.4" cy="268.9" rx="3.5" ry="9.8"/>
<rect id="Venturimeter_Throat" x="754.6" y="263.9" class="st7" width="26.3" height="9.3"/>
<rect id="Manometer_Water_Flow_Path" x="764.6" y="273.2" class="st26" width="4.5" height="2.7"/>
<rect id="Manometer_Water_Right" x="764.6" y="273.2" class="st7" width="4.5" height="95.2"/>
<path class="st33" d="M1123.8,506.2c-3.2,8.6-8.3,24.9-8.3,46.5c0,21.7,5.1,38.2,8.3,46.8"/>
<path class="st33" d="M1169.8,506.2c-3.2,8.6-8.1,24.9-8.2,46.5c0,21.7,5,38.2,8.2,46.8"/>
<line class="st33" x1="1120.4" y1="516.4" x2="1166.6" y2="516.4"/>
<line class="st33" x1="1119.2" y1="521.1" x2="1165.4" y2="521.1"/>
<line class="st33" x1="1118.4" y1="525.8" x2="1164.6" y2="525.8"/>
<line class="st33" x1="1117.5" y1="530.8" x2="1163.8" y2="530.8"/>
<line class="st33" x1="1116.6" y1="536" x2="1162.9" y2="536"/>
<line class="st33" x1="1116.1" y1="541.6" x2="1162.3" y2="541.6"/>
<line class="st33" x1="1115.4" y1="547.2" x2="1161.7" y2="547.2"/>
<line class="st33" x1="1115.1" y1="552.8" x2="1161.3" y2="552.8"/>
<line class="st33" x1="1115.4" y1="558.2" x2="1161.7" y2="558.2"/>
<line class="st33" x1="1115.4" y1="563.3" x2="1161.7" y2="563.3"/>
<line class="st33" x1="1116.6" y1="569.2" x2="1162.9" y2="569.2"/>
<line class="st33" x1="1117.2" y1="574.8" x2="1163.5" y2="574.8"/>
<line class="st33" x1="1118.3" y1="579.9" x2="1164.5" y2="579.9"/>
<line class="st33" x1="1119.3" y1="584.7" x2="1165.5" y2="584.7"/>
<line class="st33" x1="1120.6" y1="589.7" x2="1166.8" y2="589.7"/>
<line class="st33" x1="1121.8" y1="594.1" x2="1168" y2="594.1"/>
<line class="st33" x1="1123.6" y1="599" x2="1169.8" y2="599"/>
<line class="st33" x1="1122.2" y1="511.2" x2="1168.4" y2="511.2"/>
<line class="st33" x1="1123.8" y1="506.4" x2="1170" y2="506.4"/>
</svg>
