<?xml version="1.0" encoding="utf-8"?>
<!-- Generator: Adobe Illustrator 27.3.1, SVG Export Plug-In . SVG Version: 6.00 Build 0)  -->
<svg version="1.1" id="Layer_1" xmlns="http://www.w3.org/2000/svg" xmlns:xlink="http://www.w3.org/1999/xlink" x="0px" y="0px"
	 viewBox="0 0 1295 890.8" style="enable-background:new 0 0 1295 890.8;" xml:space="preserve">
<style type="text/css">
	.st0{fill:none;stroke:#000000;stroke-width:0.5;stroke-miterlimit:10;}
	.st1{enable-background:new    ;}
	.st2{fill:#005460;}
	.st3{fill:#005D6B;}
	.st4{fill:#808080;}
	.st5{fill:#8F8F8F;}
	.st6{fill:#E9E9E9;}
	.st7{fill:#0098AE;}
	.st8{fill:#8AE3FF;}
	.st9{fill:#00554F;}
	.st10{fill:#005F58;}
	.st11{opacity:0.9;}
	.st12{fill:#F1FF8D;stroke:#F1FFA1;stroke-width:3;stroke-miterlimit:10;}
	.st13{fill:#8AE3FF;stroke:#000000;stroke-miterlimit:10;}
	.st14{fill:none;stroke:#005F58;stroke-width:3;stroke-miterlimit:10;}
	.st15{fill:#FFFFFF;stroke:#FFFFFF;stroke-width:2;stroke-miterlimit:10;}
	.st16{fill:#FFFFFF;stroke:#000000;stroke-width:2;stroke-miterlimit:10;}
	.st17{font-family:'ArialMT';}
	.st18{font-size:45.7156px;}
	.st19{font-size:45px;}
	.st20{font-family:'TimesNewRomanPS-BoldMT';}
	.st21{font-size:32px;}
	.st22{letter-spacing:25.9;}
	.st23{font-size:21px;}
	.st24{font-size:16.2949px;}
	.st25{font-size:13.6262px;}
	.st26{font-family:'TimesNewRomanPSMT';}
	.st27{font-size:9px;}
	.st28{font-size:19.7019px;}
	.st29{font-size:47.7148px;}
	.st30{fill:none;stroke:#23005F;stroke-width:0.75;stroke-miterlimit:10;}
	.st31{fill:#FFFFFF;}
	.st32{font-size:7.2404px;}
	.st33{font-size:23.1031px;}
	.st34{fill:#009FB4;}
	.st35{fill:#D1D3D4;}
	.st36{fill:#1A2D58;}
	.st37{fill:#808285;}
	.st38{fill:#CBCDCF;}
	.st39{fill:#081835;}
	.st40{fill:#E3C6A7;}
</style>
<g>
	<g>
		<g>
			
				<image style="overflow:visible;enable-background:new    ;" width="1067" height="118" xlink:href="B5BEEBF3.png"  transform="matrix(0.999 0 0 0.999 185.5744 723.3588)">
			</image>
		</g>
	</g>
</g>
<g>
	<g>
		
			<image style="overflow:visible;" width="512" height="304" xlink:href="89663A70.png"  transform="matrix(0.7207 0 0 0.7207 454.2841 32.9901)">
		</image>
	</g>
</g>
<g>
	<g>
		<line class="st0" x1="462.8" y1="152.4" x2="454.4" y2="152.4"/>
		<line class="st0" x1="462.8" y1="154.1" x2="454.4" y2="154.1"/>
		<line class="st0" x1="462.8" y1="155.7" x2="454.4" y2="155.7"/>
		<line class="st0" x1="462.8" y1="157.4" x2="454.4" y2="157.4"/>
		<line class="st0" x1="462.8" y1="159" x2="454.4" y2="159"/>
		<line class="st0" x1="462.8" y1="160.7" x2="454.4" y2="160.7"/>
		<line class="st0" x1="462.8" y1="162.3" x2="454.4" y2="162.3"/>
		<line class="st0" x1="462.8" y1="164" x2="454.4" y2="164"/>
		<line class="st0" x1="462.8" y1="165.7" x2="454.4" y2="165.7"/>
		<line class="st0" x1="462.8" y1="167.3" x2="454.4" y2="167.3"/>
		<line class="st0" x1="462.8" y1="169" x2="454.4" y2="169"/>
		<line class="st0" x1="462.8" y1="170.6" x2="454.4" y2="170.6"/>
		<line class="st0" x1="462.8" y1="172.3" x2="454.4" y2="172.3"/>
		<line class="st0" x1="462.8" y1="173.9" x2="454.4" y2="173.9"/>
		<line class="st0" x1="462.8" y1="175.6" x2="454.4" y2="175.6"/>
		<line class="st0" x1="462.8" y1="177.3" x2="454.4" y2="177.3"/>
		<line class="st0" x1="462.8" y1="178.9" x2="454.4" y2="178.9"/>
		<line class="st0" x1="462.8" y1="180.6" x2="454.4" y2="180.6"/>
		<line class="st0" x1="462.8" y1="182.2" x2="454.4" y2="182.2"/>
		<line class="st0" x1="462.8" y1="183.9" x2="454.4" y2="183.9"/>
		<line class="st0" x1="462.8" y1="185.5" x2="454.4" y2="185.5"/>
		<line class="st0" x1="462.8" y1="187.2" x2="454.4" y2="187.2"/>
		<line class="st0" x1="462.8" y1="188.9" x2="454.4" y2="188.9"/>
		<line class="st0" x1="462.8" y1="190.5" x2="454.4" y2="190.5"/>
		<line class="st0" x1="462.8" y1="192.2" x2="454.4" y2="192.2"/>
		<line class="st0" x1="462.8" y1="193.8" x2="454.4" y2="193.8"/>
		<line class="st0" x1="462.8" y1="195.5" x2="454.4" y2="195.5"/>
		<line class="st0" x1="462.8" y1="197.1" x2="454.4" y2="197.1"/>
		<line class="st0" x1="462.8" y1="198.8" x2="454.4" y2="198.8"/>
		<line class="st0" x1="462.8" y1="200.5" x2="454.4" y2="200.5"/>
		<line class="st0" x1="462.8" y1="202.1" x2="454.4" y2="202.1"/>
		<line class="st0" x1="462.8" y1="203.8" x2="454.4" y2="203.8"/>
		<line class="st0" x1="462.8" y1="205.4" x2="454.4" y2="205.4"/>
		<line class="st0" x1="462.8" y1="207.1" x2="454.4" y2="207.1"/>
		<line class="st0" x1="462.8" y1="208.7" x2="454.4" y2="208.7"/>
		<line class="st0" x1="462.8" y1="210.4" x2="454.4" y2="210.4"/>
		<line class="st0" x1="462.8" y1="212" x2="454.4" y2="212"/>
		<line class="st0" x1="462.8" y1="213.7" x2="454.4" y2="213.7"/>
		<line class="st0" x1="462.8" y1="215.4" x2="454.4" y2="215.4"/>
		<line class="st0" x1="462.8" y1="217" x2="454.4" y2="217"/>
		<line class="st0" x1="462.8" y1="218.7" x2="454.4" y2="218.7"/>
		<line class="st0" x1="462.8" y1="220.3" x2="454.4" y2="220.3"/>
		<line class="st0" x1="462.8" y1="222" x2="454.4" y2="222"/>
		<line class="st0" x1="462.8" y1="223.7" x2="454.4" y2="223.7"/>
		<line class="st0" x1="462.8" y1="225.3" x2="454.4" y2="225.3"/>
		<line class="st0" x1="462.8" y1="227" x2="454.4" y2="227"/>
		<line class="st0" x1="462.8" y1="228.6" x2="454.4" y2="228.6"/>
		<line class="st0" x1="462.8" y1="230.3" x2="454.4" y2="230.3"/>
		<line class="st0" x1="462.8" y1="231.9" x2="454.4" y2="231.9"/>
		<line class="st0" x1="462.8" y1="233.6" x2="454.4" y2="233.6"/>
		<line class="st0" x1="462.8" y1="235.3" x2="454.4" y2="235.3"/>
		<line class="st0" x1="462.8" y1="236.9" x2="454.4" y2="236.9"/>
		<line class="st0" x1="462.8" y1="238.6" x2="454.4" y2="238.6"/>
	</g>
	<line class="st0" x1="454.4" y1="146.9" x2="454.4" y2="238.6"/>
	<line class="st0" x1="469.1" y1="230.3" x2="454" y2="230.3"/>
	<line class="st0" x1="469.1" y1="222" x2="454" y2="222"/>
	<line class="st0" x1="469.1" y1="213.7" x2="454" y2="213.7"/>
	<line class="st0" x1="469.1" y1="205.5" x2="454" y2="205.4"/>
	<line class="st0" x1="469.1" y1="197.2" x2="454" y2="197.1"/>
	<line class="st0" x1="469.1" y1="188.9" x2="454" y2="188.8"/>
	<line class="st0" x1="469.1" y1="180.6" x2="454" y2="180.5"/>
	<line class="st0" x1="469.1" y1="172.3" x2="454" y2="172.2"/>
	<line class="st0" x1="469.1" y1="164" x2="454" y2="164"/>
	<line class="st0" x1="469.1" y1="155.7" x2="454" y2="155.7"/>
	<line class="st0" x1="469.1" y1="147" x2="454" y2="146.9"/>
	<line class="st0" x1="462.8" y1="150.6" x2="454.7" y2="150.6"/>
	<line class="st0" x1="462.8" y1="149" x2="454.7" y2="149"/>
</g>
<g>
	<g>
		<line class="st0" x1="810.4" y1="150.5" x2="818.8" y2="150.5"/>
		<line class="st0" x1="810.4" y1="152.2" x2="818.8" y2="152.2"/>
		<line class="st0" x1="810.4" y1="153.9" x2="818.8" y2="153.9"/>
		<line class="st0" x1="810.4" y1="155.6" x2="818.8" y2="155.6"/>
		<line class="st0" x1="810.4" y1="157.3" x2="818.8" y2="157.3"/>
		<line class="st0" x1="810.4" y1="159" x2="818.8" y2="159"/>
		<line class="st0" x1="810.4" y1="160.7" x2="818.8" y2="160.7"/>
		<line class="st0" x1="810.4" y1="162.4" x2="818.8" y2="162.4"/>
		<line class="st0" x1="810.4" y1="164" x2="818.8" y2="164"/>
		<line class="st0" x1="810.4" y1="165.7" x2="818.8" y2="165.7"/>
		<line class="st0" x1="810.4" y1="167.4" x2="818.8" y2="167.4"/>
		<line class="st0" x1="810.4" y1="169.1" x2="818.8" y2="169.1"/>
		<line class="st0" x1="810.4" y1="170.8" x2="818.9" y2="170.8"/>
		<line class="st0" x1="810.4" y1="172.5" x2="818.9" y2="172.5"/>
		<line class="st0" x1="810.5" y1="174.2" x2="818.9" y2="174.2"/>
		<line class="st0" x1="810.5" y1="175.9" x2="818.9" y2="175.9"/>
		<line class="st0" x1="810.5" y1="177.6" x2="818.9" y2="177.6"/>
		<line class="st0" x1="810.5" y1="179.3" x2="818.9" y2="179.3"/>
		<line class="st0" x1="810.5" y1="181" x2="818.9" y2="181"/>
		<line class="st0" x1="810.5" y1="182.6" x2="818.9" y2="182.6"/>
		<line class="st0" x1="810.5" y1="184.3" x2="818.9" y2="184.3"/>
		<line class="st0" x1="810.5" y1="186" x2="818.9" y2="186"/>
		<line class="st0" x1="810.5" y1="187.7" x2="818.9" y2="187.7"/>
		<line class="st0" x1="810.5" y1="189.4" x2="818.9" y2="189.4"/>
		<line class="st0" x1="810.5" y1="191.1" x2="818.9" y2="191.1"/>
		<line class="st0" x1="810.5" y1="192.8" x2="818.9" y2="192.8"/>
		<line class="st0" x1="810.5" y1="194.5" x2="818.9" y2="194.5"/>
		<line class="st0" x1="810.5" y1="196.2" x2="818.9" y2="196.2"/>
		<line class="st0" x1="810.5" y1="197.9" x2="818.9" y2="197.9"/>
		<line class="st0" x1="810.5" y1="199.6" x2="818.9" y2="199.6"/>
		<line class="st0" x1="810.5" y1="201.2" x2="818.9" y2="201.2"/>
		<line class="st0" x1="810.5" y1="202.9" x2="818.9" y2="202.9"/>
		<line class="st0" x1="810.5" y1="204.6" x2="818.9" y2="204.6"/>
		<line class="st0" x1="810.5" y1="206.3" x2="818.9" y2="206.3"/>
		<line class="st0" x1="810.5" y1="208" x2="818.9" y2="208"/>
		<line class="st0" x1="810.5" y1="209.7" x2="818.9" y2="209.7"/>
		<line class="st0" x1="810.5" y1="211.4" x2="818.9" y2="211.4"/>
		<line class="st0" x1="810.5" y1="213.1" x2="818.9" y2="213.1"/>
		<line class="st0" x1="810.5" y1="214.8" x2="818.9" y2="214.8"/>
		<line class="st0" x1="810.5" y1="216.5" x2="818.9" y2="216.5"/>
		<line class="st0" x1="810.5" y1="218.2" x2="818.9" y2="218.2"/>
		<line class="st0" x1="810.5" y1="219.8" x2="818.9" y2="219.8"/>
		<line class="st0" x1="810.5" y1="221.5" x2="818.9" y2="221.5"/>
		<line class="st0" x1="810.5" y1="223.2" x2="818.9" y2="223.2"/>
		<line class="st0" x1="810.5" y1="224.9" x2="818.9" y2="224.9"/>
		<line class="st0" x1="810.5" y1="226.6" x2="818.9" y2="226.6"/>
		<line class="st0" x1="810.5" y1="228.3" x2="818.9" y2="228.3"/>
		<line class="st0" x1="810.5" y1="230" x2="818.9" y2="230"/>
		<line class="st0" x1="810.5" y1="231.7" x2="818.9" y2="231.7"/>
		<line class="st0" x1="810.5" y1="233.4" x2="818.9" y2="233.4"/>
		<line class="st0" x1="810.5" y1="235.1" x2="818.9" y2="235.1"/>
		<line class="st0" x1="810.5" y1="236.8" x2="818.9" y2="236.8"/>
		<line class="st0" x1="810.5" y1="238.5" x2="818.9" y2="238.5"/>
	</g>
	<line class="st0" x1="818.9" y1="144.9" x2="818.9" y2="238.5"/>
	<line class="st0" x1="804.2" y1="230" x2="819.2" y2="230"/>
	<line class="st0" x1="804.2" y1="221.5" x2="819.2" y2="221.5"/>
	<line class="st0" x1="804.2" y1="213.1" x2="819.2" y2="213"/>
	<line class="st0" x1="804.2" y1="204.7" x2="819.2" y2="204.6"/>
	<line class="st0" x1="804.2" y1="196.2" x2="819.2" y2="196.2"/>
	<line class="st0" x1="804.2" y1="187.7" x2="819.2" y2="187.7"/>
	<line class="st0" x1="804.2" y1="179.3" x2="819.2" y2="179.2"/>
	<line class="st0" x1="804.2" y1="170.8" x2="819.2" y2="170.7"/>
	<line class="st0" x1="804.2" y1="162.4" x2="819.2" y2="162.3"/>
	<line class="st0" x1="804.2" y1="153.9" x2="819.2" y2="153.9"/>
	<line class="st0" x1="804.2" y1="145" x2="819.2" y2="144.9"/>
	<line class="st0" x1="810.4" y1="148.7" x2="818.6" y2="148.7"/>
	<line class="st0" x1="810.4" y1="147.1" x2="818.6" y2="147.1"/>
</g>
<g>
	<g>
		
			<image style="overflow:visible;enable-background:new    ;" width="646" height="271" xlink:href="B5BEEBF1.png"  transform="matrix(0.9981 0 0 0.9981 595.6044 546.95)">
		</image>
	</g>
</g>
<g>
	<g>
		
			<image style="overflow:visible;enable-background:new    ;" width="88" height="511" xlink:href="B5BEEBFE.png"  transform="matrix(0.4891 0 0 0.4891 222.0019 583.345)">
		</image>
	</g>
</g>
<g>
	<g>
		
			<image style="overflow:visible;enable-background:new    ;" width="86" height="512" xlink:href="B5BEEBFF.png"  transform="matrix(0.4885 0 0 0.4885 267.6013 531.3897)">
		</image>
	</g>
</g>
<g>
	<g>
		
			<image style="overflow:visible;enable-background:new    ;" width="88" height="512" xlink:href="B5BEEBF2.png"  transform="matrix(0.4881 0 0 0.4881 514.9359 531.4704)">
		</image>
	</g>
</g>
<g>
	<g>
		
			<image style="overflow:visible;enable-background:new    ;" width="88" height="512" xlink:href="B5BEEBF5.png"  transform="matrix(0.4881 0 0 0.4881 469.8518 584.338)">
		</image>
	</g>
</g>
<g>
	<g>
		<g class="st1">
			<g>
				<polygon class="st2" points="588,551.1 588,566.6 245.6,565.4 245.6,550 				"/>
			</g>
			<g>
				<polygon class="st3" points="245.6,550 245.6,565.4 188.4,632.8 188.4,617.3 				"/>
			</g>
			<g>
				<polygon class="st4" points="530.7,618.5 530.7,633.9 188.4,632.8 188.4,617.3 				"/>
			</g>
			<g>
				<polygon class="st5" points="588,551.1 588,566.6 530.7,633.9 530.7,618.5 				"/>
			</g>
			<g>
				<polygon class="st6" points="245.6,550 588,551.1 530.7,618.5 188.4,617.3 				"/>
			</g>
			<g>
				<polygon class="st2" points="531.2,619.4 531.2,634.9 186.3,633.7 186.3,618.2 				"/>
			</g>
			<g>
				<polygon class="st3" points="590.1,550.2 590.1,565.6 531.2,634.9 531.2,619.4 				"/>
			</g>
			<g>
				<path class="st7" d="M245.1,549l344.9,1.2l-58.9,69.2l-344.9-1.2L245.1,549z M530.7,618.5l57.2-67.3L245.5,550l-57.2,67.3
					L530.7,618.5"/>
			</g>
		</g>
	</g>
</g>
<polygon id="Water_Tank_Base" class="st8" points="530.5,619.8 188.2,618 245.8,550.3 588.1,552 "/>
<g>
	<g>
		<g class="st1">
			<g>
				<polygon class="st9" points="245,364.2 590,365.4 590,550.8 245,549.6 				"/>
			</g>
			<g>
				<polygon class="st9" points="587.9,366.3 587.9,551.7 245.5,550.6 245.5,365.1 				"/>
			</g>
			<g>
				<polygon class="st4" points="245.5,365.1 587.9,366.3 587.9,551.7 245.5,550.6 				"/>
			</g>
			<g>
				<polygon class="st10" points="186.2,433.4 245,364.2 245,549.6 186.2,618.8 				"/>
			</g>
			<g>
				<polygon class="st10" points="245.5,365.1 245.5,550.6 188.3,617.9 188.3,432.5 				"/>
			</g>
			<g>
				<polygon class="st5" points="188.3,432.5 245.5,365.1 245.5,550.6 188.3,617.9 				"/>
			</g>
			<g>
				<polygon class="st10" points="530.6,433.7 587.9,366.3 587.9,551.7 530.6,619.1 				"/>
			</g>
			<g>
				<polygon class="st5" points="587.9,366.3 587.9,551.7 530.6,619.1 530.6,433.7 				"/>
			</g>
		</g>
	</g>
</g>
<g>
	<g>
		
			<image style="overflow:visible;enable-background:new    ;" width="509" height="153" xlink:href="C70F2020.png"  transform="matrix(0.1965 0 0 0.1965 591.0237 538.6018)">
		</image>
	</g>
</g>
<g class="st11">
	<g>
		
			<image style="overflow:visible;enable-background:new    ;" width="512" height="128" xlink:href="C70F202F.png"  transform="matrix(0.6774 0 0 0.6774 893.2593 546.9597)">
		</image>
	</g>
</g>
<g>
	<g>
		
			<image style="overflow:visible;enable-background:new    ;" width="54" height="511" xlink:href="C52FA6DB.png"  transform="matrix(0.5752 0 0 0.3689 997.9247 260.3361)">
		</image>
	</g>
</g>
<g>
	<g>
		
			<image style="overflow:visible;enable-background:new    ;" width="511" height="87" xlink:href="C52FA6DC.png"  transform="matrix(0.3464 0 0 0.3464 833.4285 245.875)">
		</image>
	</g>
</g>
<g>
	<g>
		
			<image style="overflow:visible;enable-background:new    ;" width="513" height="43" xlink:href="C52FA6DD.png"  transform="matrix(0.3517 0 0 0.6978 278.412 245.9375)">
		</image>
	</g>
</g>
<g>
	<g>
		
			<image style="overflow:visible;enable-background:new    ;" width="209" height="510" xlink:href="C52FA74A.png"  transform="matrix(0.1416 0 0 0.1078 998.6578 564.6237)">
		</image>
	</g>
</g>
<g>
	<g>
		
			<image style="overflow:visible;enable-background:new    ;" width="212" height="510" xlink:href="C52FA74F.png"  transform="matrix(0.1413 0 0 0.1413 676.5494 553.6029)">
		</image>
	</g>
</g>
<rect id="Water_1" x="1004" y="562.9" class="st8" width="19.6" height="51.7"/>
<rect id="Water_9" x="681.6" y="564.9" class="st8" width="19.6" height="56.8"/>
<rect id="Water_3" x="1004.7" y="271.3" class="st8" width="19.6" height="175.2"/>
<g>
	<g>
		<g>
			
				<image style="overflow:visible;" width="122" height="512" xlink:href="DBC67290.png"  transform="matrix(0.1973 0 0 0.1973 483.2608 145.1639)">
			</image>
		</g>
	</g>
	<g>
		<g>
			
				<image style="overflow:visible;" width="122" height="512" xlink:href="DBC67291.png"  transform="matrix(0.1973 0 0 0.1973 529.6371 146.1639)">
			</image>
		</g>
	</g>
	<g>
		<g>
			
				<image style="overflow:visible;" width="122" height="512" xlink:href="DBC67292.png"  transform="matrix(0.1973 0 0 0.1973 724.8497 145.1639)">
			</image>
		</g>
	</g>
	<g>
		<g>
			
				<image style="overflow:visible;" width="122" height="512" xlink:href="DBC67293.png"  transform="matrix(0.1973 0 0 0.1973 580.8184 147.1639)">
			</image>
		</g>
	</g>
	<g>
		<g>
			
				<image style="overflow:visible;" width="122" height="512" xlink:href="DBC67299.png"  transform="matrix(0.1973 0 0 0.1973 675.4988 147.1639)">
			</image>
		</g>
	</g>
	<g>
		<g>
			
				<image style="overflow:visible;" width="122" height="512" xlink:href="DBC672B4.png"  transform="matrix(0.1973 0 0 0.1973 771.8993 144.1639)">
			</image>
		</g>
	</g>
	<g>
		<g>
			
				<image style="overflow:visible;" width="122" height="512" xlink:href="DBC672B5.png"  transform="matrix(0.1973 0 0 0.1973 628.9998 148.1639)">
			</image>
		</g>
	</g>
</g>
<rect id="Water_4" x="936" y="251.3" class="st8" width="77.5" height="19.6"/>
<rect id="Water_8" x="594.6" y="544.1" class="st8" width="87.2" height="19.6"/>
<circle id="Tank_Empty_Corner" class="st12" cx="687.8" cy="557.6" r="17.4"/>
<rect id="Water_6" x="284" y="251.7" class="st8" width="170.8" height="19.6"/>
<g>
	<g>
		
			<image style="overflow:visible;" width="512" height="136" xlink:href="DBC672B6.png"  transform="matrix(0.2949 0 0 0.2949 659.415 241.5091)">
		</image>
	</g>
</g>
<g id="Fringe_3">
	<g>
		
			<image style="overflow:visible;enable-background:new    ;" width="324" height="505" xlink:href="C52FA756.png"  transform="matrix(8.922845e-02 0 0 8.922845e-02 439.493 238.4115)">
		</image>
	</g>
</g>
<g id="Fringe_1">
	<g>
		
			<image style="overflow:visible;enable-background:new    ;" width="321" height="505" xlink:href="C52FA758.png"  transform="matrix(8.946922e-02 0 0 8.946922e-02 448.3727 238.3507)">
		</image>
	</g>
</g>
<polygon id="Water_5_00000029753909131935383240000011318300002000349854_" class="st8" points="665.5,251.8 809.6,246.9 
	809.6,275.7 665.5,271.6 "/>
<g id="Fringe_4">
	<g>
		
			<image style="overflow:visible;enable-background:new    ;" width="326" height="505" xlink:href="C52FA755.png"  transform="matrix(8.906778e-02 0 0 8.906778e-02 800.4221 238.452)">
		</image>
	</g>
</g>
<g id="Fringe_2">
	<g>
		
			<image style="overflow:visible;enable-background:new    ;" width="328" height="505" xlink:href="C52FA757.png"  transform="matrix(8.890700e-02 0 0 8.890700e-02 809.6147 238.4927)">
		</image>
	</g>
</g>
<g>
	<g>
		
			<image style="overflow:visible;" width="512" height="136" xlink:href="DBC672BB.png"  transform="matrix(0.2949 0 0 0.2949 468.6703 241.5091)">
		</image>
	</g>
</g>
<g>
	<g>
		
			<image style="overflow:visible;" width="512" height="292" xlink:href="DBC672BD.png"  transform="matrix(9.960938e-02 0 0 9.960938e-02 614.4958 246.7709)">
		</image>
	</g>
</g>
<rect id="Water_5" x="830.1" y="251.7" class="st8" width="93.8" height="19.6"/>
<rect id="Water_5_00000022554816499561912810000005151851835577669044_" x="614.7" y="251.7" class="st8" width="50.9" height="19.9"/>
<polygon id="Water_5_00000025412403537014838250000016061329958211429783_" class="st8" points="468.4,246.9 615.4,251.7 
	615.4,271.5 468.4,275.9 "/>
<circle id="Corner_Top_Right" class="st12" cx="1013.5" cy="265" r="17.4"/>
<ellipse id="Suction_Pipe_Opening" class="st8" cx="1013.8" cy="614.8" rx="9.8" ry="3"/>
<ellipse id="Tank_Empty_End" class="st8" cx="691.5" cy="621.6" rx="9.8" ry="3"/>
<polygon id="Tank_Water_Back" class="st8" points="245.1,441.2 587.9,442.1 587.9,551.2 245.1,551.2 "/>
<g>
	<polygon class="st2" points="590.1,365.2 590.1,550.6 531.2,619.8 531.2,434.4 	"/>
</g>
<g id="Tank_Empty_Control">
	<g>
		<g>
			
				<image style="overflow:visible;enable-background:new    ;" width="412" height="508" xlink:href="C52FA7C7.png"  transform="matrix(9.887402e-02 0 0 9.887402e-02 557.2469 528.4517)">
			</image>
		</g>
	</g>
	<g>
		<g>
			
				<image style="overflow:visible;enable-background:new    ;" width="168" height="503" xlink:href="C52FA7CF.png"  transform="matrix(3.819093e-02 0 0 3.819093e-02 574.4069 514.5919)">
			</image>
		</g>
	</g>
	<g>
		<g>
			
				<image style="overflow:visible;enable-background:new    ;" width="503" height="188" xlink:href="C52FA7C1.png"  transform="matrix(8.546718e-02 0 0 8.546718e-02 556.1201 508.6844)">
			</image>
		</g>
	</g>
</g>
<g id="Tank_Empty_Control_00000000920067168395717810000001351023711700812424_">
	<g>
		<g>
			
				<image style="overflow:visible;enable-background:new    ;" width="412" height="508" xlink:href="C52FA7C7.png"  transform="matrix(9.887402e-02 0 0 9.887402e-02 909.639 236.4501)">
			</image>
		</g>
	</g>
	<g>
		<g>
			
				<image style="overflow:visible;enable-background:new    ;" width="168" height="503" xlink:href="C52FA7CF.png"  transform="matrix(3.819093e-02 0 0 3.819093e-02 926.799 222.5903)">
			</image>
		</g>
	</g>
	<g>
		<g>
			
				<image style="overflow:visible;enable-background:new    ;" width="503" height="188" xlink:href="C52FA7C1.png"  transform="matrix(8.546718e-02 0 0 8.546718e-02 908.5121 216.6827)">
			</image>
		</g>
	</g>
</g>
<polygon id="Tank_Water_Left" class="st8" points="245.2,550 187.2,620.6 187.2,510.6 244.8,440 "/>
<g>
	<g>
		
			<image style="overflow:visible;enable-background:new    ;" width="99" height="512" xlink:href="C70F2021.png"  transform="matrix(0.3085 0 0 0.3085 267.6958 262.832)">
		</image>
	</g>
</g>
<rect id="Water_7" x="273.2" y="273.5" class="st8" width="19.6" height="297.1"/>
<rect id="Tank_Water_Front" x="187.2" y="510.6" class="st13" width="344.8" height="110"/>
<circle id="Corner_Top_Left" class="st12" cx="287" cy="264.1" r="17.4"/>
<rect id="Water_1_00000089564059632108250580000010305647277149992622_" x="487.3" y="191.9" class="st8" width="15.7" height="56.6"/>
<rect id="Water_1_00000023280525139427984640000004354890104034201492_" x="776.1" y="163.1" class="st8" width="15.7" height="85.5"/>
<rect id="Water_1_00000041996206729814309530000005835618673236873150_" x="533.8" y="196.9" class="st8" width="15.7" height="52.9"/>
<rect id="Water_1_00000155857031813301072250000013837940465146211204_" x="729" y="172.3" class="st8" width="15.7" height="77.6"/>
<rect id="Water_1_00000179636689930127749040000016229450599834296982_" x="585" y="208" class="st8" width="15.7" height="44.6"/>
<rect id="Water_1_00000181767412062119184330000013166541734369112507_" x="633.2" y="214.1" class="st8" width="15.7" height="37.7"/>
<rect id="Water_1_00000040547049238087827610000006900214781200654479_" x="679.7" y="191.9" class="st8" width="15.7" height="60.7"/>
<line class="st14" x1="531.8" y1="435.4" x2="187.4" y2="434.4"/>
<g>
	<g>
		<g>
			
				<image style="overflow:visible;enable-background:new    ;" width="513" height="238" xlink:href="C52FA7C2.png"  transform="matrix(0.4361 0 0 0.4361 22.5491 254.8631)">
			</image>
		</g>
	</g>
	<path class="st15" d="M208.4,344.5H55c-10.2,0-18.4-8.2-18.4-18.4v-29.5c0-10.2,8.2-18.4,18.4-18.4h153.4
		c10.2,0,18.4,8.2,18.4,18.4v29.5C226.8,336.3,218.6,344.5,208.4,344.5z"/>
</g>
<g>
	<g>
		<g>
			
				<image style="overflow:visible;enable-background:new    ;" width="513" height="284" xlink:href="C52FA7C3.png"  transform="matrix(0.2182 0 0 0.2764 1055.889 174.8675)">
			</image>
		</g>
	</g>
	<path class="st16" d="M1137,246.3h-55.4c-8.4,0-15.2-8.6-15.2-19.3v-18.4c0-10.6,6.8-19.3,15.2-19.3h55.4c8.4,0,15.2,8.6,15.2,19.3
		V227C1152.2,237.6,1145.4,246.3,1137,246.3z"/>
</g>
<text transform="matrix(0.945 0 0 1 44.3584 318.5502)" class="st17 st18">00</text>
<text transform="matrix(1.0432 0 0 1 1094.6738 233.5541)" class="st17 st19">1</text>
<text transform="matrix(1.0432 0 0 1 1036.8877 117.6761)" class="st20 st21 st22"> </text>
<text transform="matrix(1.0432 0 0 1 879.5039 314.4725)" class="st1"><tspan x="0" y="0" class="st20 st23">Flow Rate</tspan><tspan x="17.5" y="25.2" class="st20 st23">Valve </tspan></text>
<text transform="matrix(1.0432 0 0 1 1082.5319 143.5848)" class="st1"><tspan x="0" y="0" class="st20 st23">Valve</tspan><tspan x="-24.5" y="25.2" class="st20 st23">Positioning</tspan></text>
<text transform="matrix(1.0432 0 0 1 590.3436 482.2005)" class="st20 st23">Gate Valve </text>
<text transform="matrix(1.0432 0 0 1 99.7643 240.554)" class="st20 st23">Timer </text>
<text transform="matrix(1.0432 0 0 1 585.6163 64.9126)" class="st20 st23">Manometer </text>
<g>
	<g>
		
			<image style="overflow:visible;enable-background:new    ;" width="515" height="174" xlink:href="C52FA7C4.png"  transform="matrix(7.787361e-02 0 0 0.1337 475.3557 108.4468)">
		</image>
	</g>
</g>
<path class="st16" d="M509.9,129.6h-29.4c-1.8,0-3.2-2.5-3.2-5.6v-5.9c0-3.1,1.4-5.6,3.2-5.6h29.4c1.8,0,3.2,2.5,3.2,5.6v5.9
	C513.2,127.2,511.7,129.6,509.9,129.6z"/>
<text transform="matrix(0.9887 0 0 1 478.0527 127.1439)" class="st17 st24">10.0</text>
<text transform="matrix(1.0397 0 0 1 488.1974 92.5903)" class="st20 st25">h7</text>
<text transform="matrix(1.0397 0 0 1 486.3822 102.9518)" class="st26 st27">(cm)</text>
<g>
	<g>
		
			<image style="overflow:visible;enable-background:new    ;" width="515" height="174" xlink:href="C52FA7C4.png"  transform="matrix(7.787361e-02 0 0 0.1337 522.9039 108.4468)">
		</image>
	</g>
</g>
<path class="st16" d="M557.5,129.6h-29.4c-1.8,0-3.2-2.5-3.2-5.6v-5.9c0-3.1,1.4-5.6,3.2-5.6h29.4c1.8,0,3.2,2.5,3.2,5.6v5.9
	C560.7,127.2,559.3,129.6,557.5,129.6z"/>
<text transform="matrix(0.9887 0 0 1 525.6006 127.1439)" class="st17 st24">10.0</text>
<text transform="matrix(1.0397 0 0 1 535.118 92.5903)" class="st20 st25">h6</text>
<text transform="matrix(1.0397 0 0 1 533.3029 102.9518)" class="st26 st27">(cm)</text>
<g>
	<g>
		
			<image style="overflow:visible;enable-background:new    ;" width="515" height="174" xlink:href="C52FA7C4.png"  transform="matrix(7.787361e-02 0 0 0.1337 572.8234 108.4468)">
		</image>
	</g>
</g>
<path class="st16" d="M607.4,129.6H578c-1.8,0-3.2-2.5-3.2-5.6v-5.9c0-3.1,1.4-5.6,3.2-5.6h29.4c1.8,0,3.2,2.5,3.2,5.6v5.9
	C610.6,127.2,609.2,129.6,607.4,129.6z"/>
<text transform="matrix(0.9887 0 0 1 575.5205 127.1439)" class="st17 st24">10.0</text>
<text transform="matrix(1.0397 0 0 1 586.2994 92.5903)" class="st20 st25">h5</text>
<text transform="matrix(1.0397 0 0 1 584.4843 102.9518)" class="st26 st27">(cm)</text>
<g>
	<g>
		
			<image style="overflow:visible;enable-background:new    ;" width="515" height="174" xlink:href="C52FA7C4.png"  transform="matrix(7.787361e-02 0 0 0.1337 621.5687 108.4468)">
		</image>
	</g>
</g>
<path class="st16" d="M656.1,129.6h-29.4c-1.8,0-3.2-2.5-3.2-5.6v-5.9c0-3.1,1.4-5.6,3.2-5.6h29.4c1.8,0,3.2,2.5,3.2,5.6v5.9
	C659.4,127.2,657.9,129.6,656.1,129.6z"/>
<text transform="matrix(0.9887 0 0 1 624.2656 127.1439)" class="st17 st24">10.0</text>
<text transform="matrix(1.0397 0 0 1 634.4436 92.5903)" class="st20 st25">h4</text>
<text transform="matrix(1.0397 0 0 1 632.6284 102.9518)" class="st26 st27">(cm)</text>
<g>
	<g>
		
			<image style="overflow:visible;enable-background:new    ;" width="515" height="174" xlink:href="C52FA7C4.png"  transform="matrix(7.787361e-02 0 0 0.1337 668.7192 108.4468)">
		</image>
	</g>
</g>
<path class="st16" d="M703.3,129.6h-29.4c-1.8,0-3.2-2.5-3.2-5.6v-5.9c0-3.1,1.4-5.6,3.2-5.6h29.4c1.8,0,3.2,2.5,3.2,5.6v5.9
	C706.5,127.2,705.1,129.6,703.3,129.6z"/>
<text transform="matrix(0.9887 0 0 1 671.417 127.1439)" class="st17 st24">10.0</text>
<text transform="matrix(1.0397 0 0 1 681.9797 92.5903)" class="st20 st25">h3</text>
<text transform="matrix(1.0397 0 0 1 680.1646 102.9518)" class="st26 st27">(cm)</text>
<g>
	<g>
		
			<image style="overflow:visible;enable-background:new    ;" width="515" height="174" xlink:href="C52FA7C4.png"  transform="matrix(7.787361e-02 0 0 0.1337 716.7463 108.4468)">
		</image>
	</g>
</g>
<path class="st16" d="M751.3,129.6H722c-1.8,0-3.2-2.5-3.2-5.6v-5.9c0-3.1,1.4-5.6,3.2-5.6h29.4c1.8,0,3.2,2.5,3.2,5.6v5.9
	C754.6,127.2,753.1,129.6,751.3,129.6z"/>
<text transform="matrix(0.9887 0 0 1 719.4434 127.1439)" class="st17 st24">10.0</text>
<text transform="matrix(1.0397 0 0 1 730.3308 92.5903)" class="st20 st25">h2</text>
<text transform="matrix(1.0397 0 0 1 728.5156 102.9518)" class="st26 st27">(cm)</text>
<g>
	<g>
		
			<image style="overflow:visible;enable-background:new    ;" width="515" height="174" xlink:href="C52FA7C4.png"  transform="matrix(7.787361e-02 0 0 0.1337 763.3936 108.4468)">
		</image>
	</g>
</g>
<path class="st16" d="M798,129.6h-29.4c-1.8,0-3.2-2.5-3.2-5.6v-5.9c0-3.1,1.4-5.6,3.2-5.6H798c1.8,0,3.2,2.5,3.2,5.6v5.9
	C801.2,127.2,799.8,129.6,798,129.6z"/>
<text transform="matrix(0.9887 0 0 1 766.0908 127.1439)" class="st17 st24">10.0</text>
<text transform="matrix(1.0397 0 0 1 775.3801 92.5903)" class="st20 st25">h1</text>
<text transform="matrix(1.0397 0 0 1 773.5649 102.9518)" class="st26 st27">(cm)</text>
<text transform="matrix(0.945 0 0 1 111.4229 318.1986)" class="st17 st18">00</text>
<text transform="matrix(0.945 0 0 1 175.8916 319.0521)" class="st17 st18">00</text>
<text transform="matrix(0.8527 0 0 1 53.3506 336.6761)" class="st17 st28">min</text>
<text transform="matrix(0.8527 0 0 1 121.7041 335.8226)" class="st17 st28">sec</text>
<text transform="matrix(0.8527 0 0 1 188.915 335.8226)" class="st17 st28">ms</text>
<text transform="matrix(0.945 0 0 1 96.8105 314.7816)" class="st17 st29">:</text>
<text transform="matrix(0.945 0 0 1 160.4326 314.4525)" class="st17 st29">:</text>
<path class="st30" d="M56.1,524.6"/>
<path class="st30" d="M55.8,535.5"/>
<path class="st30" d="M55.8,546.8"/>
<path class="st30" d="M55.8,558.5"/>
<g>
	<line class="st30" x1="127.5" y1="590.1" x2="186.7" y2="590.1"/>
	<line class="st30" x1="127.5" y1="597.3" x2="186.7" y2="597.3"/>
	<line class="st30" x1="127.5" y1="605.2" x2="186.7" y2="605.2"/>
	<line class="st30" x1="127.5" y1="613.1" x2="186.7" y2="613.1"/>
	<polyline class="st30" points="186.5,620.3 127.7,620.3 127.7,534.9 	"/>
	<path class="st30" d="M186.5,534.9"/>
	<line class="st30" x1="127.5" y1="545.9" x2="186.7" y2="545.9"/>
	<path class="st30" d="M187,545.3"/>
	<line class="st30" x1="127.5" y1="553.2" x2="186.7" y2="553.2"/>
	<path class="st30" d="M186.7,552.7"/>
	<line class="st30" x1="127.5" y1="560.6" x2="186.7" y2="560.6"/>
	<path class="st30" d="M186.7,560.3"/>
	<line class="st30" x1="127.5" y1="568.4" x2="186.7" y2="568.4"/>
	<path class="st30" d="M186.7,568.2"/>
	<line class="st30" x1="127.5" y1="575.7" x2="186.7" y2="575.7"/>
	<line class="st30" x1="127.5" y1="582.8" x2="186.7" y2="582.8"/>
	<rect x="125.4" y="532.3" class="st31" width="44.6" height="89.1"/>
	<text transform="matrix(1.5478 0 0 1 154.4233 615.9125)" class="st17 st32">1</text>
	<text transform="matrix(1.5478 0 0 1 154.5581 623.4828)" class="st17 st32">0</text>
	<text transform="matrix(1.5478 0 0 1 154.4233 607.8842)" class="st17 st32">2</text>
	<text transform="matrix(1.5478 0 0 1 154.4233 599.9974)" class="st17 st32">3</text>
	<text transform="matrix(1.5478 0 0 1 154.4233 592.2357)" class="st17 st32">4</text>
	<text transform="matrix(1.5478 0 0 1 154.4233 585.3744)" class="st17 st32">5</text>
	<text transform="matrix(1.5478 0 0 1 154.4233 578.1976)" class="st17 st32">6</text>
	<text transform="matrix(1.5478 0 0 1 154.4233 571.3129)" class="st17 st32">7</text>
	<text transform="matrix(1.5478 0 0 1 154.4233 563.4613)" class="st17 st32">8</text>
	<text transform="matrix(1.5478 0 0 1 154.4233 555.9164)" class="st17 st32">9</text>
	<text transform="matrix(1.5478 0 0 1 151.0527 548.4271)" class="st17 st32">10</text>
</g>
<g>
	<line class="st30" x1="127.5" y1="507.1" x2="186.7" y2="507.1"/>
	<line class="st30" x1="127.5" y1="514.3" x2="186.7" y2="514.3"/>
	<line class="st30" x1="127.5" y1="522.2" x2="186.7" y2="522.2"/>
	<line class="st30" x1="127.5" y1="530.1" x2="186.7" y2="530.1"/>
	<polyline class="st30" points="186.5,537.3 127.7,537.3 127.7,451.9 	"/>
	<path class="st30" d="M186.5,451.9"/>
	<path class="st30" d="M186.7,462.9"/>
	<path class="st30" d="M127.5,462.9"/>
	<path class="st30" d="M187,462.3"/>
	<line class="st30" x1="127.5" y1="470.2" x2="186.7" y2="470.2"/>
	<path class="st30" d="M186.7,469.7"/>
	<line class="st30" x1="127.5" y1="477.6" x2="186.7" y2="477.6"/>
	<path class="st30" d="M186.7,477.3"/>
	<line class="st30" x1="127.5" y1="485.5" x2="186.7" y2="485.5"/>
	<path class="st30" d="M186.7,485.2"/>
	<line class="st30" x1="127.5" y1="492.7" x2="186.7" y2="492.7"/>
	<line class="st30" x1="127.5" y1="499.9" x2="186.7" y2="499.9"/>
	<rect x="125.4" y="449.4" class="st31" width="44.6" height="89.1"/>
	<text transform="matrix(1.5478 0 0 1 151.6958 532.9388)" class="st17 st32">12</text>
	<text transform="matrix(1.5478 0 0 1 151.6958 540.5101)" class="st17 st32">11</text>
	<text transform="matrix(1.5478 0 0 1 151.8955 524.9105)" class="st17 st32">13</text>
	<text transform="matrix(1.5478 0 0 1 151.8955 517.0238)" class="st17 st32">14</text>
	<text transform="matrix(1.5478 0 0 1 151.8955 509.2611)" class="st17 st32">15</text>
	<text transform="matrix(1.5478 0 0 1 151.8955 502.3998)" class="st17 st32">16</text>
	<text transform="matrix(1.5478 0 0 1 151.8955 495.224)" class="st17 st32">17</text>
	<text transform="matrix(1.5478 0 0 1 151.8955 488.3392)" class="st17 st32">18</text>
	<text transform="matrix(1.5478 0 0 1 151.8955 480.4896)" class="st17 st32">19</text>
	<text transform="matrix(1.5478 0 0 1 152.7383 472.9418)" class="st17 st32">20</text>
</g>
<g>
	<g>
		
			<image style="overflow:visible;enable-background:new    ;" width="515" height="174" xlink:href="C52FA7C4.png"  transform="matrix(0.1104 0 0 0.1895 79.2588 508.3131)">
		</image>
	</g>
</g>
<path class="st16" d="M128.3,538.4H86.6c-2.5,0-4.6-3.5-4.6-7.9v-8.3c0-4.3,2.1-7.9,4.6-7.9h41.6c2.5,0,4.6,3.5,4.6,7.9v8.3
	C132.9,534.8,130.8,538.4,128.3,538.4z"/>
<text transform="matrix(0.9887 0 0 1 83.0818 534.822)" class="st17 st33">10.0</text>
<text transform="matrix(1.0397 0 0 1 99.1981 479.1329)" class="st20 st23">H</text>
<text transform="matrix(1.0397 0 0 1 87.0821 498.3997)" class="st26 st23">(cm)</text>
<ellipse id="Venturimeter_Opening_2" class="st8" cx="469.5" cy="261.4" rx="5.6" ry="14.5"/>
<ellipse id="Venturimeter_Opening_1" class="st8" cx="830.1" cy="261.5" rx="3.5" ry="9.8"/>
<g>
	<rect x="120.6" y="620.1" width="15.8" height="3.2"/>
	<polyline points="136.4,615.7 144.5,621.7 136.4,627.7 	"/>
</g>
<g>
	<rect x="610.9" y="501.6" transform="matrix(0.4766 -0.8791 0.8791 0.4766 -115.5504 815.8779)" width="33.1" height="6.7"/>
	<polyline points="630.6,525.6 611.5,534.5 608.5,513.6 	"/>
</g>
<g>
	<rect x="962.2" y="181.6" transform="matrix(0.4829 -0.8757 0.8757 0.4829 344.1407 952.7335)" width="33.1" height="6.7"/>
	<polyline points="981.8,205.6 962.6,214.4 959.8,193.5 	"/>
</g>
<g>
	<rect x="1012.9" y="399.9" class="st34" width="3.2" height="15.8"/>
	<polyline class="st34" points="1008.5,399.9 1014.5,391.7 1020.5,399.9 	"/>
</g>
<g>
	<rect x="1012.9" y="316.9" class="st34" width="3.2" height="15.8"/>
	<polyline class="st34" points="1008.5,316.9 1014.5,308.7 1020.5,316.9 	"/>
</g>
<g>
	<rect x="866.4" y="259.2" class="st34" width="15.8" height="3.2"/>
	<polyline class="st34" points="866.4,266.8 858.2,260.8 866.4,254.8 	"/>
</g>
<g>
	<rect x="379" y="259.6" class="st34" width="15.8" height="3.2"/>
	<polyline class="st34" points="379.1,267.2 370.9,261.2 379.1,255.1 	"/>
</g>
<g>
	<rect x="281.5" y="313.9" class="st34" width="3.2" height="15.8"/>
	<polyline class="st34" points="289,329.6 283,337.8 277,329.6 	"/>
</g>
<g id="Motor">
	<rect x="1004.4" y="464.8" class="st35" width="19.2" height="76.3"/>
	<polygon class="st36" points="998.4,527.1 991.1,523.2 991.1,483.4 998.4,479.5 	"/>
	<path class="st37" d="M1023.6,541.1L1023.6,541.1v-76.3l0,0c3.6,0,6.4,2.9,6.4,6.4v63.5C1030.1,538.2,1027.2,541.1,1023.6,541.1z"
		/>
	<path class="st37" d="M1004.4,541.1L1004.4,541.1c-3.6,0-6.4-2.9-6.4-6.4v-63.5c0-3.6,2.9-6.4,6.4-6.4l0,0V541.1z"/>
	<rect x="1006.3" y="452.6" class="st38" width="15.3" height="12.3"/>
	<rect x="1006.3" y="541" class="st38" width="15.3" height="12.3"/>
	<rect x="997.1" y="438.9" class="st39" width="32.9" height="17"/>
	<rect x="1030.1" y="479" class="st39" width="17" height="47.8"/>
	<rect x="997.1" y="551.4" class="st39" width="32.9" height="17"/>
	<path class="st40" d="M1076.9,546.7h87c5.2,0,9.5-4.3,9.5-9.5v-69.4c0-5.2-4.3-9.5-9.5-9.5h-87c-17.9,0-32.5,14.5-32.5,32.5v23.4
		C1044.4,532.1,1058.9,546.7,1076.9,546.7z"/>
	<rect x="1120.1" y="471.6" class="st39" width="29.1" height="7.4"/>
	<rect x="1061.1" y="575.2" class="st39" width="94.4" height="7.2"/>
	<path class="st36" d="M1155.4,575.2l-94.3-0.1c3.3-0.2,14.6-1.1,24.4-10.1c7.5-6.9,10.1-15,11.1-18.5c8,0,16,0,24,0
		c0.8,3.6,3,10.6,9,16.9C1139.5,574,1152.3,575,1155.4,575.2z"/>
	<rect x="1120.1" y="485.5" class="st39" width="29.1" height="7.4"/>
	<rect x="1120.1" y="499.6" class="st39" width="29.1" height="7.4"/>
	<rect x="1120.1" y="513" class="st39" width="29.1" height="7.4"/>
	<rect x="1120.1" y="526.4" class="st39" width="29.1" height="7.4"/>
</g>
</svg>
