<?xml version="1.0" encoding="utf-8"?>
<!-- Generator: Adobe Illustrator 27.3.1, SVG Export Plug-In . SVG Version: 6.00 Build 0)  -->
<svg version="1.1" id="Layer_1" xmlns="http://www.w3.org/2000/svg" xmlns:xlink="http://www.w3.org/1999/xlink" x="0px" y="0px"
	 viewBox="0 0 1295 847.7" style="enable-background:new 0 0 1295 847.7;" xml:space="preserve">
<style type="text/css">
	.st0{enable-background:new    ;}
	.st1{fill:#005460;}
	.st2{fill:#005D6B;}
	.st3{fill:#808080;}
	.st4{fill:#8F8F8F;}
	.st5{fill:#E9E9E9;}
	.st6{fill:#0098AE;}
	.st7{fill:#8AE3FF;}
	.st8{fill:#00554F;}
	.st9{fill:#005F58;}
	.st10{opacity:0.9;}
	.st11{fill:#BBC2CC;}
	.st12{opacity:0.88;}
	.st13{fill:#F1FF8D;stroke:#F1FFA1;stroke-width:3;stroke-miterlimit:10;}
	.st14{fill:#8AE3FF;stroke:#000000;stroke-miterlimit:10;}
	.st15{fill:none;stroke:#005F58;stroke-width:3;stroke-miterlimit:10;}
	.st16{fill:#FFFFFF;stroke:#FFFFFF;stroke-width:2;stroke-miterlimit:10;}
	.st17{fill:#FFFFFF;stroke:#000000;stroke-width:2;stroke-miterlimit:10;}
	.st18{font-family:'ArialMT';}
	.st19{font-size:45.7156px;}
	.st20{font-size:45px;}
	.st21{font-family:'TimesNewRomanPS-BoldMT';}
	.st22{font-size:32px;}
	.st23{letter-spacing:25.9;}
	.st24{font-size:19.7019px;}
	.st25{font-size:47.7148px;}
	.st26{fill:none;stroke:#23005F;stroke-width:0.75;stroke-miterlimit:10;}
	.st27{fill:#FFFFFF;}
	.st28{font-size:3.8714px;}
	.st29{font-size:3.46px;}
	.st30{font-size:3.4597px;}
	.st31{font-size:10.7074px;}
	.st32{font-size:3.5335px;}
	.st33{fill:#009FB4;}
	.st34{fill:#AEED2D;}
	.st35{fill:#D1D3D4;}
	.st36{fill:#1A2D58;}
	.st37{fill:#808285;}
	.st38{fill:#CBCDCF;}
	.st39{fill:#081835;}
	.st40{fill:#E3C6A7;}
</style>
<g>
	<g>
		<g>
			
				<image style="overflow:visible;enable-background:new    ;" width="1067" height="118" xlink:href="B5BEEBF3.png"  transform="matrix(0.999 0 0 0.999 185.5744 680.2949)">
			</image>
		</g>
	</g>
</g>
<g>
	<g>
		
			<image style="overflow:visible;enable-background:new    ;" width="646" height="271" xlink:href="B5BEEBF1.png"  transform="matrix(0.9981 0 0 0.9981 595.6044 503.8862)">
		</image>
	</g>
</g>
<g>
	<g>
		
			<image style="overflow:visible;enable-background:new    ;" width="88" height="511" xlink:href="B5BEEBFE.png"  transform="matrix(0.4891 0 0 0.4891 222.0019 540.2811)">
		</image>
	</g>
</g>
<g>
	<g>
		
			<image style="overflow:visible;enable-background:new    ;" width="86" height="512" xlink:href="B5BEEBFF.png"  transform="matrix(0.4885 0 0 0.4885 267.6013 488.3259)">
		</image>
	</g>
</g>
<g>
	<g>
		
			<image style="overflow:visible;enable-background:new    ;" width="88" height="512" xlink:href="B5BEEBF2.png"  transform="matrix(0.4881 0 0 0.4881 514.9359 488.4066)">
		</image>
	</g>
</g>
<g>
	<g>
		
			<image style="overflow:visible;enable-background:new    ;" width="88" height="512" xlink:href="B5BEEBF5.png"  transform="matrix(0.4881 0 0 0.4881 469.8518 541.2742)">
		</image>
	</g>
</g>
<g>
	<g>
		<g class="st0">
			<g>
				<polygon class="st1" points="588,508 588,523.5 245.6,522.3 245.6,506.9 				"/>
			</g>
			<g>
				<polygon class="st2" points="245.6,506.9 245.6,522.3 188.4,589.7 188.4,574.2 				"/>
			</g>
			<g>
				<polygon class="st3" points="530.7,575.4 530.7,590.8 188.4,589.7 188.4,574.2 				"/>
			</g>
			<g>
				<polygon class="st4" points="588,508 588,523.5 530.7,590.8 530.7,575.4 				"/>
			</g>
			<g>
				<polygon class="st5" points="245.6,506.9 588,508 530.7,575.4 188.4,574.2 				"/>
			</g>
			<g>
				<polygon class="st1" points="531.2,576.3 531.2,591.8 186.3,590.6 186.3,575.1 				"/>
			</g>
			<g>
				<polygon class="st2" points="590.1,507.1 590.1,522.5 531.2,591.8 531.2,576.3 				"/>
			</g>
			<g>
				<path class="st6" d="M245.1,505.9l344.9,1.2l-58.9,69.2l-344.9-1.2L245.1,505.9z M530.7,575.4l57.2-67.3l-342.4-1.2l-57.2,67.3
					L530.7,575.4"/>
			</g>
		</g>
	</g>
</g>
<polygon id="Water_Tank_Base" class="st7" points="530.5,576.7 188.2,574.9 245.8,507.2 588.1,508.9 "/>
<g>
	<g>
		<g class="st0">
			<g>
				<polygon class="st8" points="245,321.1 590,322.3 590,507.7 245,506.5 				"/>
			</g>
			<g>
				<polygon class="st8" points="587.9,323.2 587.9,508.6 245.5,507.5 245.5,322 				"/>
			</g>
			<g>
				<polygon class="st3" points="245.5,322 587.9,323.2 587.9,508.6 245.5,507.5 				"/>
			</g>
			<g>
				<polygon class="st9" points="186.2,390.3 245,321.1 245,506.5 186.2,575.7 				"/>
			</g>
			<g>
				<polygon class="st9" points="245.5,322 245.5,507.5 188.3,574.8 188.3,389.4 				"/>
			</g>
			<g>
				<polygon class="st4" points="188.3,389.4 245.5,322 245.5,507.5 188.3,574.8 				"/>
			</g>
			<g>
				<polygon class="st9" points="530.6,390.6 587.9,323.2 587.9,508.6 530.6,576 				"/>
			</g>
			<g>
				<polygon class="st4" points="587.9,323.2 587.9,508.6 530.6,576 530.6,390.6 				"/>
			</g>
		</g>
	</g>
</g>
<g>
	<g>
		
			<image style="overflow:visible;enable-background:new    ;" width="509" height="153" xlink:href="C70F2020.png"  transform="matrix(0.1965 0 0 0.1965 591.0237 495.538)">
		</image>
	</g>
</g>
<g class="st10">
	<g>
		
			<image style="overflow:visible;enable-background:new    ;" width="512" height="128" xlink:href="C70F202F.png"  transform="matrix(0.6774 0 0 0.6774 893.2593 503.8959)">
		</image>
	</g>
</g>
<g>
	<g>
		
			<image style="overflow:visible;enable-background:new    ;" width="54" height="511" xlink:href="C52FA6DB.png"  transform="matrix(0.5752 0 0 0.3689 997.9247 217.2723)">
		</image>
	</g>
</g>
<g>
	<g>
		
			<image style="overflow:visible;enable-background:new    ;" width="511" height="87" xlink:href="C52FA6DC.png"  transform="matrix(0.3464 0 0 0.3464 833.4285 202.8112)">
		</image>
	</g>
</g>
<g>
	<g>
		
			<image style="overflow:visible;enable-background:new    ;" width="513" height="43" xlink:href="C52FA6DD.png"  transform="matrix(0.6978 0 0 0.6978 278.412 202.8737)">
		</image>
	</g>
</g>
<rect id="Mercury_Left" x="683.9" y="317.9" class="st11" width="7.4" height="37.5"/>
<rect id="Mercury_Right" x="767.2" y="317.9" class="st11" width="7.5" height="37"/>
<g id="Mercury_Fixed">
	<g>
		<path class="st11" d="M774.7,354c0.1,1,0,5.6-0.1,7.4c-0.1,2.7-0.6,9.4-4.9,17.1c-6.3,11.1-15,17.5-16.9,18.4
			c-3.2,1.5-11.6,8.3-26.1,6c-14.3-2.3-23.2-10.1-27.5-14.4c-11-10.8-15.1-24-15.1-34.3l7.4,0.3c0,8.5,2.2,18.4,11.2,27.4
			c3.5,3.5,9.4,10.7,21,12.6c11.8,1.9,21.9-3.1,24.4-4.3c1.5-0.7,9.5-6.3,14.6-15.5c3.6-6.4,4-10.5,4.1-12.8c0.1-1.4,0.7-7,0.6-7.9
			L774.7,354L774.7,354z"/>
	</g>
</g>
<g class="st12">
	<g>
		
			<image style="overflow:visible;enable-background:new    ;" width="258" height="511" xlink:href="C52FA6DA.png"  transform="matrix(0.3759 0 0 0.3759 680.3782 216.4965)">
		</image>
	</g>
</g>
<g>
	<g>
		
			<image style="overflow:visible;" width="512" height="125" xlink:href="2A09881D.png"  transform="matrix(0.3145 0 0 0.3145 647.2446 198.7467)">
		</image>
	</g>
</g>
<g>
	<g>
		
			<image style="overflow:visible;enable-background:new    ;" width="209" height="510" xlink:href="C52FA74A.png"  transform="matrix(0.1416 0 0 0.1078 998.6578 521.5599)">
		</image>
	</g>
</g>
<g>
	<g>
		
			<image style="overflow:visible;enable-background:new    ;" width="212" height="510" xlink:href="C52FA74F.png"  transform="matrix(0.1413 0 0 0.1413 676.5494 510.5391)">
		</image>
	</g>
</g>
<rect id="Water_1" x="1004" y="519.8" class="st7" width="19.6" height="51.7"/>
<rect id="Water_9" x="681.6" y="521.8" class="st7" width="19.6" height="56.8"/>
<rect id="Water_3" x="1004.7" y="228.2" class="st7" width="19.6" height="175.2"/>
<rect id="Water_4" x="936" y="208.2" class="st7" width="77.5" height="19.6"/>
<rect id="Water_8" x="594.6" y="501" class="st7" width="87.2" height="19.6"/>
<circle id="Tank_Empty_Corner" class="st13" cx="687.8" cy="514.5" r="17.4"/>
<rect id="Manometer_Water_Right_00000080197925184150286820000005080878160067944331_" x="769.2" y="234.4" class="st7" width="4.2" height="83.5"/>
<rect id="Water_6" x="289.4" y="208.6" class="st7" width="338.9" height="19.6"/>
<rect id="Manometer_Water_Right" x="686" y="233.5" class="st7" width="4.5" height="84.4"/>
<g id="Fringe_3">
	<g>
		
			<image style="overflow:visible;enable-background:new    ;" width="324" height="505" xlink:href="C52FA756.png"  transform="matrix(8.922845e-02 0 0 8.922845e-02 621.3771 195.3477)">
		</image>
	</g>
</g>
<g id="Fringe_1">
	<g>
		
			<image style="overflow:visible;enable-background:new    ;" width="321" height="505" xlink:href="C52FA758.png"  transform="matrix(8.946922e-02 0 0 8.946922e-02 630.2568 195.2869)">
		</image>
	</g>
</g>
<rect id="Water_5_00000062907981060019551920000004634209684482722736_" x="650.3" y="206" class="st7" width="155.7" height="25.2"/>
<g id="Fringe_4">
	<g>
		
			<image style="overflow:visible;enable-background:new    ;" width="326" height="505" xlink:href="C52FA755.png"  transform="matrix(8.906778e-02 0 0 8.906778e-02 800.4221 195.3882)">
		</image>
	</g>
</g>
<g id="Fringe_2">
	<g>
		
			<image style="overflow:visible;enable-background:new    ;" width="328" height="505" xlink:href="C52FA757.png"  transform="matrix(8.890700e-02 0 0 8.890700e-02 809.6147 195.4289)">
		</image>
	</g>
</g>
<rect id="Water_5" x="830.1" y="208.6" class="st7" width="93.8" height="19.6"/>
<circle id="Corner_Top_Right" class="st13" cx="1013.5" cy="221.9" r="17.4"/>
<ellipse id="Suction_Pipe_Opening" class="st7" cx="1013.8" cy="571.7" rx="9.8" ry="3"/>
<ellipse id="Tank_Empty_End" class="st7" cx="691.5" cy="578.5" rx="9.8" ry="3"/>
<polygon id="Tank_Water_Back" class="st7" points="245.1,398.1 587.9,399 587.9,508.1 245.1,508.1 "/>
<g>
	<polygon class="st1" points="590.1,322.1 590.1,507.5 531.2,576.7 531.2,391.3 	"/>
</g>
<g id="Tank_Empty_Control">
	<g>
		<g>
			
				<image style="overflow:visible;enable-background:new    ;" width="412" height="508" xlink:href="C52FA7C7.png"  transform="matrix(9.887402e-02 0 0 9.887402e-02 557.2469 485.3879)">
			</image>
		</g>
	</g>
	<g>
		<g>
			
				<image style="overflow:visible;enable-background:new    ;" width="168" height="503" xlink:href="C52FA7CF.png"  transform="matrix(3.819093e-02 0 0 3.819093e-02 574.4069 471.5281)">
			</image>
		</g>
	</g>
	<g>
		<g>
			
				<image style="overflow:visible;enable-background:new    ;" width="503" height="188" xlink:href="C52FA7C1.png"  transform="matrix(8.546718e-02 0 0 8.546718e-02 556.1201 465.6205)">
			</image>
		</g>
	</g>
</g>
<g id="Tank_Empty_Control_00000000920067168395717810000001351023711700812424_">
	<g>
		<g>
			
				<image style="overflow:visible;enable-background:new    ;" width="412" height="508" xlink:href="C52FA7C7.png"  transform="matrix(9.887402e-02 0 0 9.887402e-02 909.639 193.3863)">
			</image>
		</g>
	</g>
	<g>
		<g>
			
				<image style="overflow:visible;enable-background:new    ;" width="168" height="503" xlink:href="C52FA7CF.png"  transform="matrix(3.819093e-02 0 0 3.819093e-02 926.799 179.5265)">
			</image>
		</g>
	</g>
	<g>
		<g>
			
				<image style="overflow:visible;enable-background:new    ;" width="503" height="188" xlink:href="C52FA7C1.png"  transform="matrix(8.546718e-02 0 0 8.546718e-02 908.5121 173.6189)">
			</image>
		</g>
	</g>
</g>
<polygon id="Tank_Water_Left" class="st7" points="245.2,506.9 187.2,577.5 187.2,467.5 244.8,396.9 "/>
<g>
	<g>
		
			<image style="overflow:visible;enable-background:new    ;" width="99" height="512" xlink:href="C70F2021.png"  transform="matrix(0.3085 0 0 0.3085 267.6958 219.7682)">
		</image>
	</g>
</g>
<rect id="Water_7" x="273.2" y="230.4" class="st7" width="19.6" height="297.1"/>
<rect id="Tank_Water_Front" x="187.2" y="467.5" class="st14" width="344.8" height="110"/>
<circle id="Corner_Top_Left" class="st13" cx="287" cy="221" r="17.4"/>
<line class="st15" x1="531.8" y1="392.3" x2="187.4" y2="391.3"/>
<g>
	<g>
		<g>
			
				<image style="overflow:visible;enable-background:new    ;" width="513" height="238" xlink:href="C52FA7C2.png"  transform="matrix(0.4361 0 0 0.4361 22.5491 211.7993)">
			</image>
		</g>
	</g>
	<path class="st16" d="M208.4,301.4H55c-10.2,0-18.4-8.2-18.4-18.4v-29.5c0-10.2,8.2-18.4,18.4-18.4h153.4
		c10.2,0,18.4,8.2,18.4,18.4V283C226.8,293.2,218.6,301.4,208.4,301.4z"/>
</g>
<g>
	<g>
		<g>
			
				<image style="overflow:visible;enable-background:new    ;" width="513" height="284" xlink:href="C52FA7C3.png"  transform="matrix(0.2182 0 0 0.2764 1055.889 131.8037)">
			</image>
		</g>
	</g>
	<path class="st17" d="M1137,203.2h-55.4c-8.4,0-15.2-8.6-15.2-19.3v-18.4c0-10.6,6.8-19.3,15.2-19.3h55.4c8.4,0,15.2,8.6,15.2,19.3
		v18.4C1152.2,194.5,1145.4,203.2,1137,203.2z"/>
</g>
<text transform="matrix(0.945 0 0 1 44.3584 275.4863)" class="st18 st19">00</text>
<text transform="matrix(1.0432 0 0 1 1094.6738 190.4902)" class="st18 st20">1</text>
<g>
	<g>
		
			<image style="overflow:visible;enable-background:new    ;" width="515" height="174" xlink:href="C52FA7C4.png"  transform="matrix(0.5324 0 0 0.5324 595.9982 78.6911)">
		</image>
	</g>
</g>
<path class="st17" d="M832.4,163.1H631.6c-12.2,0-22.2-9.9-22.2-22.2v-23.4c0-12.2,9.9-22.2,22.2-22.2h200.8
	c12.2,0,22.2,9.9,22.2,22.2v23.4C854.5,153.2,844.6,163.1,832.4,163.1z"/>
<text transform="matrix(0.9887 0 0 1 615.4014 142.457)" class="st18 st20">100 mm Hg</text>
<text transform="matrix(1.0432 0 0 1 1036.8877 74.6123)" class="st21 st22 st23"> </text>
<text transform="matrix(1.0432 0 0 1 1074.4434 74.6123)" class="st21 st22">Valve </text>
<text transform="matrix(1.0432 0 0 1 1036.8877 113.0117)" class="st21 st22">Positioning</text>
<text transform="matrix(1.0397 0 0 1 588.9019 59.002)" class="st21 st22">Manometer Reading</text>
<text transform="matrix(1.0397 0 0 1 89.9434 197.7368)" class="st21 st22">Timer</text>
<text transform="matrix(0.945 0 0 1 111.4229 275.1348)" class="st18 st19">00</text>
<text transform="matrix(0.945 0 0 1 175.8916 275.9883)" class="st18 st19">00</text>
<text transform="matrix(0.8527 0 0 1 53.3506 293.6123)" class="st18 st24">min</text>
<text transform="matrix(0.8527 0 0 1 121.7041 292.7588)" class="st18 st24">sec</text>
<text transform="matrix(0.8527 0 0 1 188.915 292.7588)" class="st18 st24">ms</text>
<text transform="matrix(0.945 0 0 1 96.8105 271.7178)" class="st18 st25">:</text>
<text transform="matrix(0.945 0 0 1 160.4326 271.3887)" class="st18 st25">:</text>
<g id="Manometer_Scale">
	<g>
		<g>
			
				<image style="overflow:visible;enable-background:new    ;" width="100" height="513" xlink:href="C52FA7C0.png"  transform="matrix(0.2489 0 0 0.2489 720.6174 257.4166)">
			</image>
		</g>
	</g>
	<g>
		<line class="st26" x1="721.6" y1="331.7" x2="740.9" y2="331.7"/>
		<line class="st26" x1="721.6" y1="337.5" x2="740.9" y2="337.5"/>
		<line class="st26" x1="721.6" y1="343.3" x2="740.9" y2="343.3"/>
		<line class="st26" x1="721.6" y1="349.1" x2="740.9" y2="349.1"/>
		<line class="st26" x1="721.6" y1="354.9" x2="740.9" y2="354.9"/>
		<line class="st26" x1="721.6" y1="360.6" x2="740.9" y2="360.6"/>
		<line class="st26" x1="721.6" y1="366.4" x2="740.9" y2="366.4"/>
		<line class="st26" x1="721.6" y1="372.2" x2="740.9" y2="372.2"/>
		<line class="st26" x1="721.6" y1="378" x2="740.9" y2="378"/>
		<g>
			<rect x="721.7" y="257.8" class="st26" width="19.2" height="127.1"/>
			<line class="st26" x1="721.6" y1="264.2" x2="740.9" y2="264.2"/>
			<line class="st26" x1="721.6" y1="269.7" x2="740.9" y2="269.7"/>
			<line class="st26" x1="721.6" y1="275" x2="740.9" y2="275"/>
			<line class="st26" x1="721.6" y1="280.4" x2="740.9" y2="280.4"/>
			<line class="st26" x1="721.6" y1="285.8" x2="740.9" y2="285.8"/>
			<line class="st26" x1="721.6" y1="291.2" x2="740.9" y2="291.2"/>
			<line class="st26" x1="721.6" y1="297" x2="740.9" y2="297"/>
			<line class="st26" x1="721.6" y1="302.8" x2="740.9" y2="302.8"/>
			<line class="st26" x1="721.6" y1="308.5" x2="740.9" y2="308.5"/>
			<line class="st26" x1="721.6" y1="314.3" x2="740.9" y2="314.3"/>
			<line class="st26" x1="721.6" y1="320.1" x2="740.9" y2="320.1"/>
			<line class="st26" x1="721.6" y1="326" x2="740.9" y2="326"/>
			<rect x="727.1" y="258.4" class="st27" width="8.5" height="124.9"/>
			<text transform="matrix(1.1057 0 0 1 728.0322 265.4561)" class="st18 st28">100</text>
			<text transform="matrix(1.1057 0 0 1 728.0312 379.5322)" class="st18 st28">100</text>
			<text transform="matrix(1.144 0 0 1 729.792 270.5146)" class="st18 st29">90</text>
			<text transform="matrix(1.0581 0 0 1 729.9268 275.8657)" class="st18 st30">80</text>
			<text transform="matrix(1.0581 0 0 1 729.9521 281.4116)" class="st18 st30">70</text>
			<text transform="matrix(1.0581 0 0 1 729.9521 286.6602)" class="st18 st30">60</text>
			<text transform="matrix(1.0581 0 0 1 729.9521 292.3994)" class="st18 st30">50</text>
			<text transform="matrix(1.0581 0 0 1 730.1621 298.4492)" class="st18 st30">40</text>
			<text transform="matrix(1.0581 0 0 1 729.9521 303.7979)" class="st18 st30">30</text>
			<text transform="matrix(1.0581 0 0 1 729.9521 309.4844)" class="st18 st30">20</text>
			<text transform="matrix(1.0581 0 0 1 729.9521 315.27)" class="st18 st30">10</text>
			<text transform="matrix(1.0581 0 0 1 730.9414 321.3311)" class="st18 st30">0</text>
			<text transform="matrix(1.0581 0 0 1 729.9521 327.1484)" class="st18 st30">10</text>
			<text transform="matrix(1.0581 0 0 1 730.1074 332.8076)" class="st18 st30">20</text>
			<text transform="matrix(1.0581 0 0 1 729.9521 350.1538)" class="st18 st30">50</text>
			<text transform="matrix(1.0581 0 0 1 729.791 356.0337)" class="st18 st30">60</text>
			<text transform="matrix(1.0581 0 0 1 729.791 361.9126)" class="st18 st30">70</text>
			<text transform="matrix(1.0581 0 0 1 729.791 367.6025)" class="st18 st30">80</text>
			<text transform="matrix(1.0581 0 0 1 729.791 373.3857)" class="st18 st30">90</text>
			<text transform="matrix(1.0581 0 0 1 729.9521 344.2876)" class="st18 st30">40</text>
			<text transform="matrix(1.0581 0 0 1 729.9521 338.6064)" class="st18 st30">30</text>
		</g>
	</g>
</g>
<path class="st26" d="M56.1,481.5"/>
<path class="st26" d="M55.8,492.4"/>
<path class="st26" d="M55.8,503.7"/>
<path class="st26" d="M55.8,515.4"/>
<g>
	<line class="st26" x1="125.4" y1="532.9" x2="195.7" y2="532.9"/>
	<line class="st26" x1="125.4" y1="543.5" x2="195.7" y2="543.5"/>
	<line class="st26" x1="125.4" y1="555.2" x2="195.7" y2="555.2"/>
	<line class="st26" x1="125.4" y1="566.9" x2="195.7" y2="566.9"/>
	<polyline class="st26" points="195.4,577.6 125.6,577.6 125.6,451.3 	"/>
	<path class="st26" d="M195.4,451.3"/>
	<line class="st26" x1="125.4" y1="467.5" x2="195.7" y2="467.5"/>
	<path class="st26" d="M196,466.6"/>
	<line class="st26" x1="125.4" y1="478.3" x2="195.7" y2="478.3"/>
	<path class="st26" d="M195.7,477.6"/>
	<line class="st26" x1="125.4" y1="489.3" x2="195.7" y2="489.3"/>
	<path class="st26" d="M195.7,488.8"/>
	<line class="st26" x1="125.4" y1="500.9" x2="195.7" y2="500.9"/>
	<path class="st26" d="M195.7,500.5"/>
	<line class="st26" x1="125.4" y1="511.6" x2="195.7" y2="511.6"/>
	<line class="st26" x1="125.4" y1="522.2" x2="195.7" y2="522.2"/>
	<rect x="122.9" y="447.5" class="st27" width="52.9" height="131.7"/>
	<text transform="matrix(1.2422 0 0 1 157.3359 571.1006)" class="st18 st31">1</text>
	<text transform="matrix(1.2422 0 0 1 157.4961 582.2939)" class="st18 st31">0</text>
	<text transform="matrix(1.2422 0 0 1 157.3359 559.2266)" class="st18 st31">2</text>
	<text transform="matrix(1.2422 0 0 1 157.3359 547.5635)" class="st18 st31">3</text>
	<text transform="matrix(1.2422 0 0 1 157.3359 536.084)" class="st18 st31">4</text>
	<text transform="matrix(1.2422 0 0 1 157.3359 525.9385)" class="st18 st31">5</text>
	<text transform="matrix(1.2422 0 0 1 157.3359 515.3242)" class="st18 st31">6</text>
	<text transform="matrix(1.2422 0 0 1 157.3359 505.1426)" class="st18 st31">7</text>
	<text transform="matrix(1.2422 0 0 1 157.3359 493.5322)" class="st18 st31">8</text>
	<text transform="matrix(1.2422 0 0 1 157.3359 482.374)" class="st18 st31">9</text>
	<text transform="matrix(1.2422 0 0 1 153.3359 471.2979)" class="st18 st31">10</text>
</g>
<text transform="matrix(0.9985 0 0 1 725.6514 261.1934)" class="st18 st32">mm Hg</text>
<ellipse id="Venturimeter_Opening_2" class="st7" cx="650" cy="218.6" rx="4.3" ry="12.6"/>
<ellipse id="Venturimeter_Opening_1" class="st7" cx="830.1" cy="218.4" rx="3.5" ry="9.8"/>
<g>
	<rect x="127.7" y="577.7" width="15.8" height="3.2"/>
	<polyline points="143.5,573.3 151.6,579.3 143.5,585.3 	"/>
</g>
<g>
	<rect x="608.9" y="455.6" transform="matrix(0.4766 -0.8791 0.8791 0.4766 -76.1321 790.0149)" width="33.1" height="6.7"/>
	<polyline points="628.6,479.5 609.5,488.4 606.5,467.5 	"/>
</g>
<g>
	<rect x="962.2" y="138.6" transform="matrix(0.4829 -0.8757 0.8757 0.4829 381.8118 930.4606)" width="33.1" height="6.7"/>
	<polyline points="981.8,162.5 962.6,171.3 959.8,150.4 	"/>
</g>
<g>
	<rect x="1012.9" y="356.8" class="st33" width="3.2" height="15.8"/>
	<polyline class="st33" points="1008.5,356.8 1014.5,348.6 1020.5,356.8 	"/>
</g>
<g>
	<rect x="1012.9" y="273.8" class="st33" width="3.2" height="15.8"/>
	<polyline class="st33" points="1008.5,273.8 1014.5,265.6 1020.5,273.8 	"/>
</g>
<g>
	<rect x="545" y="216.5" class="st33" width="15.8" height="3.2"/>
	<polyline class="st33" points="545.1,224.1 536.9,218.1 545.1,212 	"/>
</g>
<g>
	<rect x="866.4" y="216.1" class="st33" width="15.8" height="3.2"/>
	<polyline class="st33" points="866.4,223.7 858.2,217.7 866.4,211.7 	"/>
</g>
<g>
	<rect x="761.2" y="216.1" class="st33" width="15.8" height="3.2"/>
	<polyline class="st33" points="761.2,223.7 753,217.7 761.2,211.7 	"/>
</g>
<g>
	<rect x="680.3" y="216.1" class="st33" width="15.8" height="3.2"/>
	<polyline class="st33" points="680.3,223.7 672.1,217.7 680.3,211.7 	"/>
</g>
<g>
	<rect x="462" y="216.5" class="st33" width="15.8" height="3.2"/>
	<polyline class="st33" points="462.1,224.1 453.9,218.1 462.1,212 	"/>
</g>
<g>
	<rect x="379" y="216.5" class="st33" width="15.8" height="3.2"/>
	<polyline class="st33" points="379.1,224.1 370.9,218.1 379.1,212 	"/>
</g>
<g>
	<rect x="281.5" y="270.8" class="st33" width="3.2" height="15.8"/>
	<polyline class="st33" points="289,286.5 283,294.7 277,286.5 	"/>
</g>
<rect x="681.8" y="232.6" class="st34" width="12.5" height="4.4"/>
<rect x="765" y="232.6" class="st34" width="12" height="4.1"/>
<g>
	<g>
		
			<image style="overflow:visible;enable-background:new    ;" width="174" height="498" xlink:href="../Orificemeter Exp/E3C77188.png"  transform="matrix(4.262593e-02 0 0 4.262593e-02 730.0455 232.388)">
		</image>
	</g>
</g>
<g>
	<g>
		
			<image style="overflow:visible;enable-background:new    ;" width="174" height="488" xlink:href="../Orificemeter Exp/E3C7718B.png"  transform="matrix(4.340177e-02 0 0 4.340177e-02 729.978 183.0353)">
		</image>
	</g>
</g>
<g>
	<g>
		
			<image style="overflow:visible;enable-background:new    ;" width="106" height="502" xlink:href="../Orificemeter Exp/E3C77197.png"  transform="matrix(4.398452e-02 0 0 4.398452e-02 731.3554 189.5982)">
		</image>
	</g>
</g>
<g>
	<g>
		
			<image style="overflow:visible;enable-background:new    ;" width="109" height="503" xlink:href="../Orificemeter Exp/E3C77187.png"  transform="matrix(4.384732e-02 0 0 4.384732e-02 731.411 225.6532)">
		</image>
	</g>
</g>
<g id="Motor">
	<rect x="1004.4" y="421.7" class="st35" width="19.2" height="76.3"/>
	<polygon class="st36" points="998.4,484 991.1,480.1 991.1,440.3 998.4,436.4 	"/>
	<path class="st37" d="M1023.6,498L1023.6,498v-76.3l0,0c3.6,0,6.4,2.9,6.4,6.4v63.5C1030.1,495.1,1027.2,498,1023.6,498z"/>
	<path class="st37" d="M1004.4,498L1004.4,498c-3.6,0-6.4-2.9-6.4-6.4v-63.5c0-3.6,2.9-6.4,6.4-6.4l0,0V498z"/>
	<rect x="1006.3" y="409.5" class="st38" width="15.3" height="12.3"/>
	<rect x="1006.3" y="497.9" class="st38" width="15.3" height="12.3"/>
	<rect x="997.1" y="395.8" class="st39" width="32.9" height="17"/>
	
		<rect x="1014.6" y="451.3" transform="matrix(-1.836970e-16 1 -1 -1.836970e-16 1498.3646 -578.6849)" class="st39" width="47.8" height="17"/>
	<rect x="997.1" y="508.3" class="st39" width="32.9" height="17"/>
	<path class="st40" d="M1076.9,503.6h87c5.2,0,9.5-4.3,9.5-9.5v-69.4c0-5.2-4.3-9.5-9.5-9.5h-87c-17.9,0-32.5,14.5-32.5,32.5v23.4
		C1044.4,489,1058.9,503.6,1076.9,503.6z"/>
	<rect x="1120.1" y="428.5" class="st39" width="29.1" height="7.4"/>
	<rect x="1061.1" y="532.1" class="st39" width="94.4" height="7.2"/>
	<path class="st36" d="M1155.4,532.1l-94.3-0.1c3.3-0.2,14.6-1.1,24.4-10.1c7.5-6.9,10.1-15,11.1-18.5c8,0,16,0,24,0
		c0.8,3.6,3,10.6,9,16.9C1139.5,530.9,1152.3,531.9,1155.4,532.1z"/>
	<rect x="1120.1" y="442.4" class="st39" width="29.1" height="7.4"/>
	<rect x="1120.1" y="456.5" class="st39" width="29.1" height="7.4"/>
	<rect x="1120.1" y="469.9" class="st39" width="29.1" height="7.4"/>
	<rect x="1120.1" y="483.3" class="st39" width="29.1" height="7.4"/>
</g>
</svg>
