<?xml version="1.0" encoding="utf-8"?>
<!-- Generator: Adobe Illustrator 27.3.1, SVG Export Plug-In . SVG Version: 6.00 Build 0)  -->
<svg version="1.1"
	 id="svg5" xmlns:inkscape="http://www.inkscape.org/namespaces/inkscape" xmlns:sodipodi="http://sodipodi.sourceforge.net/DTD/sodipodi-0.dtd" xmlns:svg="http://www.w3.org/2000/svg" inkscape:version="1.2.2 (732a01da63, 2022-12-09)" sodipodi:docname="svg.svg"
	 xmlns="http://www.w3.org/2000/svg" xmlns:xlink="http://www.w3.org/1999/xlink" x="0px" y="0px" viewBox="0 0 595.3 841.9"
	 style="enable-background:new 0 0 595.3 841.9;" xml:space="preserve">
<style type="text/css">
	.st0{font-family:'ArialMT';}
	.st1{font-size:18px;}
	.st2{fill:none;stroke:#000000;stroke-width:2.0888;stroke-miterlimit:11.3386;}
	.st3{opacity:0.92;fill:#420262;enable-background:new    ;}
</style>
<sodipodi:namedview  bordercolor="#666666" borderopacity="1.0" id="namedview7" inkscape:current-layer="layer1" inkscape:cx="370" inkscape:cy="456.5" inkscape:deskcolor="#d1d1d1" inkscape:document-units="mm" inkscape:pagecheckerboard="0" inkscape:pageopacity="0.0" inkscape:showpageshadow="2" inkscape:window-height="991" inkscape:window-maximized="1" inkscape:window-width="1920" inkscape:window-x="-9" inkscape:window-y="-9" inkscape:zoom="1" pagecolor="#ffffff" showgrid="false" showguides="true">
	</sodipodi:namedview>
<path id="path302" d="M154.9,599.8c-15.3-9.1-14.7-1-16-223.4c-1.1-202.2-1.1-202.2-17.8-224.4c-9.2-12.2-16.4-23.3-15.9-24.7
	c3.5-11.5,41,38.5,41.6,55.4c0.2,6.1,0.6,98.2,0.9,204.5C148.3,628.6,122.2,596,315.5,596c194.9,0,168,38.9,168-243.4
	c0-190,0.6-229.6,3.3-229.6c5,0,8.2,447.3,3.2,460.4c-8.4,22,2.9,20.7-172.6,20.6C184.3,603.8,160.6,603.2,154.9,599.8L154.9,599.8z
	"/>
<text transform="matrix(1 0 0 1 505.2925 505.0439)" class="st0 st1">10 ml</text>
<text transform="matrix(1 0 0 1 506.001 430.2656)" class="st0 st1">20 ml</text>
<text transform="matrix(1 0 0 1 506.001 363.2178)" class="st0 st1">30 ml</text>
<text transform="matrix(1 0 0 1 506.709 301.4126)" class="st0 st1">40 ml</text>
<text transform="matrix(1 0 0 1 506.709 237.7358)" class="st0 st1">50 ml</text>
<text transform="matrix(1 0 0 1 506.709 170.3564)" class="st0 st1">60 ml</text>
<path id="path516" class="st2" d="M455.3,232.4l31.7,0.1"/>
<path id="path1798" class="st2" d="M455.3,295.9l31.7,0.1"/>
<path id="path1800" class="st2" d="M455.3,356.3l31.7,0.1"/>
<path id="path1802" class="st2" d="M455.3,164.4l31.7,0.1"/>
<path id="path1804" class="st2" d="M455.3,424.3l31.7,0.1"/>
<path id="path1806" class="st2" d="M455.3,499.7l31.7,0.1"/>
<path id="path2770" sodipodi:nodetypes="cssssssssssscssccssssssssscc" class="st3" d="M385.6,597.3c-1.6-0.1-3,0-4.5-0.1
	c-2.3-0.1-4.6-0.2-7.1-0.2c-10.3-0.2-20.7-0.5-30.6-0.7c-9.7-0.3-19.1,0-27.9,0c-10.8,0-20.7-0.1-29.4,0.2
	c-53.7,1.8-86.8,2.4-95.1,1.3c-23.3-3.1-34.3-11-41.4-29.6c-4.7-12.2-2.3-29.5-3.9-54.6c-0.8-12.2,0.9-84.3,1.4-85.2
	c0.9-1.5,16.4-3.4,31.8-3.8c23.5-0.7,36.9,0.5,93.4,7.9c15,2,32.2,4.2,38.2,5c68.1,8.5,122.8,6.8,163.1-5c3.3-1,7.2-1.8,8.5-1.8h2.4
	l0,8.4c0,4.6,0,18.4,0,30.7c0,50.8,1,75.4-4.6,94.3c-4.7,15.8-11.1,23.5-21.8,28c-2.6,1.1-5.4,2-8.5,2.7c-1.7,0.4-3.5,0.8-5.4,1.1
	c-1.3,0.2-3.1,0.5-5.4,0.8c-2.1,0.2-4.6,0.4-7.4,0.6c-2.7,0.2-5.7,0.3-8.8,0.4c-1.7,0-3.3,0-5.1,0.1c-10.7,0.2-22.3,0.1-31.1-0.4
	L385.6,597.3z"/>
<g>
	<g>
		
			<image style="overflow:visible;" width="512" height="123" xlink:href="76B4308D.png"  transform="matrix(0.6367 0 0 0.6367 165.5918 71.5918)">
		</image>
	</g>
</g>
</svg>
