<?xml version="1.0" encoding="utf-8"?>
<!-- Generator: Adobe Illustrator 27.3.1, SVG Export Plug-In . SVG Version: 6.00 Build 0)  -->
<svg version="1.1" id="Layer_1" xmlns="http://www.w3.org/2000/svg" xmlns:xlink="http://www.w3.org/1999/xlink" x="0px" y="0px"
	 viewBox="0 0 1457.4 1028.4" style="enable-background:new 0 0 1457.4 1028.4;" xml:space="preserve">
<style type="text/css">
	.st0{enable-background:new    ;}
	.st1{fill:#005460;}
	.st2{fill:#005D6B;}
	.st3{fill:#808080;}
	.st4{fill:#8F8F8F;}
	.st5{fill:#E9E9E9;}
	.st6{fill:#0098AE;}
	.st7{fill:#00554F;}
	.st8{fill:#005F58;}
	.st9{fill:none;stroke:#005F58;stroke-width:3;stroke-miterlimit:10;}
	.st10{opacity:0.9;}
	.st11{fill:#BBC2CC;}
	.st12{opacity:0.88;}
	.st13{fill:#F1FF8D;stroke:#F1FFA1;stroke-width:3;stroke-miterlimit:10;}
	.st14{fill:#FFFFFF;}
	.st15{fill:none;stroke:#23005F;stroke-width:2;stroke-miterlimit:10;}
	.st16{fill:#8AE3FF;}
	.st17{fill:#FFFFFF;stroke:#FFFFFF;stroke-width:2;stroke-miterlimit:10;}
	.st18{font-family:'ArialMT';}
	.st19{font-size:53.5904px;}
	.st20{font-size:23.0957px;}
	.st21{font-size:55.9339px;}
	.st22{fill:none;stroke:#23005F;stroke-width:0.75;stroke-miterlimit:10;}
	.st23{font-size:4.4897px;}
	.st24{font-size:4.0126px;}
	.st25{font-size:4.0123px;}
	.st26{font-size:6.5385px;}
	.st27{font-size:5.8437px;}
	.st28{font-size:5.8433px;}
	.st29{font-size:3.5335px;}
</style>
<g>
	<g>
		<g>
			
				<image style="overflow:visible;enable-background:new    ;" width="1067" height="118" xlink:href="B5BEEBF3.png"  transform="matrix(0.999 0 0 0.999 202.6702 687.5455)">
			</image>
		</g>
	</g>
</g>
<g>
	<g>
		
			<image style="overflow:visible;enable-background:new    ;" width="646" height="271" xlink:href="B5BEEBF1.png"  transform="matrix(0.9981 0 0 0.9981 612.7001 511.1367)">
		</image>
	</g>
</g>
<g>
	<g>
		
			<image style="overflow:visible;enable-background:new    ;" width="88" height="511" xlink:href="B5BEEBFE.png"  transform="matrix(0.4891 0 0 0.4891 239.0977 547.5317)">
		</image>
	</g>
</g>
<g>
	<g>
		
			<image style="overflow:visible;enable-background:new    ;" width="86" height="512" xlink:href="B5BEEBFF.png"  transform="matrix(0.4885 0 0 0.4885 284.6971 495.5765)">
		</image>
	</g>
</g>
<g>
	<g>
		
			<image style="overflow:visible;enable-background:new    ;" width="88" height="512" xlink:href="B5BEEBF2.png"  transform="matrix(0.4881 0 0 0.4881 532.0316 495.6572)">
		</image>
	</g>
</g>
<g>
	<g>
		
			<image style="overflow:visible;enable-background:new    ;" width="88" height="512" xlink:href="B5BEEBF5.png"  transform="matrix(0.4881 0 0 0.4881 486.9476 548.5247)">
		</image>
	</g>
</g>
<g>
	<g>
		<g class="st0">
			<g>
				<polygon class="st1" points="605.1,515.2 605.1,530.7 262.7,529.5 262.7,514.1 				"/>
			</g>
			<g>
				<polygon class="st2" points="262.7,514.1 262.7,529.5 205.5,596.9 205.5,581.4 				"/>
			</g>
			<g>
				<polygon class="st3" points="547.8,582.6 547.8,598 205.5,596.9 205.5,581.4 				"/>
			</g>
			<g>
				<polygon class="st4" points="605.1,515.2 605.1,530.7 547.8,598 547.8,582.6 				"/>
			</g>
			<g>
				<polygon class="st5" points="262.7,514.1 605.1,515.2 547.8,582.6 205.5,581.4 				"/>
			</g>
			<g>
				<polygon class="st1" points="548.3,583.5 548.3,599 203.4,597.8 203.4,582.3 				"/>
			</g>
			<g>
				<polygon class="st2" points="607.2,514.3 607.2,529.7 548.3,599 548.3,583.5 				"/>
			</g>
			<g>
				<path class="st6" d="M262.2,513.1l344.9,1.2l-58.9,69.2l-344.9-1.2L262.2,513.1z M547.8,582.6l57.2-67.3l-342.4-1.2l-57.2,67.3
					L547.8,582.6"/>
			</g>
		</g>
	</g>
</g>
<polygon class="st4" points="547.6,583 205.3,581.2 262.9,513.4 605.2,515.2 "/>
<g>
	<g>
		<g class="st0">
			<g>
				<polygon class="st7" points="262.1,328.3 607.1,329.5 607.1,514.9 262.1,513.7 				"/>
			</g>
			<g>
				<polygon class="st7" points="605,330.4 605,515.8 262.6,514.7 262.6,329.2 				"/>
			</g>
			<g>
				<polygon class="st3" points="262.6,329.2 605,330.4 605,515.8 262.6,514.7 				"/>
			</g>
			<g>
				<polygon class="st8" points="203.3,397.5 262.1,328.3 262.1,513.7 203.3,582.9 				"/>
			</g>
			<g>
				<polygon class="st8" points="262.6,329.2 262.6,514.7 205.4,582 205.4,396.6 				"/>
			</g>
			<g>
				<polygon class="st4" points="205.4,396.6 262.6,329.2 262.6,514.7 205.4,582 				"/>
			</g>
			<g>
				<polygon class="st8" points="547.7,397.8 605,330.4 605,515.8 547.7,583.2 				"/>
			</g>
			<g>
				<polygon class="st4" points="605,330.4 605,515.8 547.7,583.2 547.7,397.8 				"/>
			</g>
			<g>
				<polygon class="st8" points="607.1,329.5 607.1,514.9 548.2,584.1 548.2,398.7 				"/>
			</g>
		</g>
	</g>
</g>
<g>
	<g>
		
			<image style="overflow:visible;enable-background:new    ;" width="98" height="513" xlink:href="B5BEEBC0.png"  transform="matrix(0.308 0 0 0.308 284.9688 226.9849)">
		</image>
	</g>
</g>
<line class="st9" x1="548.9" y1="399.6" x2="204.5" y2="398.6"/>
<g>
	<g>
		
			<image style="overflow:visible;enable-background:new    ;" width="512" height="155" xlink:href="B5BEEBC1.png"  transform="matrix(0.1952 0 0 0.1952 608.149 502.6904)">
		</image>
	</g>
</g>
<g class="st10">
	<g>
		
			<image style="overflow:visible;enable-background:new    ;" width="512" height="127" xlink:href="B5BEEBC3.png"  transform="matrix(0.6777 0 0 0.6777 910.2756 511.4655)">
		</image>
	</g>
</g>
<g>
	<g>
		
			<image style="overflow:visible;enable-background:new    ;" width="54" height="510" xlink:href="44981B2A.png"  transform="matrix(0.5763 0 0 0.5763 1014.9904 224.5262)">
		</image>
	</g>
</g>
<g>
	<g>
		
			<image style="overflow:visible;enable-background:new    ;" width="512" height="78" xlink:href="44981B2B.png"  transform="matrix(0.3829 0 0 0.3829 834.9906 210.1944)">
		</image>
	</g>
</g>
<g>
	<g>
		
			<image style="overflow:visible;enable-background:new    ;" width="513" height="44" xlink:href="44981B2C.png"  transform="matrix(0.6977 0 0 0.6977 295.537 209.778)">
		</image>
	</g>
</g>
<rect x="751" y="327.2" class="st11" width="7.4" height="37.5"/>
<rect x="834.3" y="327.2" class="st11" width="7.5" height="37"/>
<g id="XMLID_00000008126061426304121540000011084407001858678682_">
	<g>
		<path class="st11" d="M841.8,363.3c0.1,1,0,5.6-0.1,7.4c-0.1,2.7-0.6,9.4-4.9,17.1c-6.3,11.1-15,17.5-16.9,18.4
			c-3.2,1.5-11.6,8.3-26.1,6c-14.3-2.3-23.2-10.1-27.5-14.4c-11-10.8-15.1-24-15.1-34.3l7.4,0.3c0,8.5,2.2,18.4,11.2,27.4
			c3.5,3.5,9.4,10.7,21,12.6c11.8,1.9,21.9-3.1,24.4-4.3c1.5-0.7,9.5-6.3,14.6-15.5c3.6-6.4,4-10.5,4.1-12.8c0.1-1.4,0.7-7,0.6-7.9
			L841.8,363.3L841.8,363.3z"/>
	</g>
</g>
<g class="st12">
	<g>
		
			<image style="overflow:visible;enable-background:new    ;" width="263" height="512" xlink:href="44981B2D.png"  transform="matrix(0.3747 0 0 0.3747 746.9529 225.8605)">
		</image>
	</g>
</g>
<g>
	<g>
		
			<image style="overflow:visible;enable-background:new    ;" width="499" height="242" xlink:href="44981B2E.png"  transform="matrix(6.451141e-02 0 0 6.451141e-02 740.2762 217.0726)">
		</image>
	</g>
</g>
<g>
	<g>
		
			<image style="overflow:visible;enable-background:new    ;" width="509" height="152" xlink:href="44981B2F.png"  transform="matrix(0.1966 0 0 0.1966 644.3729 210.1884)">
		</image>
	</g>
</g>
<g>
	<g>
		
			<image style="overflow:visible;enable-background:new    ;" width="508" height="213" xlink:href="44981B34.png"  transform="matrix(0.14 0 0 0.14 768.451 210.2195)">
		</image>
	</g>
</g>
<g>
	<g>
		
			<image style="overflow:visible;enable-background:new    ;" width="215" height="513" xlink:href="44981B35.png"  transform="matrix(0.1403 0 0 0.1403 953.1682 507.8335)">
		</image>
	</g>
</g>
<g>
	<g>
		
			<image style="overflow:visible;enable-background:new    ;" width="210" height="507" xlink:href="44981B36.png"  transform="matrix(0.1422 0 0 0.1422 693.6907 517.7708)">
		</image>
	</g>
</g>
<g>
	<g>
		
			<image style="overflow:visible;enable-background:new    ;" width="510" height="215" xlink:href="44981B37.png"  transform="matrix(0.141 0 0 0.141 960.8704 497.6123)">
		</image>
	</g>
</g>
<g>
	<g>
		
			<image style="overflow:visible;enable-background:new    ;" width="505" height="510" xlink:href="44981B4E.png"  transform="matrix(5.517174e-02 0 0 5.517174e-02 1143.8466 542.5502)">
		</image>
	</g>
</g>
<g>
	<g>
		
			<image style="overflow:visible;enable-background:new    ;" width="498" height="510" xlink:href="44981B52.png"  transform="matrix(5.555162e-02 0 0 5.555162e-02 1101.5796 542.5035)">
		</image>
	</g>
</g>
<g>
	<g>
		
			<image style="overflow:visible;enable-background:new    ;" width="507" height="140" xlink:href="44981B59.png"  transform="matrix(0.1204 0 0 0.1204 1042.526 503.3403)">
		</image>
	</g>
</g>
<g>
	<g>
		
			<image style="overflow:visible;enable-background:new    ;" width="514" height="386" xlink:href="B5BEEBF0.png"  transform="matrix(0.2457 0 0 0.2457 1073.0509 463.713)">
		</image>
	</g>
</g>
<circle class="st13" cx="970.8" cy="514.8" r="17.4"/>
<circle class="st13" cx="704.9" cy="521.8" r="17.4"/>
<circle class="st13" cx="1030.6" cy="229.2" r="17.4"/>
<circle class="st13" cx="304.1" cy="228.3" r="17.4"/>
<g>
	<g>
		
			<image style="overflow:visible;enable-background:new    ;" width="396" height="511" xlink:href="44981B5B.png"  transform="matrix(0.1003 0 0 0.1003 1010.6916 485.5102)">
		</image>
	</g>
</g>
<g>
	<g>
		<g>
			
				<image style="overflow:visible;enable-background:new    ;" width="414" height="507" xlink:href="44981B5C.png"  transform="matrix(-1.814936e-17 9.880049e-02 -9.880049e-02 -1.814936e-17 1055.6096 367.0136)">
			</image>
		</g>
	</g>
	<g>
		<g>
			
				<image style="overflow:visible;enable-background:new    ;" width="171" height="502" xlink:href="44981B5D.png"  transform="matrix(-7.015411e-18 3.819012e-02 -3.819012e-02 -7.015411e-18 1069.5179 384.2001)">
			</image>
		</g>
	</g>
	<g>
		<g>
			
				<image style="overflow:visible;enable-background:new    ;" width="505" height="187" xlink:href="44981B5E.png"  transform="matrix(-1.565558e-17 8.522502e-02 -8.522502e-02 -1.565558e-17 1075.3795 365.946)">
			</image>
		</g>
	</g>
</g>
<g>
	<g>
		<g>
			
				<image style="overflow:visible;enable-background:new    ;" width="420" height="513" xlink:href="44981B5F.png"  transform="matrix(9.754232e-02 0 0 9.754232e-02 574.2268 492.7327)">
			</image>
		</g>
	</g>
	<g>
		<g>
			
				<image style="overflow:visible;enable-background:new    ;" width="189" height="488" xlink:href="44981B5A.png"  transform="matrix(3.870127e-02 0 0 3.870127e-02 591.0535 478.9408)">
			</image>
		</g>
	</g>
	<g>
		<g>
			
				<image style="overflow:visible;enable-background:new    ;" width="512" height="181" xlink:href="44981B70.png"  transform="matrix(8.451242e-02 0 0 8.451242e-02 573.0757 473.2567)">
			</image>
		</g>
	</g>
</g>
<ellipse class="st14" cx="969.2" cy="575.4" rx="12.5" ry="4.5"/>
<path class="st15" d="M750.2,364.2"/>
<path class="st15" d="M760.1,364.2"/>
<rect x="262.2" y="474.9" class="st16" width="285.6" height="41.3"/>
<polygon class="st16" points="262.2,516.7 203.4,584.8 203.4,543.5 262.2,475.4 "/>
<rect x="203.4" y="542.8" class="st16" width="344.8" height="41.3"/>
<g>
	<g>
		<g>
			
				<image style="overflow:visible;enable-background:new    ;" width="514" height="232" xlink:href="44981B71.png"  transform="matrix(0.5097 0 0 0.5097 1109.215 73.3839)">
			</image>
		</g>
	</g>
	<path class="st17" d="M1330.1,176.7H1144c-10.2,0-18.4-8.2-18.4-18.4v-40.9c0-10.2,8.2-18.4,18.4-18.4h186.2
		c10.2,0,18.4,8.2,18.4,18.4v40.9C1348.5,168.5,1340.3,176.7,1330.1,176.7z"/>
</g>
<text transform="matrix(0.945 0 0 1 1134.6289 146.3232)" class="st18 st19">00</text>
<text transform="matrix(0.945 0 0 1 1213.2461 145.9121)" class="st18 st19">00</text>
<text transform="matrix(0.945 0 0 1 1288.8203 146.9121)" class="st18 st19">00</text>
<text transform="matrix(0.8527 0 0 1 1145.1699 167.5718)" class="st18 st20">min</text>
<text transform="matrix(0.8527 0 0 1 1225.2979 166.5718)" class="st18 st20">sec</text>
<text transform="matrix(0.8527 0 0 1 1304.0869 166.5718)" class="st18 st20">ms</text>
<text transform="matrix(0.945 0 0 1 1196.1172 141.9053)" class="st18 st21">:</text>
<text transform="matrix(0.945 0 0 1 1270.6982 141.5195)" class="st18 st21">:</text>
<g>
	<g>
		<g>
			
				<image style="overflow:visible;enable-background:new    ;" width="99" height="511" xlink:href="44981B72.png"  transform="matrix(0.2899 0 0 0.2899 784.8223 248.2537)">
			</image>
		</g>
	</g>
	<g>
		<line class="st22" x1="785.9" y1="334.4" x2="808.3" y2="334.4"/>
		<line class="st22" x1="785.9" y1="341.1" x2="808.3" y2="341.1"/>
		<line class="st22" x1="785.9" y1="347.8" x2="808.3" y2="347.8"/>
		<line class="st22" x1="785.9" y1="354.6" x2="808.3" y2="354.6"/>
		<line class="st22" x1="785.9" y1="361.3" x2="808.3" y2="361.3"/>
		<line class="st22" x1="785.9" y1="368" x2="808.3" y2="368"/>
		<line class="st22" x1="785.9" y1="374.7" x2="808.3" y2="374.7"/>
		<line class="st22" x1="785.9" y1="381.4" x2="808.3" y2="381.4"/>
		<line class="st22" x1="785.9" y1="388.1" x2="808.3" y2="388.1"/>
		<g>
			<rect x="786" y="248.7" class="st22" width="22.3" height="147.4"/>
			<line class="st22" x1="785.9" y1="256.2" x2="808.3" y2="256.2"/>
			<line class="st22" x1="785.9" y1="262.4" x2="808.3" y2="262.4"/>
			<line class="st22" x1="785.9" y1="268.7" x2="808.3" y2="268.7"/>
			<line class="st22" x1="785.9" y1="275" x2="808.3" y2="275"/>
			<line class="st22" x1="785.9" y1="281.2" x2="808.3" y2="281.2"/>
			<line class="st22" x1="785.9" y1="287.5" x2="808.3" y2="287.5"/>
			<line class="st22" x1="785.9" y1="294.2" x2="808.3" y2="294.2"/>
			<line class="st22" x1="785.9" y1="300.9" x2="808.3" y2="300.9"/>
			<line class="st22" x1="785.9" y1="307.6" x2="808.3" y2="307.6"/>
			<line class="st22" x1="785.9" y1="314.3" x2="808.3" y2="314.3"/>
			<line class="st22" x1="785.9" y1="321" x2="808.3" y2="321"/>
			<line class="st22" x1="785.9" y1="327.7" x2="808.3" y2="327.7"/>
			<rect x="792.2" y="249.5" class="st14" width="9.8" height="144.8"/>
			<text transform="matrix(1.1057 0 0 1 793.3359 257.5942)" class="st18 st23">100</text>
			<text transform="matrix(1.1057 0 0 1 793.335 389.8896)" class="st18 st23">100</text>
			<text transform="matrix(1.144 0 0 1 795.377 263.4604)" class="st18 st24">90</text>
			<text transform="matrix(1.0581 0 0 1 795.5332 269.6665)" class="st18 st25">80</text>
			<text transform="matrix(1.0581 0 0 1 795.5635 276.0981)" class="st18 st25">70</text>
			<text transform="matrix(1.0581 0 0 1 795.5635 282.1855)" class="st18 st25">60</text>
			<text transform="matrix(1.0581 0 0 1 795.5635 288.8398)" class="st18 st25">50</text>
			<text transform="matrix(1.0581 0 0 1 795.8066 295.8574)" class="st18 st25">40</text>
			<text transform="matrix(1.0581 0 0 1 795.5635 302.0601)" class="st18 st25">30</text>
			<text transform="matrix(1.0581 0 0 1 795.5635 308.6548)" class="st18 st25">20</text>
			<text transform="matrix(1.0581 0 0 1 795.5635 315.3652)" class="st18 st25">10</text>
			<text transform="matrix(1.0581 0 0 1 796.71 322.3931)" class="st18 st25">0</text>
			<text transform="matrix(1.0581 0 0 1 795.5635 329.1387)" class="st18 st25">10</text>
			<text transform="matrix(1.0581 0 0 1 795.7432 335.7031)" class="st18 st25">20</text>
			<text transform="matrix(1.0581 0 0 1 795.5635 355.8203)" class="st18 st25">50</text>
			<text transform="matrix(1.0581 0 0 1 795.376 362.6387)" class="st18 st25">60</text>
			<text transform="matrix(1.0581 0 0 1 795.376 369.4565)" class="st18 st25">70</text>
			<text transform="matrix(1.0581 0 0 1 795.376 376.0547)" class="st18 st25">80</text>
			<text transform="matrix(1.0581 0 0 1 795.376 382.7607)" class="st18 st25">90</text>
			<text transform="matrix(1.0581 0 0 1 795.5635 349.0171)" class="st18 st25">40</text>
			<text transform="matrix(1.0581 0 0 1 795.5635 342.4277)" class="st18 st25">30</text>
		</g>
	</g>
</g>
<g>
	<g>
		<g>
			
				<image style="overflow:visible;enable-background:new    ;" width="101" height="512" xlink:href="44981B73.png"  transform="matrix(0.4199 0 0 0.4199 144.0341 363.9127)">
			</image>
		</g>
	</g>
	<g>
		<line class="st22" x1="144.2" y1="489.1" x2="179.7" y2="489.1"/>
		<line class="st22" x1="144.2" y1="498.8" x2="179.7" y2="498.8"/>
		<line class="st22" x1="144.2" y1="508.6" x2="179.7" y2="508.6"/>
		<line class="st22" x1="144.2" y1="518.4" x2="179.7" y2="518.4"/>
		<line class="st22" x1="144.2" y1="528.2" x2="179.7" y2="528.2"/>
		<line class="st22" x1="144.2" y1="537.9" x2="179.7" y2="537.9"/>
		<line class="st22" x1="144.2" y1="547.7" x2="179.7" y2="547.7"/>
		<line class="st22" x1="144.2" y1="557.5" x2="179.7" y2="557.5"/>
		<line class="st22" x1="144.2" y1="567.2" x2="179.7" y2="567.2"/>
		<g>
			<rect x="144.3" y="364.2" class="st22" width="35.2" height="214.6"/>
			<line class="st22" x1="144.2" y1="375.1" x2="179.7" y2="375.1"/>
			<line class="st22" x1="144.2" y1="384.2" x2="179.7" y2="384.2"/>
			<line class="st22" x1="144.2" y1="393.3" x2="179.7" y2="393.3"/>
			<line class="st22" x1="144.2" y1="402.5" x2="179.7" y2="402.5"/>
			<line class="st22" x1="144.2" y1="411.6" x2="179.7" y2="411.6"/>
			<line class="st22" x1="144.2" y1="420.7" x2="179.7" y2="420.7"/>
			<line class="st22" x1="144.2" y1="430.5" x2="179.7" y2="430.5"/>
			<line class="st22" x1="144.2" y1="440.2" x2="179.7" y2="440.2"/>
			<line class="st22" x1="144.2" y1="450" x2="179.7" y2="450"/>
			<line class="st22" x1="144.2" y1="459.8" x2="179.7" y2="459.8"/>
			<line class="st22" x1="144.2" y1="469.5" x2="179.7" y2="469.5"/>
			<line class="st22" x1="144.2" y1="479.3" x2="179.7" y2="479.3"/>
			<rect x="154.2" y="365.3" class="st14" width="15.5" height="210.8"/>
			<text transform="matrix(1.2017 0 0 1 156.0093 377.1748)" class="st18 st26">210</text>
			<text transform="matrix(1.2017 0 0 1 155.3628 370.3662)" class="st18 st26">mm</text>
			<text transform="matrix(1.2017 0 0 1 155.0073 569.8418)" class="st18 st26">   0</text>
			<text transform="matrix(1.2433 0 0 1 156.3628 385.7812)" class="st18 st27">200</text>
			<text transform="matrix(1.15 0 0 1 156.6895 394.8164)" class="st18 st28">190</text>
			<text transform="matrix(1.15 0 0 1 156.3623 404.1221)" class="st18 st28">180</text>
			<text transform="matrix(1.15 0 0 1 156.3623 413.0508)" class="st18 st28">170</text>
			<text transform="matrix(1.15 0 0 1 156.6895 422.8076)" class="st18 st28">160</text>
			<text transform="matrix(1.15 0 0 1 156.6895 432.9619)" class="st18 st28">150</text>
			<text transform="matrix(1.15 0 0 1 157.061 441.9316)" class="st18 st28">140</text>
			<text transform="matrix(1.15 0 0 1 157.061 451.5361)" class="st18 st28">130</text>
			<text transform="matrix(1.15 0 0 1 157.061 461.3721)" class="st18 st28">120</text>
			<text transform="matrix(1.15 0 0 1 156.6895 471.6074)" class="st18 st28">100</text>
			<text transform="matrix(1.15 0 0 1 158.5342 481.3682)" class="st18 st28">90</text>
			<text transform="matrix(1.15 0 0 1 158.8184 490.9277)" class="st18 st28">80</text>
			<text transform="matrix(1.15 0 0 1 158.5342 520.2246)" class="st18 st28">50</text>
			<text transform="matrix(1.15 0 0 1 158.2373 530.1553)" class="st18 st28">40</text>
			<text transform="matrix(1.15 0 0 1 158.2373 540.084)" class="st18 st28">30</text>
			<text transform="matrix(1.15 0 0 1 158.2373 549.6934)" class="st18 st28">20</text>
			<text transform="matrix(1.15 0 0 1 158.2373 559.46)" class="st18 st28">10</text>
			<text transform="matrix(1.15 0 0 1 158.5342 510.3184)" class="st18 st28">60</text>
			<text transform="matrix(1.15 0 0 1 158.5342 500.7207)" class="st18 st28">70</text>
		</g>
	</g>
</g>
<text transform="matrix(0.9985 0 0 1 791.752 252.7236)" class="st18 st29">mm Hg</text>
</svg>
