<?xml version="1.0" encoding="utf-8"?>
<!-- Generator: Adobe Illustrator 27.3.1, SVG Export Plug-In . SVG Version: 6.00 Build 0)  -->
<svg version="1.1" id="Layer_1" xmlns="http://www.w3.org/2000/svg" xmlns:xlink="http://www.w3.org/1999/xlink" x="0px" y="0px"
	 viewBox="0 0 1278.6 856.9" style="enable-background:new 0 0 1278.6 856.9;" xml:space="preserve">
<style type="text/css">
	.st0{enable-background:new    ;}
	.st1{fill:#005460;}
	.st2{fill:#005D6B;}
	.st3{fill:#808080;}
	.st4{fill:#8F8F8F;}
	.st5{fill:#E9E9E9;}
	.st6{fill:#0098AE;}
	.st7{fill:#8AE3FF;}
	.st8{fill:#00554F;}
	.st9{fill:#005F58;}
	.st10{opacity:0.9;}
	.st11{fill:#BBC2CC;}
	.st12{opacity:0.88;}
	.st13{fill:#F1FF8D;stroke:#F1FFA1;stroke-width:3;stroke-miterlimit:10;}
	.st14{fill:#8AE3FF;stroke:#000000;stroke-miterlimit:10;}
	.st15{fill:none;stroke:#005F58;stroke-width:3;stroke-miterlimit:10;}
	.st16{fill:#FFFFFF;stroke:#FFFFFF;stroke-width:2;stroke-miterlimit:10;}
	.st17{fill:#FFFFFF;stroke:#000000;stroke-width:2;stroke-miterlimit:10;}
	.st18{font-family:'ArialMT';}
	.st19{font-size:45.7156px;}
	.st20{font-size:45px;}
	.st21{font-family:'TimesNewRomanPS-BoldMT';}
	.st22{font-size:32px;}
	.st23{letter-spacing:25.9;}
	.st24{font-size:19.7019px;}
	.st25{font-size:47.7148px;}
	.st26{fill:none;stroke:#23005F;stroke-width:0.75;stroke-miterlimit:10;}
	.st27{fill:#FFFFFF;}
	.st28{font-size:4.4897px;}
	.st29{font-size:4.0126px;}
	.st30{font-size:4.0123px;}
	.st31{font-size:10.7074px;}
	.st32{font-size:3.5335px;}
	.st33{opacity:0.78;fill:none;stroke:#004D40;stroke-miterlimit:10;enable-background:new    ;}
	.st34{fill:#009FB4;}
</style>
<g>
	<g>
		<g>
			
				<image style="overflow:visible;enable-background:new    ;" width="1067" height="118" xlink:href="B5BEEBF3.png"  transform="matrix(0.999 0 0 0.999 178.4468 688.3762)">
			</image>
		</g>
	</g>
</g>
<g>
	<g>
		
			<image style="overflow:visible;enable-background:new    ;" width="646" height="271" xlink:href="B5BEEBF1.png"  transform="matrix(0.9981 0 0 0.9981 588.6469 511.6271)">
		</image>
	</g>
</g>
<g>
	<g>
		
			<image style="overflow:visible;enable-background:new    ;" width="88" height="511" xlink:href="B5BEEBFE.png"  transform="matrix(0.4891 0 0 0.4891 214.8743 548.3624)">
		</image>
	</g>
</g>
<g>
	<g>
		
			<image style="overflow:visible;enable-background:new    ;" width="86" height="512" xlink:href="B5BEEBFF.png"  transform="matrix(0.4885 0 0 0.4885 260.4737 496.4073)">
		</image>
	</g>
</g>
<g>
	<g>
		
			<image style="overflow:visible;enable-background:new    ;" width="88" height="512" xlink:href="B5BEEBF2.png"  transform="matrix(0.4881 0 0 0.4881 507.8082 496.4879)">
		</image>
	</g>
</g>
<g>
	<g>
		
			<image style="overflow:visible;enable-background:new    ;" width="88" height="512" xlink:href="B5BEEBF5.png"  transform="matrix(0.4881 0 0 0.4881 462.7242 549.3555)">
		</image>
	</g>
</g>
<g>
	<g>
		<g class="st0">
			<g>
				<polygon class="st1" points="580.9,516.1 580.9,531.6 238.5,530.4 238.5,515 				"/>
			</g>
			<g>
				<polygon class="st2" points="238.5,515 238.5,530.4 181.3,597.8 181.3,582.3 				"/>
			</g>
			<g>
				<polygon class="st3" points="523.6,583.5 523.6,598.9 181.3,597.8 181.3,582.3 				"/>
			</g>
			<g>
				<polygon class="st4" points="580.9,516.1 580.9,531.6 523.6,598.9 523.6,583.5 				"/>
			</g>
			<g>
				<polygon class="st5" points="238.5,515 580.9,516.1 523.6,583.5 181.3,582.3 				"/>
			</g>
			<g>
				<polygon class="st1" points="524.1,584.4 524.1,599.9 179.2,598.7 179.2,583.2 				"/>
			</g>
			<g>
				<polygon class="st2" points="583,515.2 583,530.6 524.1,599.9 524.1,584.4 				"/>
			</g>
			<g>
				<path class="st6" d="M238,514l344.9,1.2L524,584.4l-344.9-1.2L238,514z M523.6,583.5l57.2-67.3L238.4,515l-57.2,67.3
					L523.6,583.5"/>
			</g>
		</g>
	</g>
</g>
<polygon id="Water_Tank_Base" class="st7" points="523.4,584.8 181.1,583 238.7,515.3 581,517 "/>
<g>
	<g>
		<g class="st0">
			<g>
				<polygon class="st8" points="237.9,329.2 582.9,330.4 582.9,515.8 237.9,514.6 				"/>
			</g>
			<g>
				<polygon class="st8" points="580.8,331.3 580.8,516.7 238.4,515.6 238.4,330.1 				"/>
			</g>
			<g>
				<polygon class="st3" points="238.4,330.1 580.8,331.3 580.8,516.7 238.4,515.6 				"/>
			</g>
			<g>
				<polygon class="st9" points="179.1,398.4 237.9,329.2 237.9,514.6 179.1,583.8 				"/>
			</g>
			<g>
				<polygon class="st9" points="238.4,330.1 238.4,515.6 181.2,582.9 181.2,397.5 				"/>
			</g>
			<g>
				<polygon class="st4" points="181.2,397.5 238.4,330.1 238.4,515.6 181.2,582.9 				"/>
			</g>
			<g>
				<polygon class="st9" points="523.5,398.7 580.8,331.3 580.8,516.7 523.5,584.1 				"/>
			</g>
			<g>
				<polygon class="st4" points="580.8,331.3 580.8,516.7 523.5,584.1 523.5,398.7 				"/>
			</g>
		</g>
	</g>
</g>
<g>
	<g>
		
			<image style="overflow:visible;enable-background:new    ;" width="509" height="153" xlink:href="C70F2020.png"  transform="matrix(0.1965 0 0 0.1965 583.8961 503.6194)">
		</image>
	</g>
</g>
<g class="st10">
	<g>
		
			<image style="overflow:visible;enable-background:new    ;" width="512" height="128" xlink:href="C70F202F.png"  transform="matrix(0.6774 0 0 0.6774 886.1316 511.9772)">
		</image>
	</g>
</g>
<g>
	<g>
		
			<image style="overflow:visible;enable-background:new    ;" width="54" height="511" xlink:href="C52FA6DB.png"  transform="matrix(0.5752 0 0 0.5752 990.797 225.3537)">
		</image>
	</g>
</g>
<g>
	<g>
		
			<image style="overflow:visible;enable-background:new    ;" width="511" height="87" xlink:href="C52FA6DC.png"  transform="matrix(0.3464 0 0 0.3464 826.3008 210.8925)">
		</image>
	</g>
</g>
<g>
	<g>
		
			<image style="overflow:visible;enable-background:new    ;" width="513" height="43" xlink:href="C52FA6DD.png"  transform="matrix(0.6978 0 0 0.6978 271.2844 210.9551)">
		</image>
	</g>
</g>
<rect id="Mercury_Left" x="726.8" y="331.3" class="st11" width="7.4" height="32.2"/>
<rect id="Mercury_Right" x="810.1" y="331.3" class="st11" width="7.5" height="31.7"/>
<g id="Mercury_Fixed">
	<g>
		<path class="st11" d="M817.6,362.1c0.1,1,0,5.6-0.1,7.4c-0.1,2.7-0.6,9.4-4.9,17.1c-6.3,11.1-15,17.5-16.9,18.4
			c-3.2,1.5-11.6,8.3-26.1,6c-14.3-2.3-23.2-10.1-27.5-14.4c-11-10.8-15.1-24-15.1-34.3l7.4,0.3c0,8.5,2.2,18.4,11.2,27.4
			c3.5,3.5,9.4,10.7,21,12.6c11.8,1.9,21.9-3.1,24.4-4.3c1.5-0.7,9.5-6.3,14.6-15.5c3.6-6.4,4-10.5,4.1-12.8c0.1-1.4,0.7-7,0.6-7.9
			L817.6,362.1L817.6,362.1z"/>
	</g>
</g>
<g>
	<g>
		
			<image style="overflow:visible;enable-background:new    ;" width="510" height="232" xlink:href="C52FA6DE.png"  transform="matrix(6.307670e-02 0 0 6.307670e-02 715.5667 218.7624)">
		</image>
	</g>
</g>
<g class="st12">
	<g>
		
			<image style="overflow:visible;enable-background:new    ;" width="258" height="511" xlink:href="C52FA6DA.png"  transform="matrix(0.3759 0 0 0.3759 723.2505 224.5778)">
		</image>
	</g>
</g>
<g>
	<g>
		
			<image style="overflow:visible;enable-background:new    ;" width="510" height="154" xlink:href="C52FA743.png"  transform="matrix(0.196 0 0 0.196 620.1954 210.866)">
		</image>
	</g>
</g>
<g>
	<g>
		
			<image style="overflow:visible;enable-background:new    ;" width="513" height="179" xlink:href="C52FA74B.png"  transform="matrix(0.1677 0 0 0.1677 744.7762 210.9521)">
		</image>
	</g>
</g>
<g>
	<g>
		
			<image style="overflow:visible;enable-background:new    ;" width="209" height="510" xlink:href="C52FA74A.png"  transform="matrix(0.1416 0 0 0.1416 929.2307 508.5457)">
		</image>
	</g>
</g>
<g>
	<g>
		
			<image style="overflow:visible;enable-background:new    ;" width="212" height="510" xlink:href="C52FA74F.png"  transform="matrix(0.1413 0 0 0.1413 669.4218 518.6204)">
		</image>
	</g>
</g>
<g>
	<g>
		
			<image style="overflow:visible;enable-background:new    ;" width="511" height="211" xlink:href="C52FA74C.png"  transform="matrix(0.1411 0 0 0.1411 936.5363 498.7085)">
		</image>
	</g>
</g>
<g id="Motor_Leg_2">
	<g>
		
			<image style="overflow:visible;enable-background:new    ;" width="509" height="501" xlink:href="C52FA74D.png"  transform="matrix(5.544380e-02 0 0 5.544380e-02 1119.4436 543.5613)">
		</image>
	</g>
</g>
<g id="Motor_Leg_1">
	<g>
		
			<image style="overflow:visible;enable-background:new    ;" width="502" height="502" xlink:href="C52FA74E.png"  transform="matrix(5.577689e-02 0 0 5.577689e-02 1077.1885 543.4999)">
		</image>
	</g>
</g>
<g id="Motor_Shaft">
	<g>
		
			<image style="overflow:visible;enable-background:new    ;" width="508" height="144" xlink:href="C52FA752.png"  transform="matrix(0.1199 0 0 0.1199 1018.3605 503.9639)">
		</image>
	</g>
</g>
<g id="Motor">
	<g>
		
			<image style="overflow:visible;enable-background:new    ;" width="514" height="386" xlink:href="B5BEEBF0.png"  transform="matrix(0.2457 0 0 0.2457 1048.8274 463.5766)">
		</image>
	</g>
</g>
<rect id="Water_9" x="674.5" y="529.9" class="st7" width="19.6" height="62.7"/>

<rect id="Water_2" x="940.8" y="503.8" class="st7" width="56.8" height="19.6"/>
<rect id="Water_4" x="939.2" y="216.2" class="st7" width="56.8" height="19.6"/>
<rect id="Water_3" x="997" y="227.4" class="st7" width="19.6" height="263.4"/>
<g  transform="scale(1,-1) translate(0,-200)">
	<rect id="Water_1" x="934.6" y="519.3" class="st7" width="19.6" height="56.8">
		

</g>
<rect id="Water_8" x="587.5" y="509.1" class="st7" width="87.2" height="19.6"/>
<circle id="Suction_Pipe_Corner" class="st13" cx="946.6" cy="515.7" r="17.4"/>
<circle id="Tank_Empty_Corner" class="st13" cx="680.7" cy="522.6" r="17.4"/>
<g id="Pump">
	<g>
		
			<image style="overflow:visible;enable-background:new    ;" width="398" height="506" xlink:href="C52FA754.png"  transform="matrix(0.1007 0 0 0.1007 986.2838 486.4849)">
		</image>
	</g>
</g>
<rect id="Manometer_Water_Right_00000080197925184150286820000005080878160067944331_" x="811.8" y="231.2" class="st7" width="4.2" height="9.8"/>
<polygon id="Venturimeter_Water_Right" class="st7" points="745.5,221.5 817.6,217.1 817.1,234.5 745.5,230.8 "/>
<rect id="Water_6" x="281.9" y="216.7" class="st7" width="339.2" height="19.6"/>
<g id="Fringe_4">
	<g>
		
			<image style="overflow:visible;enable-background:new    ;" width="326" height="505" xlink:href="C52FA755.png"  transform="matrix(8.906778e-02 0 0 8.906778e-02 793.2944 203.4696)">
		</image>
	</g>
</g>
<g id="Fringe_3">
	<g>
		
			<image style="overflow:visible;enable-background:new    ;" width="324" height="505" xlink:href="C52FA756.png"  transform="matrix(8.922845e-02 0 0 8.922845e-02 614.2495 203.429)">
		</image>
	</g>
</g>
<g id="Fringe_2">
	<g>
		
			<image style="overflow:visible;enable-background:new    ;" width="328" height="505" xlink:href="C52FA757.png"  transform="matrix(8.890700e-02 0 0 8.890700e-02 802.4871 203.5102)">
		</image>
	</g>
</g>
<circle id="Corner_Top_Right" class="st13" cx="1006.4" cy="230" r="17.4"/>
<g id="Fringe_1">
	<g>
		
			<image style="overflow:visible;enable-background:new    ;" width="321" height="505" xlink:href="C52FA758.png"  transform="matrix(8.946922e-02 0 0 8.946922e-02 623.1291 203.3682)">
		</image>
	</g>
</g>
<rect id="Water_5" x="823" y="216.7" class="st7" width="80.5" height="19.6"/>
<ellipse id="Suction_Pipe_Opening" class="st7" cx="944.4" cy="575.9" rx="9.8" ry="3"/>
<ellipse id="Tank_Empty_End" class="st7" cx="684.4" cy="592.6" rx="9.8" ry="3"/>
<polygon id="Tank_Water_Back" class="st7" points="238,406.2 580.8,407.1 580.8,516.2 238,516.2 "/>
<g>
	<polygon class="st1" points="583,330.2 583,515.6 524.1,584.8 524.1,399.4 	"/>
</g>
<g id="Tank_Empty_Control">
	<g>
		<g>
			
				<image style="overflow:visible;enable-background:new    ;" width="412" height="508" xlink:href="C52FA7C7.png"  transform="matrix(9.887402e-02 0 0 9.887402e-02 550.1193 493.4692)">
			</image>
		</g>
	</g>
	<g>
		<g>
			
				<image style="overflow:visible;enable-background:new    ;" width="168" height="503" xlink:href="C52FA7CF.png"  transform="matrix(3.819093e-02 0 0 3.819093e-02 567.2792 479.6095)">
			</image>
		</g>
	</g>
	<g>
		<g>
			
				<image style="overflow:visible;enable-background:new    ;" width="503" height="188" xlink:href="C52FA7C1.png"  transform="matrix(8.546718e-02 0 0 8.546718e-02 548.9924 473.7019)">
			</image>
		</g>
	</g>
</g>
<g id="Tank_Empty_Control_00000000920067168395717810000001351023711700812424_">
	<g>
		<g>
			
				<image style="overflow:visible;enable-background:new    ;" width="412" height="508" xlink:href="C52FA7C7.png"  transform="matrix(9.887402e-02 0 0 9.887402e-02 902.5114 201.4676)">
			</image>
		</g>
	</g>
	<g>
		<g>
			
				<image style="overflow:visible;enable-background:new    ;" width="168" height="503" xlink:href="C52FA7CF.png"  transform="matrix(3.819093e-02 0 0 3.819093e-02 919.6713 187.6078)">
			</image>
		</g>
	</g>
	<g>
		<g>
			
				<image style="overflow:visible;enable-background:new    ;" width="503" height="188" xlink:href="C52FA7C1.png"  transform="matrix(8.546718e-02 0 0 8.546718e-02 901.3844 181.7002)">
			</image>
		</g>
	</g>
</g>
<polygon id="Tank_Water_Left" class="st7" points="238.1,516.1 180.1,586.7 180.1,476.7 237.7,406.1 "/>
<g>
	<g>
		
			<image style="overflow:visible;enable-background:new    ;" width="99" height="512" xlink:href="C70F2021.png"  transform="matrix(0.3085 0 0 0.3085 260.5682 227.8495)">
		</image>
	</g>
</g>
<rect id="Water_7" x="266.1" y="238.5" class="st7" width="19.6" height="297.1"/>
<rect id="Tank_Water_Front" x="180.1" y="475.6" class="st14" width="344.8" height="110"/>
<circle id="Corner_Top_Left" class="st13" cx="279.9" cy="229.1" r="17.4"/>
<line class="st15" x1="524.7" y1="400.4" x2="180.3" y2="399.4"/>
<g>
	<g>
		<g>
			
				<image style="overflow:visible;enable-background:new    ;" width="513" height="238" xlink:href="C52FA7C2.png"  transform="matrix(0.4361 0 0 0.4361 15.4215 219.8806)">
			</image>
		</g>
	</g>
	<path class="st16" d="M201.3,309.5H47.9c-10.2,0-18.4-8.2-18.4-18.4v-29.5c0-10.2,8.2-18.4,18.4-18.4h153.4
		c10.2,0,18.4,8.2,18.4,18.4v29.5C219.7,301.3,211.5,309.5,201.3,309.5z"/>
</g>
<g>
	<g>
		<g>
			
				<image style="overflow:visible;enable-background:new    ;" width="513" height="284" xlink:href="C52FA7C3.png"  transform="matrix(0.2182 0 0 0.2764 1072.1388 343.9941)">
			</image>
		</g>
	</g>
	<path class="st17" d="M1153.3,415.4h-55.4c-8.4,0-15.2-8.6-15.2-19.3v-18.4c0-10.6,6.8-19.3,15.2-19.3h55.4
		c8.4,0,15.2,8.6,15.2,19.3v18.4C1168.5,406.7,1161.7,415.4,1153.3,415.4z"/>
</g>
<text transform="matrix(0.945 0 0 1 37.231 283.5676)" class="st18 st19">00</text>
<text transform="matrix(1.0432 0 0 1 1112.9775 402.6808)" class="st18 st20">0</text>
<g>
	<g>
		
			<image style="overflow:visible;enable-background:new    ;" width="515" height="174" xlink:href="C52FA7C4.png"  transform="matrix(0.5324 0 0 0.5324 588.8705 86.7724)">
		</image>
	</g>
</g>
<path class="st17" d="M825.3,171.2H624.5c-12.2,0-22.2-9.9-22.2-22.2v-23.4c0-12.2,9.9-22.2,22.2-22.2h200.8
	c12.2,0,22.2,9.9,22.2,22.2V149C847.4,161.3,837.5,171.2,825.3,171.2z"/>
<text transform="matrix(0.9887 0 0 1 612.2988 150.5388)" class="st18 st20">0 mm Hg</text>
<text transform="matrix(1.0432 0 0 1 1053.1387 286.8029)" class="st21 st22 st23"> </text>
<text transform="matrix(1.0432 0 0 1 1090.6934 286.8029)" class="st21 st22">Valve </text>
<text transform="matrix(1.0432 0 0 1 1053.1387 325.2028)" class="st21 st22">Positioning</text>
<text transform="matrix(1.0397 0 0 1 581.7744 67.0837)" class="st21 st22">Manometer Reading</text>
<text transform="matrix(1.0397 0 0 1 82.8179 205.8185)" class="st21 st22">Timer</text>
<text transform="matrix(0.945 0 0 1 104.2954 283.216)" class="st18 st19">00</text>
<text transform="matrix(0.945 0 0 1 168.7642 284.0695)" class="st18 st19">00</text>
<text transform="matrix(0.8527 0 0 1 46.2227 301.6935)" class="st18 st24">min</text>
<text transform="matrix(0.8527 0 0 1 114.5767 300.84)" class="st18 st24">sec</text>
<text transform="matrix(0.8527 0 0 1 181.7876 300.84)" class="st18 st24">ms</text>
<text transform="matrix(0.945 0 0 1 89.6836 279.799)" class="st18 st25">:</text>
<text transform="matrix(0.945 0 0 1 153.3052 279.4699)" class="st18 st25">:</text>
<g id="Manometer_Scale">
	<g>
		<g>
			
				<image style="overflow:visible;enable-background:new    ;" width="100" height="513" xlink:href="C52FA7C0.png"  transform="matrix(0.2887 0 0 0.2887 760.5137 245.1013)">
			</image>
		</g>
	</g>
	<g>
		<line class="st26" x1="761.7" y1="331.3" x2="784.1" y2="331.3"/>
		<line class="st26" x1="761.7" y1="338" x2="784.1" y2="338"/>
		<line class="st26" x1="761.7" y1="344.7" x2="784.1" y2="344.7"/>
		<line class="st26" x1="761.7" y1="351.4" x2="784.1" y2="351.4"/>
		<line class="st26" x1="761.7" y1="358.1" x2="784.1" y2="358.1"/>
		<line class="st26" x1="761.7" y1="364.8" x2="784.1" y2="364.8"/>
		<line class="st26" x1="761.7" y1="371.5" x2="784.1" y2="371.5"/>
		<line class="st26" x1="761.7" y1="378.2" x2="784.1" y2="378.2"/>
		<line class="st26" x1="761.7" y1="384.9" x2="784.1" y2="384.9"/>
		<g>
			<rect x="761.8" y="245.5" class="st26" width="22.3" height="147.4"/>
			<line class="st26" x1="761.7" y1="253" x2="784.1" y2="253"/>
			<line class="st26" x1="761.7" y1="259.3" x2="784.1" y2="259.3"/>
			<line class="st26" x1="761.7" y1="265.5" x2="784.1" y2="265.5"/>
			<line class="st26" x1="761.7" y1="271.8" x2="784.1" y2="271.8"/>
			<line class="st26" x1="761.7" y1="278" x2="784.1" y2="278"/>
			<line class="st26" x1="761.7" y1="284.3" x2="784.1" y2="284.3"/>
			<line class="st26" x1="761.7" y1="291" x2="784.1" y2="291"/>
			<line class="st26" x1="761.7" y1="297.7" x2="784.1" y2="297.7"/>
			<line class="st26" x1="761.7" y1="304.4" x2="784.1" y2="304.4"/>
			<line class="st26" x1="761.7" y1="311.1" x2="784.1" y2="311.1"/>
			<line class="st26" x1="761.7" y1="317.8" x2="784.1" y2="317.8"/>
			<line class="st26" x1="761.7" y1="324.6" x2="784.1" y2="324.6"/>
			<rect x="768" y="246.3" class="st27" width="9.8" height="144.8"/>
			<text transform="matrix(1.1057 0 0 1 769.1123 254.425)" class="st18 st28">100</text>
			<text transform="matrix(1.1057 0 0 1 769.1113 386.7209)" class="st18 st28">100</text>
			<text transform="matrix(1.144 0 0 1 771.1533 260.2912)" class="st18 st29">90</text>
			<text transform="matrix(1.0581 0 0 1 771.3105 266.4973)" class="st18 st30">80</text>
			<text transform="matrix(1.0581 0 0 1 771.3408 272.9289)" class="st18 st30">70</text>
			<text transform="matrix(1.0581 0 0 1 771.3408 279.0158)" class="st18 st30">60</text>
			<text transform="matrix(1.0581 0 0 1 771.3408 285.6711)" class="st18 st30">50</text>
			<text transform="matrix(1.0581 0 0 1 771.584 292.6877)" class="st18 st30">40</text>
			<text transform="matrix(1.0581 0 0 1 771.3408 298.8908)" class="st18 st30">30</text>
			<text transform="matrix(1.0581 0 0 1 771.3408 305.4855)" class="st18 st30">20</text>
			<text transform="matrix(1.0581 0 0 1 771.3408 312.1955)" class="st18 st30">10</text>
			<text transform="matrix(1.0581 0 0 1 772.4873 319.2238)" class="st18 st30">0</text>
			<text transform="matrix(1.0581 0 0 1 771.3408 325.9699)" class="st18 st30">10</text>
			<text transform="matrix(1.0581 0 0 1 771.5205 332.5334)" class="st18 st30">20</text>
			<text transform="matrix(1.0581 0 0 1 771.3408 352.6506)" class="st18 st30">50</text>
			<text transform="matrix(1.0581 0 0 1 771.1533 359.4699)" class="st18 st30">60</text>
			<text transform="matrix(1.0581 0 0 1 771.1533 366.2873)" class="st18 st30">70</text>
			<text transform="matrix(1.0581 0 0 1 771.1533 372.8859)" class="st18 st30">80</text>
			<text transform="matrix(1.0581 0 0 1 771.1533 379.592)" class="st18 st30">90</text>
			<text transform="matrix(1.0581 0 0 1 771.3408 345.8478)" class="st18 st30">40</text>
			<text transform="matrix(1.0581 0 0 1 771.3408 339.258)" class="st18 st30">30</text>
		</g>
	</g>
</g>
<path class="st26" d="M49,489.6"/>
<path class="st26" d="M48.7,500.5"/>
<path class="st26" d="M48.7,511.8"/>
<path class="st26" d="M48.7,523.5"/>
<g>
	<line class="st26" x1="118.3" y1="541" x2="188.6" y2="541"/>
	<line class="st26" x1="118.3" y1="551.6" x2="188.6" y2="551.6"/>
	<line class="st26" x1="118.3" y1="563.3" x2="188.6" y2="563.3"/>
	<line class="st26" x1="118.3" y1="575" x2="188.6" y2="575"/>
	<polyline class="st26" points="188.3,585.7 118.5,585.7 118.5,459.4 	"/>
	<path class="st26" d="M188.3,459.4"/>
	<line class="st26" x1="118.3" y1="475.6" x2="188.6" y2="475.6"/>
	<path class="st26" d="M188.9,474.7"/>
	<line class="st26" x1="118.3" y1="486.4" x2="188.6" y2="486.4"/>
	<path class="st26" d="M188.6,485.7"/>
	<line class="st26" x1="118.3" y1="497.4" x2="188.6" y2="497.4"/>
	<path class="st26" d="M188.6,496.9"/>
	<line class="st26" x1="118.3" y1="509" x2="188.6" y2="509"/>
	<path class="st26" d="M188.6,508.6"/>
	<line class="st26" x1="118.3" y1="519.7" x2="188.6" y2="519.7"/>
	<line class="st26" x1="118.3" y1="530.3" x2="188.6" y2="530.3"/>
	<rect x="115.8" y="455.6" class="st27" width="52.9" height="131.7"/>
	<text transform="matrix(1.2422 0 0 1 150.209 579.1818)" class="st18 st31">1</text>
	<text transform="matrix(1.2422 0 0 1 150.3682 590.3752)" class="st18 st31">0</text>
	<text transform="matrix(1.2422 0 0 1 150.209 567.3078)" class="st18 st31">2</text>
	<text transform="matrix(1.2422 0 0 1 150.209 555.6447)" class="st18 st31">3</text>
	<text transform="matrix(1.2422 0 0 1 150.209 544.1652)" class="st18 st31">4</text>
	<text transform="matrix(1.2422 0 0 1 150.209 534.0197)" class="st18 st31">5</text>
	<text transform="matrix(1.2422 0 0 1 150.209 523.4055)" class="st18 st31">6</text>
	<text transform="matrix(1.2422 0 0 1 150.209 513.2238)" class="st18 st31">7</text>
	<text transform="matrix(1.2422 0 0 1 150.209 501.6144)" class="st18 st31">8</text>
	<text transform="matrix(1.2422 0 0 1 150.209 490.4562)" class="st18 st31">9</text>
	<text transform="matrix(1.2422 0 0 1 146.209 479.3791)" class="st18 st31">10</text>
</g>
<text transform="matrix(0.9985 0 0 1 767.5283 249.5544)" class="st18 st32">mm Hg</text>
<polygon id="Venturimeter_Water_Left" class="st7" points="642.7,217.7 719.2,221.5 719.2,230.8 642.7,233.9 "/>
<ellipse id="Venturimeter_Opening_2" class="st7" cx="642.7" cy="225.8" rx="3.5" ry="8.1"/>
<ellipse id="Venturimeter_Opening_1" class="st7" cx="823" cy="226.5" rx="3.5" ry="9.8"/>
<rect id="Venturimeter_Throat" x="719.2" y="221.5" class="st7" width="26.3" height="9.3"/>
<rect id="Manometer_Water_Flow_Path" x="729.2" y="230.8" class="st27" width="4.5" height="2.7"/>
<rect id="Manometer_Water_Right" x="728.8" y="230.8" class="st7" width="4.5" height="0.6"/>
<path class="st33" d="M1088.3,463.8c-3.2,8.6-8.3,24.9-8.3,46.5c0,21.7,5.1,38.2,8.3,46.8"/>
<path class="st33" d="M1134.4,463.8c-3.2,8.6-8.1,24.9-8.2,46.5c0,21.7,5,38.2,8.2,46.8"/>
<line class="st33" x1="1085" y1="474.1" x2="1131.2" y2="474.1"/>
<line class="st33" x1="1083.7" y1="478.8" x2="1130" y2="478.8"/>
<line class="st33" x1="1083" y1="483.5" x2="1129.2" y2="483.5"/>
<line class="st33" x1="1082.1" y1="488.5" x2="1128.3" y2="488.5"/>
<line class="st33" x1="1081.2" y1="493.7" x2="1127.4" y2="493.7"/>
<line class="st33" x1="1080.6" y1="499.3" x2="1126.9" y2="499.3"/>
<line class="st33" x1="1080" y1="504.9" x2="1126.2" y2="504.9"/>
<line class="st33" x1="1079.6" y1="510.4" x2="1125.9" y2="510.4"/>
<line class="st33" x1="1080" y1="515.8" x2="1126.2" y2="515.8"/>
<line class="st33" x1="1080" y1="521" x2="1126.2" y2="521"/>
<line class="st33" x1="1081.2" y1="526.8" x2="1127.4" y2="526.8"/>
<line class="st33" x1="1081.8" y1="532.4" x2="1128" y2="532.4"/>
<line class="st33" x1="1082.9" y1="537.5" x2="1129.1" y2="537.5"/>
<line class="st33" x1="1083.8" y1="542.4" x2="1130.1" y2="542.4"/>
<line class="st33" x1="1085.2" y1="547.4" x2="1131.4" y2="547.4"/>
<line class="st33" x1="1086.3" y1="551.7" x2="1132.6" y2="551.7"/>
<line class="st33" x1="1088.2" y1="556.6" x2="1134.4" y2="556.6"/>
<line class="st33" x1="1086.8" y1="468.9" x2="1133" y2="468.9"/>
<line class="st33" x1="1088.3" y1="464.1" x2="1134.6" y2="464.1"/>
<g>
	<rect x="120.6" y="585.8" width="15.8" height="3.2"/>
	<polyline points="136.4,581.4 144.5,587.4 136.4,593.4 	"/>
</g>
<g>
	<rect x="1005.8" y="447.9" class="st34" width="3.2" height="15.8"/>
	<polyline class="st34" points="1001.4,447.9 1007.4,439.7 1013.4,447.9 	"/>
</g>
<g>
	<rect x="1005.8" y="364.9" class="st34" width="3.2" height="15.8"/>
	<polyline class="st34" points="1001.4,364.9 1007.4,356.7 1013.4,364.9 	"/>
</g>
<g>
	<rect x="1005.8" y="281.9" class="st34" width="3.2" height="15.8"/>
	<polyline class="st34" points="1001.4,281.9 1007.4,273.7 1013.4,281.9 	"/>
</g>
<g>
	<rect x="537.9" y="224.6" class="st34" width="15.8" height="3.2"/>
	<polyline class="st34" points="538,232.2 529.8,226.2 538,220.1 	"/>
</g>
<g>
	<rect x="859.2" y="224.2" class="st34" width="15.8" height="3.2"/>
	<polyline class="st34" points="859.3,231.8 851.1,225.8 859.3,219.8 	"/>
</g>
<g>
	<rect x="454.9" y="224.6" class="st34" width="15.8" height="3.2"/>
	<polyline class="st34" points="455,232.2 446.8,226.2 455,220.1 	"/>
</g>
<g>
	<rect x="371.9" y="224.6" class="st34" width="15.8" height="3.2"/>
	<polyline class="st34" points="372,232.2 363.8,226.2 372,220.1 	"/>
</g>
<g>
	<rect x="274.3" y="278.8" class="st34" width="3.2" height="15.8"/>
	<polyline class="st34" points="281.9,294.6 275.9,302.8 269.9,294.6 	"/>
</g>
</svg>
